<svg xmlns="http://www.w3.org/2000/svg" xmlns:xlink="http://www.w3.org/1999/xlink" viewBox="0 0 458 381.46"><defs><style>.cls-1{isolation:isolate;}.cls-101,.cls-103,.cls-107,.cls-2{fill:#fff;}.cls-3{fill:#628eb3;}.cls-109,.cls-3,.cls-32,.cls-47,.cls-84{opacity:0.5;}.cls-100,.cls-117,.cls-119,.cls-13,.cls-15,.cls-23,.cls-29,.cls-3,.cls-31,.cls-34,.cls-47,.cls-49,.cls-56,.cls-6,.cls-60,.cls-63,.cls-70,.cls-77,.cls-78,.cls-82,.cls-84,.cls-85,.cls-95,.cls-96{mix-blend-mode:multiply;}.cls-4{fill:url(#Áåçûìÿííûé_ãðàäèåíò_7);}.cls-5{fill:url(#Áåçûìÿííûé_ãðàäèåíò_7-2);}.cls-6{fill:#246266;}.cls-10,.cls-100,.cls-103,.cls-15,.cls-26,.cls-29,.cls-6,.cls-63,.cls-95{opacity:0.4;}.cls-7{fill:url(#Áåçûìÿííûé_ãðàäèåíò_7-3);}.cls-8{fill:url(#Áåçûìÿííûé_ãðàäèåíò_7-4);}.cls-9{fill:url(#Áåçûìÿííûé_ãðàäèåíò_7-5);}.cls-10{fill:#47b3aa;}.cls-10,.cls-101,.cls-103,.cls-107,.cls-115,.cls-121,.cls-122,.cls-26,.cls-32,.cls-38,.cls-45{mix-blend-mode:screen;}.cls-11{fill:url(#Áåçûìÿííûé_ãðàäèåíò_46);}.cls-12{fill:#d8ccff;}.cls-13,.cls-47,.cls-50,.cls-63{fill:#60578f;}.cls-107,.cls-13,.cls-23,.cls-31,.cls-34,.cls-38,.cls-45,.cls-49,.cls-56,.cls-60,.cls-78,.cls-85{opacity:0.3;}.cls-14{fill:url(#Áåçûìÿííûé_ãðàäèåíò_198);}.cls-15,.cls-31{fill:#9e4435;}.cls-16{fill:url(#Áåçûìÿííûé_ãðàäèåíò_198-2);}.cls-17{fill:url(#Áåçûìÿííûé_ãðàäèåíò_3);}.cls-18{fill:url(#Áåçûìÿííûé_ãðàäèåíò_6);}.cls-19{fill:url(#Áåçûìÿííûé_ãðàäèåíò_6-2);}.cls-20{fill:url(#Áåçûìÿííûé_ãðàäèåíò_6-3);}.cls-21{fill:url(#Áåçûìÿííûé_ãðàäèåíò_6-4);}.cls-22{fill:url(#Áåçûìÿííûé_ãðàäèåíò_6-5);}.cls-23{fill:#26426a;}.cls-24{fill:url(#Áåçûìÿííûé_ãðàäèåíò_198-3);}.cls-25{fill:url(#Áåçûìÿííûé_ãðàäèåíò_198-4);}.cls-121,.cls-27,.cls-32,.cls-45{fill:#fff7e6;}.cls-28{fill:url(#Áåçûìÿííûé_ãðàäèåíò_31);}.cls-30,.cls-34,.cls-70,.cls-77{fill:#463332;}.cls-33{fill:url(#Áåçûìÿííûé_ãðàäèåíò_22);}.cls-35{fill:url(#Áåçûìÿííûé_ãðàäèåíò_22-2);}.cls-36{fill:url(#Áåçûìÿííûé_ãðàäèåíò_22-3);}.cls-37{fill:url(#Áåçûìÿííûé_ãðàäèåíò_31-2);}.cls-39{fill:url(#Áåçûìÿííûé_ãðàäèåíò_22-4);}.cls-40{fill:url(#Áåçûìÿííûé_ãðàäèåíò_22-5);}.cls-41{fill:url(#Áåçûìÿííûé_ãðàäèåíò_31-3);}.cls-42{fill:url(#Áåçûìÿííûé_ãðàäèåíò_22-6);}.cls-43{fill:url(#Áåçûìÿííûé_ãðàäèåíò_31-4);}.cls-44{fill:url(#Áåçûìÿííûé_ãðàäèåíò_22-7);}.cls-46{fill:url(#Áåçûìÿííûé_ãðàäèåíò_46-2);}.cls-48{fill:url(#Áåçûìÿííûé_ãðàäèåíò_46-3);}.cls-51{fill:url(#Áåçûìÿííûé_ãðàäèåíò_46-4);}.cls-52{fill:#ceb6aa;}.cls-53{fill:#ffe6d6;}.cls-54{fill:url(#Áåçûìÿííûé_ãðàäèåíò_136);}.cls-55{fill:url(#Áåçûìÿííûé_ãðàäèåíò_136-2);}.cls-56{fill:#398191;}.cls-57{fill:url(#Áåçûìÿííûé_ãðàäèåíò_198-5);}.cls-58{fill:url(#Áåçûìÿííûé_ãðàäèåíò_198-6);}.cls-59{fill:url(#Áåçûìÿííûé_ãðàäèåíò_16);}.cls-60{fill:#a0335d;}.cls-61{fill:#b29b93;}.cls-62{fill:url(#Áåçûìÿííûé_ãðàäèåíò_46-5);}.cls-64{fill:url(#Áåçûìÿííûé_ãðàäèåíò_27);}.cls-65{fill:url(#Áåçûìÿííûé_ãðàäèåíò_22-8);}.cls-66{fill:#d2bcad;}.cls-67{fill:url(#Áåçûìÿííûé_ãðàäèåíò_22-9);}.cls-68{fill:url(#Áåçûìÿííûé_ãðàäèåíò_22-10);}.cls-69{fill:url(#Áåçûìÿííûé_ãðàäèåíò_22-11);}.cls-101,.cls-117,.cls-119,.cls-70,.cls-96{opacity:0.2;}.cls-71{fill:url(#Áåçûìÿííûé_ãðàäèåíò_22-12);}.cls-72{fill:url(#Áåçûìÿííûé_ãðàäèåíò_27-2);}.cls-73{fill:url(#Áåçûìÿííûé_ãðàäèåíò_22-13);}.cls-74{fill:url(#Áåçûìÿííûé_ãðàäèåíò_22-14);}.cls-75{fill:url(#Áåçûìÿííûé_ãðàäèåíò_22-15);}.cls-76{fill:url(#Áåçûìÿííûé_ãðàäèåíò_42);}.cls-77{opacity:0.25;}.cls-78{fill:#491d17;}.cls-79{fill:url(#Áåçûìÿííûé_ãðàäèåíò_46-6);}.cls-80{fill:url(#Áåçûìÿííûé_ãðàäèåíò_4);}.cls-81{fill:url(#Áåçûìÿííûé_ãðàäèåíò_4-2);}.cls-82{fill:#ac6b53;}.cls-121,.cls-122,.cls-82{opacity:0.6;}.cls-83{fill:url(#Áåçûìÿííûé_ãðàäèåíò_39);}.cls-84,.cls-85{fill:#e48665;}.cls-86{fill:url(#Áåçûìÿííûé_ãðàäèåíò_138);}.cls-87{fill:#492a21;}.cls-88{fill:url(#Áåçûìÿííûé_ãðàäèåíò_42-2);}.cls-89{fill:url(#Áåçûìÿííûé_ãðàäèåíò_42-3);}.cls-90{fill:url(#Áåçûìÿííûé_ãðàäèåíò_42-4);}.cls-91{fill:#fff4e9;}.cls-92{fill:url(#Áåçûìÿííûé_ãðàäèåíò_42-5);}.cls-93{fill:url(#Áåçûìÿííûé_ãðàäèåíò_2);}.cls-94{fill:url(#Áåçûìÿííûé_ãðàäèåíò_2-2);}.cls-95,.cls-96{fill:#c3694d;}.cls-97{fill:url(#Áåçûìÿííûé_ãðàäèåíò_22-16);}.cls-98{fill:url(#Áåçûìÿííûé_ãðàäèåíò_22-17);}.cls-99{fill:url(#Áåçûìÿííûé_ãðàäèåíò_222);}.cls-100,.cls-102{fill:#a69b9b;}.cls-104{fill:url(#Áåçûìÿííûé_ãðàäèåíò_222-2);}.cls-105{fill:#544140;}.cls-106{fill:url(#Áåçûìÿííûé_ãðàäèåíò_46-7);}.cls-108{fill:url(#Áåçûìÿííûé_ãðàäèåíò_136-3);}.cls-109{fill:url(#Áåçûìÿííûé_ãðàäèåíò_136-4);}.cls-110{fill:url(#Áåçûìÿííûé_ãðàäèåíò_268);}.cls-111{fill:url(#Áåçûìÿííûé_ãðàäèåíò_268-2);}.cls-112{fill:url(#Áåçûìÿííûé_ãðàäèåíò_268-3);}.cls-113{fill:url(#Áåçûìÿííûé_ãðàäèåíò_268-4);}.cls-114{fill:url(#Áåçûìÿííûé_ãðàäèåíò_198-7);}.cls-115{fill:#ffe675;}.cls-116{fill:url(#Áåçûìÿííûé_ãðàäèåíò_198-8);}.cls-117,.cls-120{fill:#aa2424;}.cls-118{fill:#ed9c47;}</style><linearGradient id="Áåçûìÿííûé_ãðàäèåíò_7" x1="331.38" y1="71.11" x2="331.38" y2="275.75" gradientTransform="matrix(1, 0, 0.09, 0.89, -28.2, 38.57)" gradientUnits="userSpaceOnUse"><stop offset="0" stop-color="#35a3a1"/><stop offset="0.31" stop-color="#339a99"/><stop offset="0.81" stop-color="#2e8184"/><stop offset="1" stop-color="#2c767a"/></linearGradient><linearGradient id="Áåçûìÿííûé_ãðàäèåíò_7-2" x1="-282.14" y1="80.68" x2="-282.14" y2="278.81" gradientTransform="matrix(-1, 0, -0.09, 0.93, 89.41, 22.88)" xlink:href="#Áåçûìÿííûé_ãðàäèåíò_7"/><linearGradient id="Áåçûìÿííûé_ãðàäèåíò_7-3" x1="335.63" y1="140.53" x2="335.63" y2="314.54" gradientTransform="matrix(1, 0, -0.01, 1, 3.37, 0)" xlink:href="#Áåçûìÿííûé_ãðàäèåíò_7"/><linearGradient id="Áåçûìÿííûé_ãðàäèåíò_7-4" x1="328.3" y1="131.8" x2="328.3" y2="309.23" gradientTransform="matrix(1, 0, 0.16, 0.9, -52.31, 33.57)" xlink:href="#Áåçûìÿííûé_ãðàäèåíò_7"/><linearGradient id="Áåçûìÿííûé_ãðàäèåíò_7-5" x1="-279.26" y1="153.41" x2="-279.26" y2="304.28" gradientTransform="matrix(-1, 0, -0.16, 0.9, 120.03, 33.57)" xlink:href="#Áåçûìÿííûé_ãðàäèåíò_7"/><linearGradient id="Áåçûìÿííûé_ãðàäèåíò_46" x1="337.65" y1="278.27" x2="337.65" y2="346.86" gradientUnits="userSpaceOnUse"><stop offset="0" stop-color="#987fc9"/><stop offset="1" stop-color="#60578f"/></linearGradient><linearGradient id="Áåçûìÿííûé_ãðàäèåíò_198" x1="55.98" y1="188.72" x2="199.78" y2="188.72" gradientTransform="translate(170.9 -35.15) rotate(45)" gradientUnits="userSpaceOnUse"><stop offset="0" stop-color="#ffe675"/><stop offset="1" stop-color="#e57830"/></linearGradient><linearGradient id="Áåçûìÿííûé_ãðàäèåíò_198-2" x1="134.37" y1="327.09" x2="134.37" y2="278.73" gradientTransform="matrix(1, 0, 0, 1, 0, 0)" xlink:href="#Áåçûìÿííûé_ãðàäèåíò_198"/><linearGradient id="Áåçûìÿííûé_ãðàäèåíò_3" x1="134.37" y1="95.92" x2="134.37" y2="268.42" gradientUnits="userSpaceOnUse"><stop offset="0" stop-color="#67c8cf"/><stop offset="0.61" stop-color="#4a9eb8"/><stop offset="1" stop-color="#3581a7"/></linearGradient><radialGradient id="Áåçûìÿííûé_ãðàäèåíò_6" cx="125.85" cy="164.97" r="106.93" gradientUnits="userSpaceOnUse"><stop offset="0" stop-color="#bfe643"/><stop offset="0.33" stop-color="#b6dd41"/><stop offset="0.87" stop-color="#9ec43d"/><stop offset="1" stop-color="#97bd3c"/></radialGradient><radialGradient id="Áåçûìÿííûé_ãðàäèåíò_6-2" cx="125.85" cy="164.97" r="106.93" xlink:href="#Áåçûìÿííûé_ãðàäèåíò_6"/><radialGradient id="Áåçûìÿííûé_ãðàäèåíò_6-3" cx="125.85" cy="164.97" r="106.93" xlink:href="#Áåçûìÿííûé_ãðàäèåíò_6"/><radialGradient id="Áåçûìÿííûé_ãðàäèåíò_6-4" cx="125.85" cy="164.97" r="106.93" xlink:href="#Áåçûìÿííûé_ãðàäèåíò_6"/><radialGradient id="Áåçûìÿííûé_ãðàäèåíò_6-5" cx="125.85" cy="164.97" r="106.93" xlink:href="#Áåçûìÿííûé_ãðàäèåíò_6"/><linearGradient id="Áåçûìÿííûé_ãðàäèåíò_198-3" x1="63.14" y1="333.21" x2="205.6" y2="333.21" gradientTransform="matrix(1, 0, 0, 1, 0, 0)" xlink:href="#Áåçûìÿííûé_ãðàäèåíò_198"/><linearGradient id="Áåçûìÿííûé_ãðàäèåíò_198-4" x1="30.58" y1="197.39" x2="207.82" y2="197.39" gradientTransform="matrix(1, 0, 0, 1, 0, 0)" xlink:href="#Áåçûìÿííûé_ãðàäèåíò_198"/><linearGradient id="Áåçûìÿííûé_ãðàäèåíò_31" x1="340.81" y1="254.44" x2="340.81" y2="353.39" gradientTransform="translate(0.55 0.21) rotate(0.17)" gradientUnits="userSpaceOnUse"><stop offset="0" stop-color="#ffeea3"/><stop offset="1" stop-color="#eb945b"/></linearGradient><linearGradient id="Áåçûìÿííûé_ãðàäèåíò_22" x1="71.69" y1="285.08" x2="71.69" y2="304.81" gradientTransform="translate(-29.66 48.5)" gradientUnits="userSpaceOnUse"><stop offset="0" stop-color="#544140"/><stop offset="0.53" stop-color="#503d3c"/><stop offset="1" stop-color="#463332"/></linearGradient><linearGradient id="Áåçûìÿííûé_ãðàäèåíò_22-2" x1="51.4" y1="335.03" x2="51.4" y2="354.77" gradientTransform="translate(-9.62 -1.77) rotate(0.17)" xlink:href="#Áåçûìÿííûé_ãðàäèåíò_22"/><linearGradient id="Áåçûìÿííûé_ãðàäèåíò_22-3" x1="71.69" y1="285.08" x2="71.69" y2="304.81" gradientTransform="matrix(0.97, 0.25, -0.25, 0.97, 47.33, 40.01)" xlink:href="#Áåçûìÿííûé_ãðàäèåíò_22"/><linearGradient id="Áåçûìÿííûé_ãðàäèåíò_31-2" x1="68.53" y1="127.33" x2="68.53" y2="346.48" xlink:href="#Áåçûìÿííûé_ãðàäèåíò_31"/><linearGradient id="Áåçûìÿííûé_ãðàäèåíò_22-4" x1="107.33" y1="404.57" x2="107.33" y2="441.2" gradientTransform="translate(-61.57 -29.5) rotate(-15.93)" xlink:href="#Áåçûìÿííûé_ãðàäèåíò_22"/><linearGradient id="Áåçûìÿííûé_ãðàäèåíò_22-5" x1="107.33" y1="414.96" x2="107.33" y2="441.91" gradientTransform="translate(-61.57 -29.5) rotate(-15.93)" xlink:href="#Áåçûìÿííûé_ãðàäèåíò_22"/><linearGradient id="Áåçûìÿííûé_ãðàäèåíò_31-3" x1="128.53" y1="127.33" x2="128.53" y2="346.48" xlink:href="#Áåçûìÿííûé_ãðàäèåíò_31"/><linearGradient id="Áåçûìÿííûé_ãðàäèåíò_22-6" x1="96.98" y1="108.28" x2="96.98" y2="143.72" gradientTransform="translate(0.55 0.21) rotate(0.17)" xlink:href="#Áåçûìÿííûé_ãðàäèåíò_22"/><linearGradient id="Áåçûìÿííûé_ãðàäèåíò_31-4" x1="96.98" y1="127.33" x2="96.98" y2="346.48" gradientTransform="translate(133.1 -24.87) rotate(45.17)" xlink:href="#Áåçûìÿííûé_ãðàäèåíò_31"/><linearGradient id="Áåçûìÿííûé_ãðàäèåíò_22-7" x1="96.98" y1="135.93" x2="96.98" y2="159.68" gradientTransform="translate(133.1 -24.87) rotate(45.17)" xlink:href="#Áåçûìÿííûé_ãðàäèåíò_22"/><linearGradient id="Áåçûìÿííûé_ãðàäèåíò_46-2" x1="146.11" y1="252.28" x2="146.11" y2="351.89" gradientTransform="translate(0.55 0.21) rotate(0.17)" xlink:href="#Áåçûìÿííûé_ãðàäèåíò_46"/><linearGradient id="Áåçûìÿííûé_ãðàäèåíò_46-3" x1="157.37" y1="252.28" x2="157.37" y2="351.9" gradientTransform="translate(0.55 0.21) rotate(0.17)" xlink:href="#Áåçûìÿííûé_ãðàäèåíò_46"/><linearGradient id="Áåçûìÿííûé_ãðàäèåíò_46-4" x1="90.09" y1="252.28" x2="90.09" y2="351.89" gradientTransform="translate(0.55 0.21) rotate(0.17)" xlink:href="#Áåçûìÿííûé_ãðàäèåíò_46"/><linearGradient id="Áåçûìÿííûé_ãðàäèåíò_136" x1="227.31" y1="257.88" x2="227.31" y2="295.18" gradientTransform="translate(0.55 0.21) rotate(0.17)" gradientUnits="userSpaceOnUse"><stop offset="0" stop-color="#80d5c9"/><stop offset="0.77" stop-color="#56adb4"/><stop offset="1" stop-color="#49a0ad"/></linearGradient><linearGradient id="Áåçûìÿííûé_ãðàäèåíò_136-2" x1="278.36" y1="257.88" x2="278.36" y2="295.18" xlink:href="#Áåçûìÿííûé_ãðàäèåíò_136"/><linearGradient id="Áåçûìÿííûé_ãðàäèåíò_198-5" x1="227.31" y1="235.81" x2="227.31" y2="258.68" gradientTransform="translate(0.55 0.21) rotate(0.17)" xlink:href="#Áåçûìÿííûé_ãðàäèåíò_198"/><linearGradient id="Áåçûìÿííûé_ãðàäèåíò_198-6" x1="268.96" y1="235.81" x2="268.96" y2="258.68" gradientTransform="translate(0.55 0.21) rotate(0.17)" xlink:href="#Áåçûìÿííûé_ãðàäèåíò_198"/><linearGradient id="Áåçûìÿííûé_ãðàäèåíò_16" x1="227.31" y1="293.4" x2="227.31" y2="353.3" gradientTransform="translate(0.55 0.21) rotate(0.17)" gradientUnits="userSpaceOnUse"><stop offset="0" stop-color="#eb5d84"/><stop offset="1" stop-color="#bf2f56"/></linearGradient><linearGradient id="Áåçûìÿííûé_ãðàäèåíò_46-5" x1="253.45" y1="141.05" x2="253.45" y2="238.17" gradientTransform="translate(0.55 0.21) rotate(0.17)" xlink:href="#Áåçûìÿííûé_ãðàäèåíò_46"/><linearGradient id="Áåçûìÿííûé_ãðàäèåíò_27" x1="276.28" y1="291.78" x2="276.28" y2="277.66" gradientTransform="translate(0.55 0.21) rotate(0.17)" gradientUnits="userSpaceOnUse"><stop offset="0" stop-color="#ffb182"/><stop offset="1" stop-color="#ec6b47"/></linearGradient><linearGradient id="Áåçûìÿííûé_ãðàäèåíò_22-8" x1="-770.68" y1="294.54" x2="-770.68" y2="301.16" gradientTransform="matrix(1, 0, -0.03, 1, 1061.27, -3.14)" xlink:href="#Áåçûìÿííûé_ãðàäèåíò_22"/><linearGradient id="Áåçûìÿííûé_ãðàäèåíò_22-9" x1="-773.75" y1="294.54" x2="-773.75" y2="301.16" gradientTransform="matrix(1, 0, -0.03, 1, 1061.27, -3.14)" xlink:href="#Áåçûìÿííûé_ãðàäèåíò_22"/><linearGradient id="Áåçûìÿííûé_ãðàäèåíò_22-10" x1="250.63" y1="129.08" x2="250.63" y2="252.52" gradientTransform="translate(0.55 0.21) rotate(0.17)" xlink:href="#Áåçûìÿííûé_ãðàäèåíò_22"/><linearGradient id="Áåçûìÿííûé_ãðàäèåíò_22-11" x1="274.49" y1="138.4" x2="274.49" y2="247.13" gradientTransform="translate(0.55 0.21) rotate(0.17)" xlink:href="#Áåçûìÿííûé_ãðàäèåíò_22"/><linearGradient id="Áåçûìÿííûé_ãðàäèåíò_22-12" x1="231.41" y1="208.31" x2="231.41" y2="309.11" gradientTransform="translate(0.55 0.21) rotate(0.17)" xlink:href="#Áåçûìÿííûé_ãðàäèåíò_22"/><linearGradient id="Áåçûìÿííûé_ãðàäèåíò_27-2" x1="251.37" y1="291.96" x2="251.37" y2="277.84" gradientTransform="matrix(1, 0, -0.1, 1, 27, 0.12)" xlink:href="#Áåçûìÿííûé_ãðàäèåíò_27"/><linearGradient id="Áåçûìÿííûé_ãðàäèåíò_22-13" x1="-794.2" y1="294.7" x2="-794.2" y2="301.33" gradientTransform="matrix(1, 0, -0.13, 1, 1086.95, -3.23)" xlink:href="#Áåçûìÿííûé_ãðàäèåíò_22"/><linearGradient id="Áåçûìÿííûé_ãðàäèåíò_22-14" x1="-797.26" y1="294.7" x2="-797.26" y2="301.33" gradientTransform="matrix(1, 0, -0.13, 1, 1086.95, -3.23)" xlink:href="#Áåçûìÿííûé_ãðàäèåíò_22"/><linearGradient id="Áåçûìÿííûé_ãðàäèåíò_22-15" x1="252.97" y1="208.27" x2="252.97" y2="296.94" gradientTransform="translate(0.55 0.21) rotate(0.17)" xlink:href="#Áåçûìÿííûé_ãðàäèåíò_22"/><linearGradient id="Áåçûìÿííûé_ãðàäèåíò_42" x1="229.22" y1="96.02" x2="229.22" y2="145.48" gradientTransform="translate(0.55 0.21) rotate(0.17)" gradientUnits="userSpaceOnUse"><stop offset="0" stop-color="#9e5141"/><stop offset="0.24" stop-color="#864235"/><stop offset="0.75" stop-color="#5a271f"/><stop offset="1" stop-color="#491d17"/></linearGradient><linearGradient id="Áåçûìÿííûé_ãðàäèåíò_46-6" x1="223.49" y1="141.05" x2="223.49" y2="238.17" gradientTransform="translate(0.55 0.21) rotate(0.17)" xlink:href="#Áåçûìÿííûé_ãðàäèåíò_46"/><linearGradient id="Áåçûìÿííûé_ãðàäèåíò_4" x1="-63.31" y1="113.4" x2="-63.31" y2="88.89" gradientTransform="matrix(-0.98, -0.16, -0.2, 0.98, 189.38, 32.11)" gradientUnits="userSpaceOnUse"><stop offset="0" stop-color="#ffb182"/><stop offset="0.22" stop-color="#feac7e"/><stop offset="0.48" stop-color="#fa9f73"/><stop offset="0.74" stop-color="#f48860"/><stop offset="1" stop-color="#ec6b47"/></linearGradient><linearGradient id="Áåçûìÿííûé_ãðàäèåíò_4-2" x1="-63.66" y1="111.07" x2="-63.66" y2="92.62" xlink:href="#Áåçûìÿííûé_ãðàäèåíò_4"/><linearGradient id="Áåçûìÿííûé_ãðàäèåíò_39" x1="-154.8" y1="-104.63" x2="-154.8" y2="-50.35" gradientTransform="matrix(-0.99, 0.03, 0.05, 1, 75.5, 214.21)" gradientUnits="userSpaceOnUse"><stop offset="0" stop-color="#ffb283"/><stop offset="0.22" stop-color="#fead7f"/><stop offset="0.47" stop-color="#faa074"/><stop offset="0.74" stop-color="#f58961"/><stop offset="1" stop-color="#ed6b47"/></linearGradient><linearGradient id="Áåçûìÿííûé_ãðàäèåíò_138" x1="-922.75" y1="-24.48" x2="-922.75" y2="32.73" gradientTransform="matrix(0.98, 0.2, -0.18, 0.99, 1142.33, 312.78)" gradientUnits="userSpaceOnUse"><stop offset="0" stop-color="#ffb283"/><stop offset="0.21" stop-color="#fead7f"/><stop offset="0.48" stop-color="#fa9e72"/><stop offset="0.77" stop-color="#f4855d"/><stop offset="1" stop-color="#ed6b47"/></linearGradient><linearGradient id="Áåçûìÿííûé_ãðàäèåíò_42-2" x1="-67.23" y1="10.46" x2="-67.23" y2="24.4" gradientTransform="matrix(-0.88, -0.33, -0.36, 0.93, 199.1, 82.51)" xlink:href="#Áåçûìÿííûé_ãðàäèåíò_42"/><linearGradient id="Áåçûìÿííûé_ãðàäèåíò_42-3" x1="475.28" y1="58.71" x2="475.28" y2="72.74" gradientTransform="matrix(1.19, 0.24, -0.22, 0.98, -310.57, -58.74)" xlink:href="#Áåçûìÿííûé_ãðàäèåíò_42"/><linearGradient id="Áåçûìÿííûé_ãðàäèåíò_42-4" x1="233.84" y1="96.02" x2="233.84" y2="145.48" xlink:href="#Áåçûìÿííûé_ãðàäèåíò_42"/><linearGradient id="Áåçûìÿííûé_ãðàäèåíò_42-5" x1="245.3" y1="96.02" x2="245.3" y2="145.48" xlink:href="#Áåçûìÿííûé_ãðàäèåíò_42"/><linearGradient id="Áåçûìÿííûé_ãðàäèåíò_2" x1="218.42" y1="213.33" x2="265.08" y2="-51.97" gradientTransform="translate(18.32 10.21) rotate(4.9)" gradientUnits="userSpaceOnUse"><stop offset="0" stop-color="#ffb182"/><stop offset="0.22" stop-color="#feac7e"/><stop offset="0.48" stop-color="#fa9e72"/><stop offset="0.75" stop-color="#f4885f"/><stop offset="1" stop-color="#ec6b47"/></linearGradient><linearGradient id="Áåçûìÿííûé_ãðàäèåíò_2-2" x1="206.82" y1="311.82" x2="206.82" y2="36.53" gradientTransform="matrix(1, 0.11, -0.26, 0.97, 103.91, -81)" xlink:href="#Áåçûìÿííûé_ãðàäèåíò_2"/><linearGradient id="Áåçûìÿííûé_ãðàäèåíò_22-16" x1="-480.72" y1="211.52" x2="-430.98" y2="211.52" gradientTransform="matrix(-1, 0, 0, 1, -185.38, -0.46)" xlink:href="#Áåçûìÿííûé_ãðàäèåíò_22"/><linearGradient id="Áåçûìÿííûé_ãðàäèåíò_22-17" x1="672.55" y1="132.47" x2="672.55" y2="177.32" gradientTransform="matrix(1, 0, 0.29, 0.88, -445.09, 51.45)" xlink:href="#Áåçûìÿííûé_ãðàäèåíò_22"/><linearGradient id="Áåçûìÿííûé_ãðàäèåíò_222" x1="274.11" y1="170.52" x2="274.11" y2="209.68" gradientTransform="translate(0.55 0.21) rotate(0.17)" gradientUnits="userSpaceOnUse"><stop offset="0" stop-color="#d9cbcb"/><stop offset="0.38" stop-color="#d5c7c7"/><stop offset="0.75" stop-color="#c9bcbc"/><stop offset="1" stop-color="#bdb0b0"/></linearGradient><linearGradient id="Áåçûìÿííûé_ãðàäèåíò_222-2" x1="217.17" y1="211.38" x2="246.5" y2="211.38" xlink:href="#Áåçûìÿííûé_ãðàäèåíò_222"/><linearGradient id="Áåçûìÿííûé_ãðàäèåíò_46-7" x1="208.29" y1="141" x2="208.29" y2="239.54" gradientTransform="translate(0.55 0.21) rotate(0.17)" xlink:href="#Áåçûìÿííûé_ãðàäèåíò_46"/><linearGradient id="Áåçûìÿííûé_ãðàäèåíò_136-3" x1="129.42" y1="230.53" x2="129.42" y2="355.76" gradientTransform="matrix(1, 0, 0, 1, 0, 0)" xlink:href="#Áåçûìÿííûé_ãðàäèåíò_136"/><linearGradient id="Áåçûìÿííûé_ãðàäèåíò_136-4" x1="129.42" y1="233.87" x2="129.42" y2="352.44" gradientTransform="matrix(1, 0, 0, 1, 0, 0)" xlink:href="#Áåçûìÿííûé_ãðàäèåíò_136"/><linearGradient id="Áåçûìÿííûé_ãðàäèåíò_268" x1="129.42" y1="230.53" x2="129.42" y2="355.76" gradientUnits="userSpaceOnUse"><stop offset="0" stop-color="#544140"/><stop offset="0.8" stop-color="#4a3736"/><stop offset="1" stop-color="#463332"/></linearGradient><linearGradient id="Áåçûìÿííûé_ãðàäèåíò_268-2" x1="129.42" y1="230.53" x2="129.42" y2="355.76" xlink:href="#Áåçûìÿííûé_ãðàäèåíò_268"/><linearGradient id="Áåçûìÿííûé_ãðàäèåíò_268-3" x1="129.42" y1="230.53" x2="129.42" y2="355.76" xlink:href="#Áåçûìÿííûé_ãðàäèåíò_268"/><linearGradient id="Áåçûìÿííûé_ãðàäèåíò_268-4" x1="129.42" y1="230.53" x2="129.42" y2="355.76" xlink:href="#Áåçûìÿííûé_ãðàäèåíò_268"/><linearGradient id="Áåçûìÿííûé_ãðàäèåíò_198-7" x1="129.55" y1="258.95" x2="129.55" y2="294.24" gradientTransform="matrix(1, 0, 0, 1, 0, 0)" xlink:href="#Áåçûìÿííûé_ãðàäèåíò_198"/><linearGradient id="Áåçûìÿííûé_ãðàäèåíò_198-8" x1="129.4" y1="321.41" x2="129.4" y2="344.64" gradientTransform="matrix(1, 0, 0, 1, 0, 0)" xlink:href="#Áåçûìÿííûé_ãðàäèåíò_198"/></defs><g class="cls-1"><g id="Layer_2" data-name="Layer 2"><g id="_1" data-name="1"><path class="cls-2" d="M301.68,60.51h-6.22a2.91,2.91,0,0,1-2.9-2.91V50.17a15.49,15.49,0,0,1-9.33-14.76c0-9.63,7.72-14.67,15.34-14.68h0a16.31,16.31,0,0,1,10.52,3.75,13.92,13.92,0,0,1,4.81,10.93,15.49,15.49,0,0,1-9.33,14.76V57.6A2.91,2.91,0,0,1,301.68,60.51Zm-3.1-38.78h0c-7.13,0-14.34,4.71-14.34,13.68,0,10.82,8.89,13.91,9,13.94a.5.5,0,0,1,.35.48V57.6a1.91,1.91,0,0,0,1.9,1.91h6.22a1.91,1.91,0,0,0,1.9-1.91V49.83a.51.51,0,0,1,.34-.48c.37-.12,9-3.14,9-13.94a13,13,0,0,0-4.46-10.17A15.29,15.29,0,0,0,298.58,21.73Z"/><path class="cls-2" d="M300.86,64.47h-4.57a2.41,2.41,0,0,1-2.41-2.4V59.84a.5.5,0,0,1,.5-.5h8.38a.5.5,0,0,1,.5.5v2.23A2.41,2.41,0,0,1,300.86,64.47Zm-6-4.13v1.73a1.41,1.41,0,0,0,1.41,1.4h4.57a1.4,1.4,0,0,0,1.4-1.4V60.34Z"/><path class="cls-2" d="M298.64,67.36A3.36,3.36,0,0,1,295.35,64a.49.49,0,0,1,.14-.38.48.48,0,0,1,.36-.15h5.41a.51.51,0,0,1,.5.49,4,4,0,0,1-1,2.6A2.84,2.84,0,0,1,298.64,67.36Zm-2.21-2.91a2.25,2.25,0,0,0,2.21,1.91,2,2,0,0,0,2.07-1.91Z"/><path class="cls-2" d="M300.93,60.22a.5.5,0,0,1-.5-.5V45.33a21,21,0,0,1-3.72,0V59.72a.5.5,0,0,1-.5.5.5.5,0,0,1-.5-.5V45.21a7.83,7.83,0,0,1-2.23-.69,2.53,2.53,0,0,1-1.58-2.25,2.89,2.89,0,0,1,2.69-2.73,1.85,1.85,0,0,1,1.54.83,4.22,4.22,0,0,1,.58,2.39v1.57a21,21,0,0,0,3.72,0V42.76a4.22,4.22,0,0,1,.58-2.39,1.85,1.85,0,0,1,1.54-.83,2.89,2.89,0,0,1,2.69,2.73,2.53,2.53,0,0,1-1.58,2.25,7.73,7.73,0,0,1-2.23.69V59.72A.5.5,0,0,1,300.93,60.22Zm1.62-19.68a.81.81,0,0,0-.71.4,3.08,3.08,0,0,0-.41,1.82v1.43a6.18,6.18,0,0,0,1.76-.56,1.66,1.66,0,0,0,1.05-1.36A1.91,1.91,0,0,0,302.55,40.54Zm-8,0a1.91,1.91,0,0,0-1.69,1.73A1.66,1.66,0,0,0,294,43.63a6.29,6.29,0,0,0,1.76.56V42.76a3.19,3.19,0,0,0-.4-1.82A.83.83,0,0,0,294.59,40.54Z"/><path class="cls-2" d="M276.8,54.23a.52.52,0,0,1-.42-.22.51.51,0,0,1,.14-.7l6.08-4.1a.5.5,0,0,1,.69.14.49.49,0,0,1-.13.69l-6.08,4.1A.49.49,0,0,1,276.8,54.23Z"/><path class="cls-2" d="M282.88,20.58a.47.47,0,0,1-.28-.09l-6.08-4.1a.5.5,0,0,1-.14-.69.51.51,0,0,1,.7-.14l6.08,4.1a.5.5,0,0,1,.13.7A.49.49,0,0,1,282.88,20.58Z"/><path class="cls-2" d="M278.5,35.35h-8.77a.5.5,0,0,1-.5-.5.5.5,0,0,1,.5-.5h8.77a.51.51,0,0,1,.5.5A.5.5,0,0,1,278.5,35.35Z"/><path class="cls-2" d="M320.53,54.23a.49.49,0,0,1-.28-.09L314.17,50a.49.49,0,0,1-.13-.69.5.5,0,0,1,.69-.14l6.08,4.1a.5.5,0,0,1,.13.7A.49.49,0,0,1,320.53,54.23Z"/><path class="cls-2" d="M314.45,20.58a.49.49,0,0,1-.41-.22.5.5,0,0,1,.13-.7l6.08-4.1a.5.5,0,0,1,.69.14.49.49,0,0,1-.13.69l-6.08,4.1A.49.49,0,0,1,314.45,20.58Z"/><path class="cls-2" d="M327.6,35.35h-8.77a.5.5,0,0,1-.5-.5.51.51,0,0,1,.5-.5h8.77a.5.5,0,0,1,.5.5A.5.5,0,0,1,327.6,35.35Z"/><path class="cls-2" d="M298.57,14.52a.5.5,0,0,1-.5-.5V5.26a.5.5,0,1,1,1,0V14A.5.5,0,0,1,298.57,14.52Z"/><path class="cls-2" d="M109.17,36a11.74,11.74,0,1,1,11.74-11.73A11.74,11.74,0,0,1,109.17,36Zm0-22.47a10.74,10.74,0,1,0,10.74,10.74A10.75,10.75,0,0,0,109.17,13.52Z"/><path class="cls-2" d="M109.17,32.35a8.1,8.1,0,1,1,8.1-8.09A8.1,8.1,0,0,1,109.17,32.35Zm0-15.19a7.1,7.1,0,1,0,7.1,7.1A7.11,7.11,0,0,0,109.17,17.16Z"/><path class="cls-2" d="M131,49.16a3,3,0,0,1-2.14-.88L116.13,35.54a.53.53,0,0,1-.15-.36.51.51,0,0,1,.15-.35l3.56-3.56a.51.51,0,0,1,.71,0L133.14,44A3,3,0,0,1,131,49.16Zm-13.82-14,12.39,12.39a2,2,0,0,0,2.85-2.86L120.05,32.33Z"/><path class="cls-2" d="M116.85,35.21a.54.54,0,0,1-.35-.14l-1.13-1.13a.5.5,0,0,1,0-.71l2.72-2.72a.5.5,0,0,1,.71,0l1.13,1.13a.5.5,0,0,1,0,.7l-2.72,2.73A.54.54,0,0,1,116.85,35.21Zm-.42-1.63.42.42,2-2-.42-.42Z"/><path class="cls-2" d="M409.32,137.39h-52.2A2.42,2.42,0,0,1,354.7,135V96.69a2.42,2.42,0,0,1,2.42-2.43h52.2a2.42,2.42,0,0,1,2.42,2.43V135A2.42,2.42,0,0,1,409.32,137.39Zm-52.2-42.13a1.42,1.42,0,0,0-1.42,1.43V135a1.42,1.42,0,0,0,1.42,1.42h52.2a1.43,1.43,0,0,0,1.42-1.42V96.69a1.43,1.43,0,0,0-1.42-1.43Z"/><path class="cls-2" d="M408.54,134.5H357.9a.5.5,0,0,1-.5-.5V97.66a.5.5,0,0,1,.5-.5h50.64a.5.5,0,0,1,.5.5V134A.5.5,0,0,1,408.54,134.5Zm-50.14-1H408V98.16H358.4Z"/><path class="cls-2" d="M383.22,134.51a.5.5,0,0,1-.5-.5V97.74a.5.5,0,0,1,1,0V134A.5.5,0,0,1,383.22,134.51Z"/><path class="cls-2" d="M375.27,102.64h-14.6a.5.5,0,0,1-.5-.5.5.5,0,0,1,.5-.5h14.6a.5.5,0,0,1,.5.5A.5.5,0,0,1,375.27,102.64Z"/><path class="cls-2" d="M375.27,106.5h-14.6a.5.5,0,0,1-.5-.5.5.5,0,0,1,.5-.5h14.6a.5.5,0,0,1,.5.5A.5.5,0,0,1,375.27,106.5Z"/><path class="cls-2" d="M375.27,110.37h-14.6a.5.5,0,0,1-.5-.5.5.5,0,0,1,.5-.5h14.6a.5.5,0,0,1,.5.5A.5.5,0,0,1,375.27,110.37Z"/><path class="cls-2" d="M375.27,114.23h-14.6a.5.5,0,0,1-.5-.5.5.5,0,0,1,.5-.5h14.6a.5.5,0,0,1,.5.5A.5.5,0,0,1,375.27,114.23Z"/><path class="cls-2" d="M380.63,118.1h-20a.5.5,0,0,1,0-1h20a.5.5,0,0,1,0,1Z"/><path class="cls-2" d="M380.63,122h-20a.5.5,0,0,1-.5-.5.5.5,0,0,1,.5-.5h20a.5.5,0,0,1,.5.5A.5.5,0,0,1,380.63,122Z"/><path class="cls-2" d="M380.63,125.83h-20a.5.5,0,0,1-.5-.5.5.5,0,0,1,.5-.5h20a.5.5,0,0,1,.5.5A.5.5,0,0,1,380.63,125.83Z"/><path class="cls-2" d="M380.63,129.7h-20a.5.5,0,0,1-.5-.5.5.5,0,0,1,.5-.5h20a.5.5,0,0,1,.5.5A.5.5,0,0,1,380.63,129.7Z"/><path class="cls-2" d="M406,102.64h-20a.5.5,0,0,1-.5-.5.5.5,0,0,1,.5-.5h20a.5.5,0,0,1,.5.5A.5.5,0,0,1,406,102.64Z"/><path class="cls-2" d="M406,106.5h-20a.5.5,0,0,1-.5-.5.5.5,0,0,1,.5-.5h20a.5.5,0,0,1,.5.5A.5.5,0,0,1,406,106.5Z"/><path class="cls-2" d="M406,110.37h-20a.5.5,0,0,1-.5-.5.5.5,0,0,1,.5-.5h20a.5.5,0,0,1,.5.5A.5.5,0,0,1,406,110.37Z"/><path class="cls-2" d="M406,114.23h-20a.5.5,0,0,1-.5-.5.5.5,0,0,1,.5-.5h20a.5.5,0,0,1,.5.5A.5.5,0,0,1,406,114.23Z"/><path class="cls-2" d="M406,118.1h-20a.5.5,0,0,1,0-1h20a.5.5,0,0,1,0,1Z"/><path class="cls-2" d="M406,122h-20a.5.5,0,0,1-.5-.5.5.5,0,0,1,.5-.5h20a.5.5,0,0,1,.5.5A.5.5,0,0,1,406,122Z"/><path class="cls-2" d="M406,125.83h-20a.5.5,0,0,1-.5-.5.5.5,0,0,1,.5-.5h20a.5.5,0,0,1,.5.5A.5.5,0,0,1,406,125.83Z"/><path class="cls-2" d="M406,129.7h-20a.5.5,0,0,1-.5-.5.5.5,0,0,1,.5-.5h20a.5.5,0,0,1,.5.5A.5.5,0,0,1,406,129.7Z"/><path class="cls-2" d="M381.07,116.17a.54.54,0,0,1-.22,0l-2.67-1.27-2.67,1.27a.51.51,0,0,1-.48,0,.48.48,0,0,1-.23-.42V97.6a.5.5,0,0,1,.5-.5h5.77a.51.51,0,0,1,.5.5v18.07a.52.52,0,0,1-.5.5Zm-2.89-2.38a.59.59,0,0,1,.22,0l2.17,1V98.1H375.8v16.78l2.17-1A.54.54,0,0,1,378.18,113.79Z"/><path class="cls-2" d="M186.33,99.41a63.13,63.13,0,0,1-15.87-1.81.5.5,0,0,1-.36-.48V82.7a.49.49,0,0,1,.37-.48,68.9,68.9,0,0,1,15.86-1.81,68,68,0,0,1,15.8,1.81.5.5,0,0,1,.37.48V97.12a.5.5,0,0,1-.36.48A62.23,62.23,0,0,1,186.33,99.41ZM171.1,96.74a64.63,64.63,0,0,0,15.23,1.67,63.83,63.83,0,0,0,15.17-1.67V83.09a69.06,69.06,0,0,0-15.17-1.68,69.83,69.83,0,0,0-15.23,1.68Zm30.9.38h0Z"/><path class="cls-2" d="M170.6,86.64a.65.65,0,0,1-.19,0L158,81.54a.5.5,0,0,1-.32-.46.49.49,0,0,1,.32-.46L186.5,69.34a.48.48,0,0,1,.37,0l27.77,11.28a.49.49,0,0,1,0,.92l-12.45,4.92a.47.47,0,0,1-.46,0,.48.48,0,0,1-.22-.41V83.09a69.06,69.06,0,0,0-15.17-1.68,69.83,69.83,0,0,0-15.23,1.68v3a.49.49,0,0,1-.22.41A.47.47,0,0,1,170.6,86.64Zm-11.1-5.55,10.6,4.3V82.7a.49.49,0,0,1,.37-.48,68.9,68.9,0,0,1,15.86-1.81,68,68,0,0,1,15.8,1.81.5.5,0,0,1,.37.48v2.56l10.6-4.19L186.68,70.34Z"/><path class="cls-2" d="M208.61,102.87a.5.5,0,0,1-.5-.5V77.65a.5.5,0,0,1,.5-.5.5.5,0,0,1,.5.5v24.72A.5.5,0,0,1,208.61,102.87Z"/><path class="cls-2" d="M208.54,113.15a4.87,4.87,0,0,1-2.92-1,.49.49,0,0,1-.2-.39c0-2.45.9-5.49,2-6.64a1.46,1.46,0,0,1,2.29,0c1.14,1.15,2.07,4.19,2,6.64a.49.49,0,0,1-.22.41A5.48,5.48,0,0,1,208.54,113.15Zm-2.12-1.62a4.14,4.14,0,0,0,4.37,0c0-2.11-.85-4.74-1.75-5.66-.33-.33-.54-.33-.86,0C207.27,106.78,206.46,109.42,206.42,111.53Zm4.87.26h0Z"/><path class="cls-2" d="M208.61,105.39a1.76,1.76,0,1,1,1.75-1.76A1.76,1.76,0,0,1,208.61,105.39Zm0-2.52a.76.76,0,1,0,.75.76A.76.76,0,0,0,208.61,102.87Z"/><path class="cls-2" d="M67.8,87.38a.47.47,0,0,1-.34-.13l-8-7.3H40.27a7.13,7.13,0,0,1-7.13-7.13v-11a7.14,7.14,0,0,1,7.13-7.14H68.4a7.14,7.14,0,0,1,7.13,7.14v11A7.14,7.14,0,0,1,68.4,80h-.1v6.93a.5.5,0,0,1-.5.5ZM40.27,55.63a6.14,6.14,0,0,0-6.13,6.14v11A6.14,6.14,0,0,0,40.27,79H59.62a.47.47,0,0,1,.34.13l7.34,6.67v-6.3a.5.5,0,0,1,.5-.5h.6a6.14,6.14,0,0,0,6.13-6.13v-11a6.14,6.14,0,0,0-6.13-6.14Z"/><path class="cls-2" d="M43.88,70.74A3.11,3.11,0,1,1,47,67.63,3.11,3.11,0,0,1,43.88,70.74Zm0-5.22A2.11,2.11,0,1,0,46,67.63,2.11,2.11,0,0,0,43.88,65.52Z"/><path class="cls-2" d="M54.33,70.74a3.11,3.11,0,1,1,3.12-3.11A3.11,3.11,0,0,1,54.33,70.74Zm0-5.22a2.11,2.11,0,1,0,2.12,2.11A2.11,2.11,0,0,0,54.33,65.52Z"/><path class="cls-2" d="M64.78,70.74a3.11,3.11,0,1,1,3.11-3.11A3.11,3.11,0,0,1,64.78,70.74Zm0-5.22a2.11,2.11,0,1,0,2.11,2.11A2.11,2.11,0,0,0,64.78,65.52Z"/><path class="cls-2" d="M289.3,145.41a3.1,3.1,0,0,1-2.19-5.3,3.1,3.1,0,0,1,4.39,4.39h0A3.09,3.09,0,0,1,289.3,145.41Zm0-5.2a2.07,2.07,0,0,0-1.48.61,2.1,2.1,0,0,0-.62,1.49,2.06,2.06,0,0,0,.62,1.48,2.14,2.14,0,0,0,3,0h0a2,2,0,0,0,.61-1.48,2.08,2.08,0,0,0-2.1-2.1Z"/><path class="cls-2" d="M295.6,143.2h0a.5.5,0,0,1-.47-.53,5.75,5.75,0,0,0-6.16-6.16.49.49,0,0,1-.53-.47.5.5,0,0,1,.47-.53,6.77,6.77,0,0,1,7.22,7.22A.5.5,0,0,1,295.6,143.2Z"/><path class="cls-2" d="M299.52,143.2h0a.5.5,0,0,1-.48-.52,9.69,9.69,0,0,0-10.09-10.09.46.46,0,0,1-.52-.48.5.5,0,0,1,.48-.52A10.7,10.7,0,0,1,300,142.72.5.5,0,0,1,299.52,143.2Z"/><path class="cls-2" d="M304.1,143.2h0a.5.5,0,0,1-.49-.51A14.26,14.26,0,0,0,288.92,128h0a.51.51,0,0,1-.5-.49.5.5,0,0,1,.48-.51,15.28,15.28,0,0,1,15.71,15.7A.5.5,0,0,1,304.1,143.2Z"/><path class="cls-2" d="M421.86,190.87a8.9,8.9,0,1,1,8.9-8.89A8.9,8.9,0,0,1,421.86,190.87Zm0-16.79a7.9,7.9,0,1,0,7.9,7.9A7.9,7.9,0,0,0,421.86,174.08Z"/><path class="cls-2" d="M419.78,197.29h-.06a15.47,15.47,0,0,1-7.17-3,.53.53,0,0,1-.19-.33.49.49,0,0,1,.1-.37l1.32-1.69-1.86-1.87-1.69,1.32a.45.45,0,0,1-.37.1.46.46,0,0,1-.34-.19,15.42,15.42,0,0,1-3-7.16.49.49,0,0,1,.1-.37.45.45,0,0,1,.33-.19l2.13-.27v-2.63L407,180.4a.53.53,0,0,1-.33-.19.52.52,0,0,1-.1-.38,15.42,15.42,0,0,1,3-7.16.53.53,0,0,1,.34-.19.5.5,0,0,1,.37.1l1.69,1.32,1.86-1.87-1.32-1.69a.48.48,0,0,1-.1-.37.53.53,0,0,1,.19-.33,15.47,15.47,0,0,1,7.17-3,.5.5,0,0,1,.37.1.49.49,0,0,1,.19.34l.26,2.12h2.64l.26-2.12a.53.53,0,0,1,.19-.34.5.5,0,0,1,.37-.1,15.47,15.47,0,0,1,7.17,3,.53.53,0,0,1,.19.33.48.48,0,0,1-.1.37L429.94,172l1.86,1.87,1.69-1.32a.49.49,0,0,1,.37-.1.53.53,0,0,1,.34.19,15.42,15.42,0,0,1,3,7.16.48.48,0,0,1-.1.38.53.53,0,0,1-.33.19l-2.13.26v2.63l2.13.27a.5.5,0,0,1,.43.56,15.42,15.42,0,0,1-3,7.16.46.46,0,0,1-.34.19.45.45,0,0,1-.37-.1l-1.69-1.32-1.86,1.87,1.32,1.69a.49.49,0,0,1,.1.37.53.53,0,0,1-.19.33,15.47,15.47,0,0,1-7.17,3,.5.5,0,0,1-.37-.1.53.53,0,0,1-.19-.33l-.26-2.13h-2.64l-.26,2.13a.49.49,0,0,1-.19.33A.51.51,0,0,1,419.78,197.29Zm.32-3.57h3.52a.51.51,0,0,1,.5.44l.25,2.05a14.42,14.42,0,0,0,5.78-2.39l-1.27-1.63a.5.5,0,0,1,0-.67l2.49-2.49a.51.51,0,0,1,.66,0l1.63,1.28a14.42,14.42,0,0,0,2.39-5.78l-2-.26a.5.5,0,0,1-.44-.49v-3.53a.5.5,0,0,1,.44-.49l2-.25a14.3,14.3,0,0,0-2.39-5.78L432.07,175a.49.49,0,0,1-.66,0l-2.49-2.49a.49.49,0,0,1,0-.66l1.27-1.63a14.29,14.29,0,0,0-5.78-2.4l-.25,2a.5.5,0,0,1-.5.44H420.1a.5.5,0,0,1-.5-.44l-.25-2a14.29,14.29,0,0,0-5.78,2.4l1.27,1.63a.49.49,0,0,1,0,.66l-2.49,2.49a.49.49,0,0,1-.66,0L410,173.69a14.3,14.3,0,0,0-2.39,5.78l2.05.25a.5.5,0,0,1,.44.49v3.53a.5.5,0,0,1-.44.49l-2.05.26a14.42,14.42,0,0,0,2.39,5.78l1.63-1.28a.51.51,0,0,1,.66,0l2.49,2.49a.5.5,0,0,1,0,.67l-1.27,1.63a14.42,14.42,0,0,0,5.78,2.39l.25-2.05A.51.51,0,0,1,420.1,193.72Z"/><path class="cls-2" d="M203.2,49a8.9,8.9,0,1,1,8.9-8.89A8.9,8.9,0,0,1,203.2,49Zm0-16.79a7.9,7.9,0,1,0,7.9,7.9A7.9,7.9,0,0,0,203.2,32.18Z"/><path class="cls-2" d="M205.27,55.39a.51.51,0,0,1-.31-.11.53.53,0,0,1-.19-.33l-.26-2.13h-2.64L201.61,55a.45.45,0,0,1-.19.33.49.49,0,0,1-.37.1,15.44,15.44,0,0,1-7.16-3,.5.5,0,0,1-.2-.33.5.5,0,0,1,.11-.37L195.12,50l-1.87-1.87-1.69,1.32a.49.49,0,0,1-.37.1.45.45,0,0,1-.33-.19,15.44,15.44,0,0,1-3-7.16.49.49,0,0,1,.1-.37.46.46,0,0,1,.34-.19l2.12-.27V38.76l-2.12-.26a.5.5,0,0,1-.34-.2.49.49,0,0,1-.1-.37,15.44,15.44,0,0,1,3-7.16.45.45,0,0,1,.33-.19.49.49,0,0,1,.37.1L193.25,32l1.87-1.87-1.32-1.69a.5.5,0,0,1-.11-.37.5.5,0,0,1,.2-.33,15.44,15.44,0,0,1,7.16-3,.49.49,0,0,1,.37.1.45.45,0,0,1,.19.33l.26,2.13h2.64l.26-2.13a.53.53,0,0,1,.19-.33.52.52,0,0,1,.38-.1,15.44,15.44,0,0,1,7.16,3,.53.53,0,0,1,.19.33.49.49,0,0,1-.1.37l-1.32,1.69L213.14,32l1.68-1.32a.51.51,0,0,1,.38-.1.45.45,0,0,1,.33.19,15.54,15.54,0,0,1,3,7.16.53.53,0,0,1-.1.37.55.55,0,0,1-.34.2l-2.13.26v2.63l2.13.27a.49.49,0,0,1,.34.19.53.53,0,0,1,.1.37,15.54,15.54,0,0,1-3,7.16.45.45,0,0,1-.33.19.51.51,0,0,1-.38-.1l-1.68-1.32L211.27,50l1.32,1.69a.49.49,0,0,1,.1.37.53.53,0,0,1-.19.33,15.44,15.44,0,0,1-7.16,3Zm-3.84-3.57H205a.5.5,0,0,1,.5.44l.25,2.05a14.18,14.18,0,0,0,5.78-2.4l-1.27-1.62a.5.5,0,0,1,0-.67l2.49-2.49a.51.51,0,0,1,.66,0L215,48.37a14.58,14.58,0,0,0,2.4-5.78l-2.06-.26a.5.5,0,0,1-.44-.49V38.31a.5.5,0,0,1,.44-.49l2.06-.25a14.46,14.46,0,0,0-2.4-5.78l-1.63,1.27a.5.5,0,0,1-.66,0l-2.49-2.49a.49.49,0,0,1,0-.66l1.27-1.63a14.32,14.32,0,0,0-5.78-2.4l-.25,2.06a.49.49,0,0,1-.5.43h-3.52a.49.49,0,0,1-.49-.43l-.26-2.06a14.43,14.43,0,0,0-5.78,2.4l1.28,1.63a.51.51,0,0,1,0,.66L193.65,33a.52.52,0,0,1-.67,0l-1.63-1.27A14.59,14.59,0,0,0,189,37.57l2,.25a.5.5,0,0,1,.44.49v3.53a.5.5,0,0,1-.44.49l-2,.26a14.71,14.71,0,0,0,2.39,5.78L193,47.09a.52.52,0,0,1,.67,0l2.49,2.49a.53.53,0,0,1,0,.67l-1.28,1.62a14.29,14.29,0,0,0,5.78,2.4l.26-2.05A.5.5,0,0,1,201.43,51.82Z"/><path class="cls-2" d="M314.72,102.73a4,4,0,1,1,2.83-1.17A4,4,0,0,1,314.72,102.73Zm0-7a3,3,0,0,0-3,3,2.93,2.93,0,0,0,.88,2.11,3,3,0,1,0,2.11-5.1Z"/><path class="cls-2" d="M313.59,107.34h-.07a8.64,8.64,0,0,1-4-1.66.53.53,0,0,1-.19-.33.51.51,0,0,1,.1-.38l.6-.77-.74-.73-.76.6a.51.51,0,0,1-.38.1.5.5,0,0,1-.33-.2,8.68,8.68,0,0,1-1.67-4,.49.49,0,0,1,.1-.37.5.5,0,0,1,.34-.2l1-.11V98.21l-1-.12a.46.46,0,0,1-.34-.19.49.49,0,0,1-.1-.37,8.68,8.68,0,0,1,1.67-4,.5.5,0,0,1,.33-.2.51.51,0,0,1,.38.1l.76.6.74-.74-.6-.76a.5.5,0,0,1-.1-.37.53.53,0,0,1,.19-.34,8.75,8.75,0,0,1,4-1.66.48.48,0,0,1,.37.09.49.49,0,0,1,.19.34l.12,1h1l.12-1a.58.58,0,0,1,.19-.34.56.56,0,0,1,.38-.1,8.68,8.68,0,0,1,4,1.67.5.5,0,0,1,.2.33.52.52,0,0,1-.11.38l-.6.76.74.74.77-.6a.5.5,0,0,1,.71.1,8.67,8.67,0,0,1,1.66,4,.5.5,0,0,1-.43.56l-1,.12v1.05l1,.11a.5.5,0,0,1,.33.2.45.45,0,0,1,.1.37,8.58,8.58,0,0,1-1.67,4,.5.5,0,0,1-.33.2.53.53,0,0,1-.37-.1l-.77-.6-.74.73.6.77a.51.51,0,0,1,.11.37.5.5,0,0,1-.2.34,8.67,8.67,0,0,1-4,1.66.51.51,0,0,1-.38-.09.58.58,0,0,1-.19-.34l-.12-1h-1l-.12,1a.49.49,0,0,1-.19.34A.54.54,0,0,1,313.59,107.34Zm-3.08-2.18a7.67,7.67,0,0,0,2.64,1.1l.11-.89a.51.51,0,0,1,.5-.44h1.93a.5.5,0,0,1,.49.44l.11.89a7.67,7.67,0,0,0,2.64-1.1l-.55-.7a.51.51,0,0,1,0-.66l1.37-1.36a.49.49,0,0,1,.66,0l.7.54a7.46,7.46,0,0,0,1.09-2.64l-.88-.11a.5.5,0,0,1-.44-.49V97.77a.51.51,0,0,1,.44-.5l.89-.1a7.8,7.8,0,0,0-1.1-2.65l-.7.55a.49.49,0,0,1-.66,0l-1.37-1.36a.51.51,0,0,1,0-.66l.55-.7a7.67,7.67,0,0,0-2.64-1.1l-.11.89a.49.49,0,0,1-.49.43h-1.93a.5.5,0,0,1-.5-.43l-.11-.89a7.76,7.76,0,0,0-2.64,1.1l.55.7a.49.49,0,0,1,0,.66L309.66,95a.49.49,0,0,1-.66,0l-.71-.55a8,8,0,0,0-1.09,2.65l.88.1a.51.51,0,0,1,.44.5V99.7a.5.5,0,0,1-.44.49l-.88.11a8,8,0,0,0,1.09,2.65l.71-.55a.49.49,0,0,1,.66,0L311,103.8a.49.49,0,0,1,0,.66Z"/><path class="cls-2" d="M34,115.59a4,4,0,1,1,2.82-1.16A4,4,0,0,1,34,115.59Zm0-7a3,3,0,1,0,2.11.87A3,3,0,0,0,34,108.62Z"/><path class="cls-2" d="M32.83,120.21h-.07a8.67,8.67,0,0,1-4-1.66.5.5,0,0,1-.2-.34.55.55,0,0,1,.1-.37l.6-.77-.73-.73-.77.6a.5.5,0,0,1-.71-.1,8.67,8.67,0,0,1-1.66-4,.48.48,0,0,1,.1-.38.53.53,0,0,1,.33-.19l1-.12v-1l-1-.12a.5.5,0,0,1-.43-.56,8.67,8.67,0,0,1,1.66-4,.55.55,0,0,1,.34-.2.49.49,0,0,1,.37.1l.77.6.73-.74-.59-.76a.52.52,0,0,1-.11-.38.5.5,0,0,1,.2-.33,8.68,8.68,0,0,1,4-1.67.52.52,0,0,1,.38.1.55.55,0,0,1,.19.34l.12,1h1l.12-1a.46.46,0,0,1,.19-.34.49.49,0,0,1,.37-.1,8.76,8.76,0,0,1,4,1.67.53.53,0,0,1,.19.33.51.51,0,0,1-.1.38l-.6.76.74.74.76-.6a.51.51,0,0,1,.38-.1.53.53,0,0,1,.33.19,8.76,8.76,0,0,1,1.67,4,.49.49,0,0,1-.1.37.46.46,0,0,1-.34.19l-1,.12v1l1,.12a.5.5,0,0,1,.44.57,8.68,8.68,0,0,1-1.67,4,.5.5,0,0,1-.33.2.52.52,0,0,1-.38-.11l-.76-.59-.74.73.6.77a.49.49,0,0,1,.1.37.58.58,0,0,1-.19.34,8.75,8.75,0,0,1-4,1.66.5.5,0,0,1-.56-.43l-.12-1h-1l-.12,1a.53.53,0,0,1-.19.33A.51.51,0,0,1,32.83,120.21ZM29.76,118a7.67,7.67,0,0,0,2.64,1.1l.11-.89a.5.5,0,0,1,.49-.44h1.93a.51.51,0,0,1,.5.44l.11.88A7.54,7.54,0,0,0,38.18,118l-.55-.7a.49.49,0,0,1,0-.66L39,115.31a.49.49,0,0,1,.66,0l.7.54a7.67,7.67,0,0,0,1.1-2.64l-.88-.11a.5.5,0,0,1-.44-.49v-1.93a.51.51,0,0,1,.44-.5l.88-.11a7.94,7.94,0,0,0-1.09-2.64l-.71.55a.49.49,0,0,1-.66,0l-1.36-1.36a.49.49,0,0,1,0-.66l.55-.71a7.94,7.94,0,0,0-2.64-1.09l-.11.88a.51.51,0,0,1-.5.44H33a.5.5,0,0,1-.49-.44l-.11-.88a7.67,7.67,0,0,0-2.64,1.1l.55.7a.5.5,0,0,1,0,.66L28.9,107.9a.49.49,0,0,1-.66,0l-.7-.55A7.54,7.54,0,0,0,26.45,110l.88.11a.51.51,0,0,1,.44.5v1.93a.5.5,0,0,1-.44.49l-.89.11a7.67,7.67,0,0,0,1.1,2.64l.7-.54a.49.49,0,0,1,.66,0l1.36,1.36a.5.5,0,0,1,0,.66Z"/><path class="cls-2" d="M237.15,66.68a.5.5,0,0,1-.5-.5V55.52a.5.5,0,0,1,.5-.5.5.5,0,0,1,.5.5V66.18A.5.5,0,0,1,237.15,66.68Z"/><path class="cls-2" d="M242.48,61.35H231.81a.5.5,0,0,1,0-1h10.67a.5.5,0,0,1,0,1Z"/><path class="cls-2" d="M400.29,239.63a.5.5,0,0,1-.5-.5V228.46a.51.51,0,0,1,.5-.5.5.5,0,0,1,.5.5v10.67A.5.5,0,0,1,400.29,239.63Z"/><path class="cls-2" d="M405.63,234.3H395a.5.5,0,0,1-.5-.5.5.5,0,0,1,.5-.5h10.67a.5.5,0,0,1,.5.5A.51.51,0,0,1,405.63,234.3Z"/><path class="cls-2" d="M361.48,54.85a.5.5,0,0,1-.5-.5V43.68a.5.5,0,0,1,1,0V54.35A.5.5,0,0,1,361.48,54.85Z"/><path class="cls-2" d="M366.81,49.52H356.15a.5.5,0,0,1-.5-.5.5.5,0,0,1,.5-.5h10.66a.5.5,0,0,1,.5.5A.5.5,0,0,1,366.81,49.52Z"/><path class="cls-2" d="M18,166.85a.5.5,0,0,1-.5-.5V155.68a.5.5,0,0,1,1,0v10.67A.5.5,0,0,1,18,166.85Z"/><path class="cls-2" d="M23.31,161.52H12.65a.5.5,0,0,1-.5-.5.5.5,0,0,1,.5-.5H23.31a.5.5,0,0,1,.5.5A.5.5,0,0,1,23.31,161.52Z"/><path class="cls-2" d="M111.15,89.85a.5.5,0,0,1-.5-.5V78.68a.5.5,0,0,1,.5-.5.51.51,0,0,1,.5.5V89.35A.5.5,0,0,1,111.15,89.85Z"/><path class="cls-2" d="M116.48,84.52H105.81a.51.51,0,0,1-.5-.5.5.5,0,0,1,.5-.5h10.67a.5.5,0,0,1,.5.5A.5.5,0,0,1,116.48,84.52Z"/><path class="cls-2" d="M342,117.83h-.92a.5.5,0,0,1-.5-.5.51.51,0,0,1,.5-.5h.42v-1.58a.5.5,0,0,1,1,0v2.08A.5.5,0,0,1,342,117.83Zm-3.92,0h-3a.5.5,0,0,1-.5-.5.51.51,0,0,1,.5-.5h3a.5.5,0,0,1,.5.5A.5.5,0,0,1,338.08,117.83Zm-6,0h-3a.5.5,0,0,1-.5-.5.51.51,0,0,1,.5-.5h3a.5.5,0,0,1,.5.5A.5.5,0,0,1,332.08,117.83Zm-6,0h-3a.5.5,0,0,1-.5-.5.51.51,0,0,1,.5-.5h3a.5.5,0,0,1,.5.5A.5.5,0,0,1,326.08,117.83ZM342,112.75a.5.5,0,0,1-.5-.5v-3a.5.5,0,0,1,1,0v3A.5.5,0,0,1,342,112.75Zm0-6a.5.5,0,0,1-.5-.5v-3a.5.5,0,0,1,1,0v3A.5.5,0,0,1,342,106.75Zm0-6a.5.5,0,0,1-.5-.5v-3a.5.5,0,0,1,1,0v3A.5.5,0,0,1,342,100.75ZM142,100a.5.5,0,0,1-.5-.5v-3a.5.5,0,0,1,1,0v3A.5.5,0,0,1,142,100Zm200-5.25a.5.5,0,0,1-.5-.5v-3a.5.5,0,0,1,1,0v3A.5.5,0,0,1,342,94.75ZM142,94a.5.5,0,0,1-.5-.5v-3a.5.5,0,0,1,1,0v3A.5.5,0,0,1,142,94Zm200-5.25a.5.5,0,0,1-.5-.5v-3a.5.5,0,0,1,1,0v3A.5.5,0,0,1,342,88.75ZM142,88a.5.5,0,0,1-.5-.5v-3a.5.5,0,0,1,1,0v3A.5.5,0,0,1,142,88Zm200-5.25a.5.5,0,0,1-.5-.5V81.17h-.92a.51.51,0,0,1-.5-.5.5.5,0,0,1,.5-.5H342a.5.5,0,0,1,.5.5v1.58A.5.5,0,0,1,342,82.75ZM142,82a.5.5,0,0,1-.5-.5v-3a.5.5,0,0,1,1,0v3A.5.5,0,0,1,142,82Zm195.58-.83h-3a.51.51,0,0,1-.5-.5.5.5,0,0,1,.5-.5h3a.5.5,0,0,1,.5.5A.5.5,0,0,1,337.58,81.17Zm-6,0h-3a.51.51,0,0,1-.5-.5.5.5,0,0,1,.5-.5h3a.5.5,0,0,1,.5.5A.5.5,0,0,1,331.58,81.17Zm-6,0h-3a.51.51,0,0,1-.5-.5.5.5,0,0,1,.5-.5h3a.5.5,0,0,1,.5.5A.5.5,0,0,1,325.58,81.17Zm-6,0h-3a.51.51,0,0,1-.5-.5.5.5,0,0,1,.5-.5h3a.5.5,0,0,1,.5.5A.5.5,0,0,1,319.58,81.17Zm-6,0h-3a.51.51,0,0,1-.5-.5.5.5,0,0,1,.5-.5h3a.5.5,0,0,1,.5.5A.5.5,0,0,1,313.58,81.17Zm-6,0h-3a.51.51,0,0,1-.5-.5.5.5,0,0,1,.5-.5h3a.5.5,0,0,1,.5.5A.5.5,0,0,1,307.58,81.17Zm-6,0h-3a.51.51,0,0,1-.5-.5.5.5,0,0,1,.5-.5h3a.5.5,0,0,1,.5.5A.5.5,0,0,1,301.58,81.17Zm-6,0h-3a.51.51,0,0,1-.5-.5.5.5,0,0,1,.5-.5h3a.5.5,0,0,1,.5.5A.5.5,0,0,1,295.58,81.17Zm-6,0h-3a.51.51,0,0,1-.5-.5.5.5,0,0,1,.5-.5h3a.5.5,0,0,1,.5.5A.5.5,0,0,1,289.58,81.17Zm-6,0h-3a.51.51,0,0,1-.5-.5.5.5,0,0,1,.5-.5h3a.5.5,0,0,1,.5.5A.5.5,0,0,1,283.58,81.17Zm-6,0h-3a.51.51,0,0,1-.5-.5.5.5,0,0,1,.5-.5h3a.5.5,0,0,1,.5.5A.5.5,0,0,1,277.58,81.17Zm-6,0h-3a.51.51,0,0,1-.5-.5.5.5,0,0,1,.5-.5h3a.5.5,0,0,1,.5.5A.5.5,0,0,1,271.58,81.17Zm-6,0h-3a.51.51,0,0,1-.5-.5.5.5,0,0,1,.5-.5h3a.5.5,0,0,1,.5.5A.5.5,0,0,1,265.58,81.17Zm-6,0h-3a.51.51,0,0,1-.5-.5.5.5,0,0,1,.5-.5h3a.5.5,0,0,1,.5.5A.5.5,0,0,1,259.58,81.17ZM254.75,80h0a.51.51,0,0,1-.5-.5v-3a.5.5,0,0,1,.5-.5h0a.5.5,0,0,1,.5.5v3A.5.5,0,0,1,254.75,80ZM142,76a.5.5,0,0,1-.5-.5v-3a.5.5,0,0,1,1,0v3A.5.5,0,0,1,142,76Zm112.77-2h0a.51.51,0,0,1-.5-.5v-3a.5.5,0,0,1,.5-.5h0a.5.5,0,0,1,.5.5v3A.5.5,0,0,1,254.77,74ZM142,70a.5.5,0,0,1-.5-.5v-3a.5.5,0,0,1,1,0v3A.5.5,0,0,1,142,70Zm112.79-2h0a.5.5,0,0,1-.5-.5v-3a.5.5,0,0,1,.5-.5h0a.5.5,0,0,1,.5.5v3A.5.5,0,0,1,254.79,68ZM142,64a.5.5,0,0,1-.5-.5v-3a.5.5,0,0,1,1,0v3A.5.5,0,0,1,142,64Zm112.81-2h0a.5.5,0,0,1-.5-.5v-3a.5.5,0,0,1,.5-.5h0a.5.5,0,0,1,.5.5v3A.5.5,0,0,1,254.81,62ZM142,58a.5.5,0,0,1-.5-.5v-3a.5.5,0,0,1,1,0v3A.5.5,0,0,1,142,58Zm112.83-2h0a.5.5,0,0,1-.5-.5v-3a.5.5,0,0,1,.5-.5h0a.5.5,0,0,1,.5.5v3A.5.5,0,0,1,254.83,56ZM142,52a.5.5,0,0,1-.5-.5v-3a.5.5,0,0,1,1,0v3A.5.5,0,0,1,142,52Zm112.85-2h0a.5.5,0,0,1-.5-.5v-3a.5.5,0,0,1,.5-.5h0a.51.51,0,0,1,.5.5v3A.5.5,0,0,1,254.85,50ZM142,46a.5.5,0,0,1-.5-.5v-3a.5.5,0,0,1,1,0v3A.5.5,0,0,1,142,46Zm112.87-2h0a.5.5,0,0,1-.49-.5v-3a.5.5,0,0,1,.5-.5h0a.51.51,0,0,1,.5.5v3A.5.5,0,0,1,254.87,44ZM142,40a.5.5,0,0,1-.5-.5v-3a.5.5,0,0,1,1,0v3A.5.5,0,0,1,142,40Zm112.88-2h0a.51.51,0,0,1-.5-.5v-3a.53.53,0,0,1,.51-.5.5.5,0,0,1,.49.5v3A.5.5,0,0,1,254.88,38ZM142,34a.5.5,0,0,1-.5-.5v-3a.5.5,0,0,1,1,0v3A.5.5,0,0,1,142,34Zm112.9-2h0a.51.51,0,0,1-.5-.5v-3a.5.5,0,0,1,.5-.5.46.46,0,0,1,.5.5v3A.5.5,0,0,1,254.9,32ZM142,28a.5.5,0,0,1-.5-.5v-3a.5.5,0,0,1,1,0v3A.5.5,0,0,1,142,28Zm112.92-2a.49.49,0,0,1-.5-.5v-3a.48.48,0,0,1,.5-.5.5.5,0,0,1,.5.5v3A.5.5,0,0,1,254.92,26ZM142,22a.5.5,0,0,1-.5-.5v-3a.5.5,0,0,1,1,0v3A.5.5,0,0,1,142,22Zm112.94-2h0a.5.5,0,0,1-.5-.5v-3a.5.5,0,0,1,.5-.5h0a.5.5,0,0,1,.5.5v3A.5.5,0,0,1,254.94,20ZM142,16a.5.5,0,0,1-.5-.5v-3a.5.5,0,0,1,1,0v3A.5.5,0,0,1,142,16Zm113-2a.48.48,0,0,1-.5-.5v-3a.5.5,0,0,1,.5-.5.51.51,0,0,1,.5.5v3A.5.5,0,0,1,255,14ZM142,10a.5.5,0,0,1-.5-.5v-3a.5.5,0,0,1,1,0v3A.5.5,0,0,1,142,10ZM255,8h0a.5.5,0,0,1-.5-.5v-3A.5.5,0,0,1,255,4h0a.51.51,0,0,1,.5.5v3A.5.5,0,0,1,255,8ZM142,4a.5.5,0,0,1-.5-.5V.5a.5.5,0,0,1,1,0v3A.5.5,0,0,1,142,4ZM255,2h0a.5.5,0,0,1-.5-.5V1H253a.5.5,0,0,1-.5-.5A.5.5,0,0,1,253,0h2a.47.47,0,0,1,.35.15.47.47,0,0,1,.15.35v1A.5.5,0,0,1,255,2Zm-5-1h-3a.5.5,0,0,1-.5-.5A.5.5,0,0,1,247,0h3a.5.5,0,0,1,.5.5A.5.5,0,0,1,250,1Zm-6,0h-3a.5.5,0,0,1-.5-.5A.5.5,0,0,1,241,0h3a.5.5,0,0,1,.5.5A.5.5,0,0,1,244,1Zm-6,0h-3a.5.5,0,0,1-.5-.5A.5.5,0,0,1,235,0h3a.5.5,0,0,1,.5.5A.5.5,0,0,1,238,1Zm-6,0h-3a.5.5,0,0,1-.5-.5A.5.5,0,0,1,229,0h3a.5.5,0,0,1,.5.5A.5.5,0,0,1,232,1Zm-6,0h-3a.5.5,0,0,1-.5-.5A.5.5,0,0,1,223,0h3a.5.5,0,0,1,.5.5A.5.5,0,0,1,226,1Zm-6,0h-3a.5.5,0,0,1-.5-.5A.5.5,0,0,1,217,0h3a.5.5,0,0,1,.5.5A.5.5,0,0,1,220,1Zm-6,0h-3a.5.5,0,0,1-.5-.5A.5.5,0,0,1,211,0h3a.5.5,0,0,1,.5.5A.5.5,0,0,1,214,1Zm-6,0h-3a.5.5,0,0,1-.5-.5A.5.5,0,0,1,205,0h3a.5.5,0,0,1,.5.5A.5.5,0,0,1,208,1Zm-6,0h-3a.5.5,0,0,1-.5-.5A.5.5,0,0,1,199,0h3a.5.5,0,0,1,.5.5A.5.5,0,0,1,202,1Zm-6,0h-3a.5.5,0,0,1-.5-.5A.5.5,0,0,1,193,0h3a.5.5,0,0,1,.5.5A.5.5,0,0,1,196,1Zm-6,0h-3a.5.5,0,0,1-.5-.5A.5.5,0,0,1,187,0h3a.5.5,0,0,1,.5.5A.5.5,0,0,1,190,1Zm-6,0h-3a.5.5,0,0,1-.5-.5A.5.5,0,0,1,181,0h3a.5.5,0,0,1,.5.5A.5.5,0,0,1,184,1Zm-6,0h-3a.5.5,0,0,1-.5-.5A.5.5,0,0,1,175,0h3a.5.5,0,0,1,.5.5A.5.5,0,0,1,178,1Zm-6,0h-3a.5.5,0,0,1-.5-.5A.5.5,0,0,1,169,0h3a.5.5,0,0,1,.5.5A.5.5,0,0,1,172,1Zm-6,0h-3a.5.5,0,0,1-.5-.5A.5.5,0,0,1,163,0h3a.5.5,0,0,1,.5.5A.5.5,0,0,1,166,1Zm-6,0h-3a.5.5,0,0,1-.5-.5A.5.5,0,0,1,157,0h3a.5.5,0,0,1,.5.5A.5.5,0,0,1,160,1Zm-6,0h-3a.5.5,0,0,1-.5-.5A.5.5,0,0,1,151,0h3a.5.5,0,0,1,.5.5A.5.5,0,0,1,154,1Zm-6,0h-3a.5.5,0,0,1-.5-.5A.5.5,0,0,1,145,0h3a.5.5,0,0,1,.5.5A.5.5,0,0,1,148,1Z"/><path class="cls-2" d="M416.5,260.5H416a.5.5,0,0,1,0-1v-2a.5.5,0,0,1,1,0V260A.5.5,0,0,1,416.5,260.5Zm-3.5,0h-3a.5.5,0,0,1,0-1h3a.5.5,0,0,1,0,1Zm-6,0h-3a.5.5,0,0,1,0-1h3a.5.5,0,0,1,0,1Zm-6,0h-3a.5.5,0,0,1,0-1h3a.5.5,0,0,1,0,1Zm-6,0h-3a.5.5,0,0,1,0-1h3a.5.5,0,0,1,0,1Zm-6,0h-3a.5.5,0,0,1,0-1h3a.5.5,0,0,1,0,1Zm-6,0h-3a.5.5,0,0,1,0-1h3a.5.5,0,0,1,0,1Zm-6,0h-3a.5.5,0,0,1,0-1h3a.5.5,0,0,1,0,1Zm-6,0h-3a.5.5,0,0,1,0-1h3a.5.5,0,0,1,0,1Zm-6,0h-3a.5.5,0,0,1,0-1h3a.5.5,0,0,1,0,1Zm51.5-5.5a.5.5,0,0,1-.5-.5v-3a.5.5,0,0,1,1,0v3A.5.5,0,0,1,416.5,255Zm0-6a.5.5,0,0,1-.5-.5v-3a.5.5,0,0,1,1,0v3A.5.5,0,0,1,416.5,249Zm0-6a.5.5,0,0,1-.5-.5v-3a.5.5,0,0,1,1,0v3A.5.5,0,0,1,416.5,243Zm0-6a.5.5,0,0,1-.5-.5v-3a.5.5,0,0,1,1,0v3A.5.5,0,0,1,416.5,237Zm0-6a.5.5,0,0,1-.5-.5v-3a.5.5,0,0,1,1,0v3A.5.5,0,0,1,416.5,231Zm0-6a.5.5,0,0,1-.5-.5v-3a.5.5,0,0,1,1,0v3A.5.5,0,0,1,416.5,225Zm0-6a.5.5,0,0,1-.5-.5v-3a.5.5,0,0,1,1,0v3A.5.5,0,0,1,416.5,219Zm0-6a.5.5,0,0,1-.5-.5V212a.5.5,0,0,1,.5-.5H419a.5.5,0,0,1,0,1h-2A.5.5,0,0,1,416.5,213Zm29.5-.5a.5.5,0,0,1-.5-.5v-3a.5.5,0,0,1,1,0v3A.5.5,0,0,1,446,212.5Zm-3,0h-3a.5.5,0,0,1,0-1h3a.5.5,0,0,1,0,1Zm-6,0h-3a.5.5,0,0,1,0-1h3a.5.5,0,0,1,0,1Zm-6,0h-3a.5.5,0,0,1,0-1h3a.5.5,0,0,1,0,1Zm-6,0h-3a.5.5,0,0,1,0-1h3a.5.5,0,0,1,0,1Zm21-6a.5.5,0,0,1-.5-.5v-3a.5.5,0,0,1,1,0v3A.5.5,0,0,1,446,206.46Zm0-6a.5.5,0,0,1-.5-.5v-3a.5.5,0,1,1,1,0v3A.5.5,0,0,1,446,200.43Zm0-6a.5.5,0,0,1-.5-.5v-3a.5.5,0,1,1,1,0v3A.5.5,0,0,1,446,194.41Zm0-6a.5.5,0,0,1-.5-.5v-3a.5.5,0,0,1,1,0v3A.5.5,0,0,1,446,188.4Zm0-6a.5.5,0,0,1-.5-.5v-3a.5.5,0,0,1,1,0v3A.5.5,0,0,1,446,182.38Zm-170-3.21a.5.5,0,0,1-.5-.5V177a.5.5,0,1,1,1,0v1.63A.5.5,0,0,1,276,179.17Zm170-2.81a.5.5,0,0,1-.5-.5v-3a.5.5,0,0,1,1,0v3A.5.5,0,0,1,446,176.36Zm-170-1.82a.5.5,0,0,1-.5-.5v-3a.5.5,0,1,1,1,0v3A.5.5,0,0,1,276,174.54Zm170-4.2a.5.5,0,0,1-.5-.5v-3a.5.5,0,0,1,1,0v3A.5.5,0,0,1,446,170.34Zm-170-1.8a.5.5,0,0,1-.5-.5v-3a.5.5,0,1,1,1,0v3A.5.5,0,0,1,276,168.54Zm170-4.22a.5.5,0,0,1-.5-.5v-3a.5.5,0,1,1,1,0v3A.5.5,0,0,1,446,164.32Zm-170-1.78a.5.5,0,0,1-.5-.5v-3a.5.5,0,1,1,1,0v3A.5.5,0,0,1,276,162.54Zm170-4.24a.5.5,0,0,1-.5-.5v-3a.5.5,0,1,1,1,0v3A.5.5,0,0,1,446,158.3Zm-170-1.76a.5.5,0,0,1-.5-.5v-3a.5.5,0,1,1,1,0v3A.5.5,0,0,1,276,156.54Zm137.51-2.32h-2.25a.5.5,0,0,1-.5-.5.51.51,0,0,1,.5-.5h3a.51.51,0,0,1,.5.5.5.5,0,0,1-.5.5Zm3.76,0a.5.5,0,0,1-.5-.5.5.5,0,0,1,.5-.5h3a.5.5,0,0,1,0,1Zm-9,0v0Zm0,0h-3a.51.51,0,0,1-.5-.5.5.5,0,0,1,.5-.5h3l0,.5Zm-6,0v0Zm0,0h-3a.5.5,0,0,1-.5-.5.5.5,0,0,1,.5-.5h3l0,.5Zm21.06,0a.5.5,0,0,1-.5-.5.5.5,0,0,1,.5-.5h3a.5.5,0,0,1,.5.5.5.5,0,0,1-.5.5Zm-27,0h-3a.52.52,0,0,1-.5-.51.5.5,0,0,1,.5-.49h3a.5.5,0,0,1,0,1Zm33,0a.49.49,0,0,1-.5-.49.51.51,0,0,1,.5-.51h3a.5.5,0,0,1,.5.5.5.5,0,0,1-.5.5Zm-39,0h-3a.52.52,0,0,1-.5-.51.5.5,0,0,1,.5-.49h3a.5.5,0,0,1,0,1Zm-6,0h-3a.5.5,0,0,1-.5-.5.51.51,0,0,1,.5-.5h3a.5.5,0,0,1,.5.5A.5.5,0,0,1,384.24,154.19Zm51,0a.5.5,0,0,1-.5-.5.51.51,0,0,1,.5-.5l3,0h0a.5.5,0,0,1,.5.5.49.49,0,0,1-.49.5l-3,0Zm-57,0h-3a.5.5,0,0,1-.5-.5.51.51,0,0,1,.5-.5h3a.5.5,0,0,1,.51.5A.49.49,0,0,1,378.23,154.18Zm-6,0h-3a.51.51,0,0,1-.5-.51.49.49,0,0,1,.5-.49h3a.5.5,0,0,1,.5.5A.5.5,0,0,1,372.22,154.16Zm-6,0h-3a.51.51,0,0,1-.5-.5.52.52,0,0,1,.51-.5h3a.5.5,0,0,1,.5.5A.51.51,0,0,1,366.22,154.15Zm75.06,0a.5.5,0,0,1,0-1l3,0a.49.49,0,0,1,.51.49.51.51,0,0,1-.49.51l-3,0Zm-81.07,0h-3a.5.5,0,0,1-.5-.5.5.5,0,0,1,.5-.5h3a.5.5,0,0,1,.5.5A.5.5,0,0,1,360.21,154.13Zm-6,0h-3a.51.51,0,0,1-.5-.51.5.5,0,0,1,.5-.49h3a.5.5,0,0,1,.49.51A.49.49,0,0,1,354.2,154.11Zm-6,0h-3a.5.5,0,1,1,0-1h3a.5.5,0,0,1,.5.5A.51.51,0,0,1,348.2,154.1Zm-6,0h-3a.5.5,0,1,1,0-1h3a.5.5,0,0,1,.5.5A.51.51,0,0,1,342.19,154.08Zm-6,0h-3a.5.5,0,1,1,0-1h3a.5.5,0,0,1,.5.5A.51.51,0,0,1,336.18,154.06Zm-6,0h0l-3,0a.5.5,0,0,1-.5-.5.5.5,0,0,1,.5-.5h0l3,0a.5.5,0,0,1,.5.5A.51.51,0,0,1,330.17,154Zm-6,0h-3a.49.49,0,0,1-.49-.5.5.5,0,0,1,.5-.5h3a.5.5,0,1,1,0,1Zm-3.48-2.55a.5.5,0,0,1-.5-.5v-3a.5.5,0,0,1,.5-.5.51.51,0,0,1,.5.5v3A.5.5,0,0,1,320.67,151.46ZM276,150.54a.5.5,0,0,1-.5-.5v-3a.5.5,0,1,1,1,0v3A.5.5,0,0,1,276,150.54Zm44.67-5.08a.5.5,0,0,1-.5-.5v-3a.5.5,0,0,1,.5-.5.51.51,0,0,1,.5.5v3A.5.5,0,0,1,320.67,145.46ZM276,144.54a.5.5,0,0,1-.5-.5v-3a.5.5,0,1,1,1,0v3A.5.5,0,0,1,276,144.54Zm44.67-5.08a.5.5,0,0,1-.5-.5v-3a.5.5,0,0,1,.5-.5.51.51,0,0,1,.5.5v3A.5.5,0,0,1,320.67,139.46ZM276,138.54a.5.5,0,0,1-.5-.5v-3a.5.5,0,1,1,1,0v3A.5.5,0,0,1,276,138.54Zm44.67-5.08a.5.5,0,0,1-.5-.5v-3a.5.5,0,0,1,.5-.5.51.51,0,0,1,.5.5v3A.5.5,0,0,1,320.67,133.46ZM276,132.54a.5.5,0,0,1-.5-.5v-3a.5.5,0,1,1,1,0v3A.5.5,0,0,1,276,132.54Zm44.67-5.08a.5.5,0,0,1-.5-.5v-3a.5.5,0,0,1,.5-.5.51.51,0,0,1,.5.5v3A.5.5,0,0,1,320.67,127.46ZM276,126.54a.5.5,0,0,1-.5-.5v-3a.5.5,0,0,1,1,0v3A.5.5,0,0,1,276,126.54Zm44.67-5.08a.5.5,0,0,1-.5-.5v-3a.5.5,0,0,1,.5-.5.51.51,0,0,1,.5.5v3A.5.5,0,0,1,320.67,121.46ZM276,120.54a.5.5,0,0,1-.5-.5v-2.71a.5.5,0,0,1,.5-.5h.3a.5.5,0,0,1,.2,1V120A.5.5,0,0,1,276,120.54Zm42.3-2.71h-3a.5.5,0,0,1-.5-.5.5.5,0,0,1,.5-.5h3a.51.51,0,0,1,.5.5A.5.5,0,0,1,318.3,117.83Zm-6,0h-3a.5.5,0,0,1-.5-.5.5.5,0,0,1,.5-.5h3a.51.51,0,0,1,.5.5A.5.5,0,0,1,312.3,117.83Zm-6,0h-3a.5.5,0,0,1-.5-.5.5.5,0,0,1,.5-.5h3a.51.51,0,0,1,.5.5A.5.5,0,0,1,306.3,117.83Zm-6,0h-3a.5.5,0,0,1-.5-.5.5.5,0,0,1,.5-.5h3a.51.51,0,0,1,.5.5A.5.5,0,0,1,300.3,117.83Zm-6,0h-3a.5.5,0,0,1-.5-.5.5.5,0,0,1,.5-.5h3a.51.51,0,0,1,.5.5A.5.5,0,0,1,294.3,117.83Zm-6,0h-3a.5.5,0,0,1-.5-.5.5.5,0,0,1,.5-.5h3a.51.51,0,0,1,.5.5A.5.5,0,0,1,288.3,117.83Zm-6,0h-3a.5.5,0,0,1-.5-.5.5.5,0,0,1,.5-.5h3a.51.51,0,0,1,.5.5A.5.5,0,0,1,282.3,117.83Z"/><path class="cls-2" d="M17,93.5a.5.5,0,0,1-.5-.5V90.5a.5.5,0,0,1,1,0V93A.5.5,0,0,1,17,93.5ZM17,88a.5.5,0,0,1-.5-.5v-3a.5.5,0,0,1,1,0v3A.5.5,0,0,1,17,88Zm0-6a.5.5,0,0,1-.5-.5v-3a.5.5,0,0,1,1,0v3A.5.5,0,0,1,17,82Zm0-6a.5.5,0,0,1-.5-.5v-3a.5.5,0,0,1,1,0v3A.5.5,0,0,1,17,76Zm0-6a.5.5,0,0,1-.5-.5v-3a.5.5,0,0,1,1,0v3A.5.5,0,0,1,17,70Zm75-3a.5.5,0,0,1-.5-.5v-3a.5.5,0,0,1,1,0v3A.5.5,0,0,1,92,67ZM17,64a.5.5,0,0,1-.5-.5v-3a.5.5,0,0,1,1,0v3A.5.5,0,0,1,17,64Zm75-3a.5.5,0,0,1-.5-.5v-3a.5.5,0,0,1,1,0v3A.5.5,0,0,1,92,61ZM17,58a.5.5,0,0,1-.5-.5v-3a.5.5,0,0,1,1,0v3A.5.5,0,0,1,17,58Zm75-3a.5.5,0,0,1-.5-.5v-3a.5.5,0,0,1,1,0v3A.5.5,0,0,1,92,55ZM17,52a.5.5,0,0,1-.5-.5v-3a.5.5,0,0,1,1,0v3A.5.5,0,0,1,17,52Zm75-3a.5.5,0,0,1-.5-.5v-3a.5.5,0,0,1,1,0v3A.5.5,0,0,1,92,49ZM17,46a.5.5,0,0,1-.5-.5V44a.5.5,0,0,1,.5-.5h1.5a.5.5,0,0,1,0,1h-1v1A.5.5,0,0,1,17,46Zm73.5-1.5h-3a.5.5,0,0,1,0-1h3a.5.5,0,0,1,0,1Zm-6,0h-3a.5.5,0,0,1,0-1h3a.5.5,0,0,1,0,1Zm-6,0h-3a.5.5,0,0,1,0-1h3a.5.5,0,0,1,0,1Zm-6,0h-3a.5.5,0,0,1,0-1h3a.5.5,0,0,1,0,1Zm-6,0h-3a.5.5,0,0,1,0-1h3a.5.5,0,0,1,0,1Zm-6,0h-3a.5.5,0,0,1,0-1h3a.5.5,0,0,1,0,1Zm-6,0h-3a.5.5,0,0,1,0-1h3a.5.5,0,0,1,0,1Zm-6,0h-3a.5.5,0,0,1,0-1h3a.5.5,0,0,1,0,1Zm-6,0h-3a.5.5,0,0,1,0-1h3a.5.5,0,0,1,0,1Zm-6,0h-3a.5.5,0,0,1,0-1h3a.5.5,0,0,1,0,1Zm-6,0h-3a.5.5,0,0,1,0-1h3a.5.5,0,0,1,0,1Zm-6,0h-3a.5.5,0,0,1,0-1h3a.5.5,0,0,1,0,1Z"/><path class="cls-2" d="M55.33,255.83H54a.5.5,0,0,1-.5-.5.5.5,0,0,1,.5-.5h1.33a.5.5,0,0,1,.5.5A.5.5,0,0,1,55.33,255.83Zm-4.33,0H48a.5.5,0,0,1-.5-.5.5.5,0,0,1,.5-.5h3a.5.5,0,0,1,.5.5A.5.5,0,0,1,51,255.83Zm-6,0H42a.5.5,0,0,1-.5-.5.5.5,0,0,1,.5-.5h3a.5.5,0,0,1,.5.5A.5.5,0,0,1,45,255.83Zm-6,0H36a.5.5,0,0,1-.5-.5.5.5,0,0,1,.5-.5h3a.5.5,0,0,1,.5.5A.5.5,0,0,1,39,255.83Zm-6,0H30a.5.5,0,0,1-.5-.5.5.5,0,0,1,.5-.5h3a.5.5,0,0,1,.5.5A.5.5,0,0,1,33,255.83Zm-6,0H24a.5.5,0,0,1-.5-.5.5.5,0,0,1,.5-.5h3a.5.5,0,0,1,.5.5A.5.5,0,0,1,27,255.83Zm-4.33-1.66a.5.5,0,0,1-.5-.5v-3a.5.5,0,0,1,.5-.5.5.5,0,0,1,.5.5v3A.51.51,0,0,1,22.67,254.17Zm0-6a.5.5,0,0,1-.5-.5v-3a.5.5,0,0,1,.5-.5.5.5,0,0,1,.5.5v3A.51.51,0,0,1,22.67,248.17Zm0-6a.5.5,0,0,1-.5-.5v-3a.5.5,0,0,1,.5-.5.5.5,0,0,1,.5.5v3A.51.51,0,0,1,22.67,242.17Zm0-6a.5.5,0,0,1-.5-.5v-3a.5.5,0,0,1,.5-.5.5.5,0,0,1,.5.5v3A.51.51,0,0,1,22.67,236.17Zm0-6a.5.5,0,0,1-.5-.5v-3a.5.5,0,0,1,.5-.5.5.5,0,0,1,.5.5v3A.51.51,0,0,1,22.67,230.17Zm0-6a.5.5,0,0,1-.5-.5v-3a.5.5,0,0,1,.5-.5.5.5,0,0,1,.5.5v3A.51.51,0,0,1,22.67,224.17Zm0-6a.5.5,0,0,1-.5-.5v-3a.5.5,0,0,1,.5-.5.5.5,0,0,1,.5.5v3A.51.51,0,0,1,22.67,218.17Zm0-6a.5.5,0,0,1-.5-.5v-3a.5.5,0,0,1,.5-.5.5.5,0,0,1,.5.5v3A.51.51,0,0,1,22.67,212.17Zm0-6a.5.5,0,0,1-.5-.5v-3a.5.5,0,0,1,.5-.5.5.5,0,0,1,.5.5v3A.51.51,0,0,1,22.67,206.17Zm0-6a.5.5,0,0,1-.5-.5v-3a.5.5,0,0,1,.5-.5.5.5,0,0,1,.5.5v3A.51.51,0,0,1,22.67,200.17Zm0-6a.5.5,0,0,1-.5-.5v-3a.5.5,0,0,1,.5-.5.5.5,0,0,1,.5.5v3A.51.51,0,0,1,22.67,194.17Zm0-6a.5.5,0,0,1-.5-.5V186h-.34a.5.5,0,1,1,0-1h.84a.5.5,0,0,1,.5.5v2.17A.51.51,0,0,1,22.67,188.17ZM18.83,186h-3a.5.5,0,0,1,0-1h3a.5.5,0,0,1,0,1Zm-6,0h-3a.5.5,0,0,1,0-1h3a.5.5,0,1,1,0,1Zm-6,0H4.67a.5.5,0,0,1-.5-.5v-.83a.5.5,0,0,1,.5-.5.5.5,0,0,1,.5.5V185H6.83a.5.5,0,1,1,0,1Zm-2.16-3.83a.5.5,0,0,1-.5-.5v-3a.5.5,0,0,1,.5-.5.5.5,0,0,1,.5.5v3A.51.51,0,0,1,4.67,182.17Zm0-6a.5.5,0,0,1-.5-.5v-3a.5.5,0,0,1,.5-.5.5.5,0,0,1,.5.5v3A.51.51,0,0,1,4.67,176.17Zm0-6a.5.5,0,0,1-.5-.5v-3a.5.5,0,0,1,.5-.5.5.5,0,0,1,.5.5v3A.51.51,0,0,1,4.67,170.17Zm0-6a.5.5,0,0,1-.5-.5v-3a.5.5,0,0,1,.5-.5.5.5,0,0,1,.5.5v3A.51.51,0,0,1,4.67,164.17Zm0-6a.5.5,0,0,1-.5-.5v-3a.5.5,0,0,1,.5-.5.5.5,0,0,1,.5.5v3A.51.51,0,0,1,4.67,158.17Zm0-6a.5.5,0,0,1-.5-.5v-3a.5.5,0,0,1,.5-.5.5.5,0,0,1,.5.5v3A.51.51,0,0,1,4.67,152.17Zm0-6a.5.5,0,0,1-.5-.5v-3a.5.5,0,0,1,.5-.5.5.5,0,0,1,.5.5v3A.51.51,0,0,1,4.67,146.17Zm0-6a.5.5,0,0,1-.5-.5v-3a.5.5,0,0,1,.5-.5.5.5,0,0,1,.5.5v3A.51.51,0,0,1,4.67,140.17Zm0-6a.5.5,0,0,1-.5-.5v-3a.5.5,0,0,1,.5-.5.5.5,0,0,1,.5.5v3A.51.51,0,0,1,4.67,134.17Zm0-6a.5.5,0,0,1-.5-.5v-3a.5.5,0,0,1,.5-.5.5.5,0,0,1,.5.5v3A.51.51,0,0,1,4.67,128.17Zm0-6a.5.5,0,0,1-.5-.5v-3a.5.5,0,0,1,.5-.5.5.5,0,0,1,.5.5v3A.51.51,0,0,1,4.67,122.17Zm0-6a.5.5,0,0,1-.5-.5v-3a.5.5,0,0,1,.5-.5.5.5,0,0,1,.5.5v3A.51.51,0,0,1,4.67,116.17Zm0-6a.5.5,0,0,1-.5-.5v-3a.5.5,0,0,1,.5-.5.5.5,0,0,1,.5.5v3A.51.51,0,0,1,4.67,110.17Zm0-6a.5.5,0,0,1-.5-.5v-3a.5.5,0,0,1,.5-.5.5.5,0,0,1,.5.5v3A.51.51,0,0,1,4.67,104.17ZM123.5,100a.5.5,0,0,1-.5-.5v-3a.5.5,0,0,1,1,0v3A.5.5,0,0,1,123.5,100ZM4.67,98.17a.5.5,0,0,1-.5-.5v-3a.5.5,0,0,1,.5-.5.5.5,0,0,1,.5.5v3A.51.51,0,0,1,4.67,98.17ZM123.5,94a.5.5,0,0,1-.5-.5v-3a.5.5,0,0,1,1,0v3A.5.5,0,0,1,123.5,94ZM92,93.5H90a.5.5,0,0,1,0-1h1.5V92a.5.5,0,0,1,1,0v1A.5.5,0,0,1,92,93.5Zm-5,0H84a.5.5,0,0,1,0-1h3a.5.5,0,0,1,0,1Zm-6,0H78a.5.5,0,0,1,0-1h3a.5.5,0,0,1,0,1Zm-6,0H72a.5.5,0,0,1,0-1h3a.5.5,0,0,1,0,1Zm-6,0H66a.5.5,0,0,1,0-1h3a.5.5,0,0,1,0,1Zm-6,0H60a.5.5,0,0,1,0-1h3a.5.5,0,0,1,0,1Zm-6,0H54a.5.5,0,0,1,0-1h3a.5.5,0,0,1,0,1Zm-6,0H48a.5.5,0,0,1,0-1h3a.5.5,0,0,1,0,1Zm-6,0H42a.5.5,0,0,1,0-1h3a.5.5,0,0,1,0,1Zm-6,0H36a.5.5,0,0,1,0-1h3a.5.5,0,0,1,0,1Zm-6,0H30a.5.5,0,0,1,0-1h3a.5.5,0,0,1,0,1Zm-6,0H24a.5.5,0,0,1,0-1h3a.5.5,0,0,1,0,1Zm-6,0H18a.5.5,0,0,1,0-1h3a.5.5,0,0,1,0,1Zm-6,0H12a.5.5,0,0,1,0-1h3a.5.5,0,0,1,0,1Zm-6,0H6a.5.5,0,0,1,0-1H9a.5.5,0,0,1,0,1Zm83-4a.5.5,0,0,1-.5-.5V86a.5.5,0,0,1,1,0v3A.5.5,0,0,1,92,89.5ZM123.5,88a.5.5,0,0,1-.5-.5v-3a.5.5,0,0,1,1,0v3A.5.5,0,0,1,123.5,88ZM92,83.5a.5.5,0,0,1-.5-.5V80a.5.5,0,0,1,1,0v3A.5.5,0,0,1,92,83.5ZM123.5,82a.5.5,0,0,1-.5-.5v-3a.5.5,0,0,1,1,0v3A.5.5,0,0,1,123.5,82ZM92,77.5a.5.5,0,0,1-.5-.5V74a.5.5,0,0,1,1,0v3A.5.5,0,0,1,92,77.5ZM123.5,76a.5.5,0,0,1-.5-.5v-3a.5.5,0,0,1,1,0v3A.5.5,0,0,1,123.5,76ZM92,71.5a.5.5,0,0,1-.5-.5V68a.5.5,0,0,1,1,0v3A.5.5,0,0,1,92,71.5ZM123.5,70a.5.5,0,0,1-.5-.5v-3a.5.5,0,0,1,1,0v3A.5.5,0,0,1,123.5,70Zm-3-3h-3a.5.5,0,0,1,0-1h3a.5.5,0,0,1,0,1Zm-6,0h-3a.5.5,0,0,1,0-1h3a.5.5,0,0,1,0,1Zm-6,0h-3a.5.5,0,0,1,0-1h3a.5.5,0,0,1,0,1Zm-6,0h-3a.5.5,0,0,1,0-1h3a.5.5,0,0,1,0,1Zm-6,0h-3a.5.5,0,0,1,0-1h3a.5.5,0,0,1,0,1Z"/><path class="cls-2" d="M430.25,153.83a.5.5,0,0,1-.5-.5v-2.91a.5.5,0,1,1,1,0v2.91A.5.5,0,0,1,430.25,153.83Zm0-5.91a.5.5,0,0,1-.5-.5v-3a.5.5,0,1,1,1,0v3A.5.5,0,0,1,430.25,147.92Zm0-6a.5.5,0,0,1-.5-.5v-3a.5.5,0,1,1,1,0v3A.5.5,0,0,1,430.25,141.92Zm0-6a.5.5,0,0,1-.5-.5v-3a.5.5,0,1,1,1,0v3A.5.5,0,0,1,430.25,135.92Zm0-6a.5.5,0,0,1-.5-.5v-3a.5.5,0,1,1,1,0v3A.5.5,0,0,1,430.25,129.92Zm0-6a.5.5,0,0,1-.5-.5v-3a.5.5,0,1,1,1,0v3A.5.5,0,0,1,430.25,123.92Zm0-6a.5.5,0,0,1-.5-.5v-3a.5.5,0,1,1,1,0v3A.5.5,0,0,1,430.25,117.92Zm0-6a.5.5,0,0,1-.5-.5v-3a.5.5,0,1,1,1,0v3A.5.5,0,0,1,430.25,111.92Zm0-6a.5.5,0,0,1-.5-.5v-3a.5.5,0,1,1,1,0v3A.5.5,0,0,1,430.25,105.92Zm0-6a.5.5,0,0,1-.5-.5v-3a.5.5,0,1,1,1,0v3A.5.5,0,0,1,430.25,99.92Zm0-6a.5.5,0,0,1-.5-.5v-3a.5.5,0,1,1,1,0v3A.5.5,0,0,1,430.25,93.92Zm0-6a.5.5,0,0,1-.5-.5v-3a.5.5,0,1,1,1,0v3A.5.5,0,0,1,430.25,87.92Zm0-6a.5.5,0,0,1-.5-.5v-3a.5.5,0,0,1,1,0v3A.5.5,0,0,1,430.25,81.92ZM342,81.17a.5.5,0,0,1-.5-.5v-3a.5.5,0,0,1,1,0v3A.5.5,0,0,1,342,81.17Zm88.25-5.25a.5.5,0,0,1-.5-.5v-3a.5.5,0,0,1,1,0v3A.5.5,0,0,1,430.25,75.92ZM342,75.17a.5.5,0,0,1-.5-.5v-3a.5.5,0,0,1,1,0v3A.5.5,0,0,1,342,75.17Zm88.25-5.25a.5.5,0,0,1-.5-.5V67.1a.5.5,0,0,1-.25-.43.5.5,0,0,1,.5-.5h.25a.5.5,0,0,1,.5.5v2.75A.5.5,0,0,1,430.25,69.92ZM342,69.17a.5.5,0,0,1-.5-.5v-2a.5.5,0,0,1,.5-.5h1a.5.5,0,0,1,.5.5.5.5,0,0,1-.5.5h-.5v1.5A.5.5,0,0,1,342,69.17Zm85-2h-3a.5.5,0,0,1-.5-.5.5.5,0,0,1,.5-.5h3a.5.5,0,0,1,.5.5A.5.5,0,0,1,427,67.17Zm-6,0h-3a.5.5,0,0,1-.5-.5.5.5,0,0,1,.5-.5h3a.5.5,0,0,1,.5.5A.5.5,0,0,1,421,67.17Zm-6,0h-3a.5.5,0,0,1-.5-.5.5.5,0,0,1,.5-.5h3a.5.5,0,0,1,.5.5A.5.5,0,0,1,415,67.17Zm-6,0h-3a.5.5,0,0,1-.5-.5.5.5,0,0,1,.5-.5h3a.5.5,0,0,1,.5.5A.5.5,0,0,1,409,67.17Zm-6,0h-3a.5.5,0,0,1-.5-.5.5.5,0,0,1,.5-.5h3a.5.5,0,0,1,.5.5A.5.5,0,0,1,403,67.17Zm-6,0h-3a.5.5,0,0,1-.5-.5.5.5,0,0,1,.5-.5h3a.5.5,0,0,1,.5.5A.5.5,0,0,1,397,67.17Zm-6,0h-3a.5.5,0,0,1-.5-.5.5.5,0,0,1,.5-.5h3a.5.5,0,0,1,.5.5A.5.5,0,0,1,391,67.17Zm-6,0h-3a.5.5,0,0,1-.5-.5.5.5,0,0,1,.5-.5h3a.5.5,0,0,1,.5.5A.5.5,0,0,1,385,67.17Zm-6,0h-3a.5.5,0,0,1-.5-.5.5.5,0,0,1,.5-.5h3a.5.5,0,0,1,.5.5A.5.5,0,0,1,379,67.17Zm-6,0h-3a.5.5,0,0,1-.5-.5.5.5,0,0,1,.5-.5h3a.5.5,0,0,1,.5.5A.5.5,0,0,1,373,67.17Zm-6,0h-3a.5.5,0,0,1-.5-.5.5.5,0,0,1,.5-.5h3a.5.5,0,0,1,.5.5A.5.5,0,0,1,367,67.17Zm-6,0h-3a.5.5,0,0,1-.5-.5.5.5,0,0,1,.5-.5h3a.5.5,0,0,1,.5.5A.5.5,0,0,1,361,67.17Zm-6,0h-3a.5.5,0,0,1-.5-.5.5.5,0,0,1,.5-.5h3a.5.5,0,0,1,.5.5A.5.5,0,0,1,355,67.17Zm-6,0h-3a.5.5,0,0,1-.5-.5.5.5,0,0,1,.5-.5h3a.5.5,0,0,1,.5.5A.5.5,0,0,1,349,67.17Z"/><rect class="cls-2" x="385" y="59.99" width="45.5" height="1"/><rect class="cls-2" x="363.5" y="161.99" width="31.17" height="1"/><rect class="cls-2" x="149.33" y="8.45" width="90" height="1"/><rect class="cls-2" x="149.33" y="17.12" width="34" height="1"/><rect class="cls-2" x="269" y="134" width="1" height="28.5"/><rect class="cls-2" x="422" y="217.5" width="1" height="27"/><rect class="cls-2" x="334.67" y="85.5" width="1" height="27"/><rect class="cls-2" x="10.5" y="101" width="1" height="41.5"/><path class="cls-3" d="M458,355.33c0,9.93-102.53,26.13-229,26.13S0,365.26,0,355.33s102.53-9.79,229-9.79S458,345.41,458,355.33Z"/><path class="cls-4" d="M324.39,281.39c-1.57-12.31-11-32.57-14.63-58.4-4.1-28.91,3.75-63.2,3.75-63.2s14.67,35.31,19.21,63.2c4.08,25,.15,48.68,1.61,58.75Z"/><path class="cls-5" d="M348.89,282.61c1.38-11.07,9.45-29.17,12.58-52,3.46-25.25-3.15-54.79-3.15-54.79s-12.4,30.43-16.35,54.79c-3.59,22.1-.34,43.25-1.63,52.32Z"/><path class="cls-6" d="M324.39,281.39c-1.57-12.31-11-32.57-14.63-58.4-4.1-28.91,3.75-63.2,3.75-63.2s14.67,35.31,19.21,63.2c4.08,25,.15,48.68,1.61,58.75Z"/><path class="cls-6" d="M348.89,282.61c1.38-11.07,9.45-29.17,12.58-52,3.46-25.25-3.15-54.79-3.15-54.79s-12.4,30.43-16.35,54.79c-3.59,22.1-.34,43.25-1.63,52.32Z"/><path class="cls-7" d="M332.26,281.74c0-13.94-6.87-37.1-7.31-67.05-.5-34.08,12.1-75.32,12.1-75.32s10.38,42.45,11.26,75.32c.77,29-6.3,56.06-6.16,67.44Z"/><path class="cls-8" d="M316.91,281.76c-2.74-13-14-34.57-20.2-62.2-7-31.15-2.64-68.44-2.64-68.44s18.17,38.39,25.42,68.44c6.45,26.76,4.84,51.92,7.24,62.57Z"/><path class="cls-9" d="M357.69,281.81c2.54-11.44,13-30.17,18.57-53.88,6.21-26.29,2-57.19,2-57.19s-16.36,31.82-23,57.19c-6,23-4.54,44.84-6.8,54.2Z"/><path class="cls-6" d="M378.27,170.74s-2.25,34.47-9.12,58.48c-5.13,18-16,42.25-19,52.75l7.52-.16c2.54-11.44,13-30.17,18.57-53.88C382.47,201.64,378.27,170.74,378.27,170.74Z"/><path class="cls-6" d="M334.33,281.74c.68-9.5,6.77-39.05,6.33-68.88-.57-37.57-3.61-73.49-3.61-73.49s10.38,42.45,11.26,75.32c.77,29-6.3,56.06-6.16,67.44Z"/><path class="cls-6" d="M319.59,281.76c-2.65-13-1.63-34.92-6.93-62.59-6-31.21-18.59-68-18.59-68s18.17,38.39,25.42,68.44c6.45,26.76,4.84,51.92,7.24,62.57Z"/><path class="cls-10" d="M370.74,194.52c2.38.48.08,15-3.62,28.47-3.35,12.19-7.83,23.56-11,23C349.36,244.79,366.78,193.73,370.74,194.52Z"/><path class="cls-10" d="M296.72,177.11c2.33-.7,7.41,17.62,10.49,31.27,2.78,12.33,4.33,29.37,1.24,30.37s-8.17-13-10.74-27C294.65,195.06,294.62,177.74,296.72,177.11Z"/><path class="cls-10" d="M334.79,165c3.49.07,4.17,66.49-3.24,66.7S330.41,165,334.79,165Z"/><path class="cls-11" d="M352.92,346.07H322.38c-8.28-16.1-15-37.37-20.13-66.58h70.8C367.54,310.66,360.87,331.5,352.92,346.07Z"/><path class="cls-12" d="M372.17,284.31c.29-1.58.59-3.18.88-4.82h-70.8c.29,1.63.58,3.24.88,4.82Z"/><path class="cls-13" d="M346.92,279.49s-2.41,40.49-9.47,66.58h15.47c7.95-14.57,14.62-35.41,20.13-66.58Z"/><rect class="cls-14" x="124.73" y="90.18" width="6.29" height="197.08" transform="translate(-95.99 145.7) rotate(-45)"/><path class="cls-15" d="M198.56,255,66.89,123.28l-6.47-6.47-1.69,1.69h0L56,121.26l6.89,6.9c.8-1,1.62-2,2.46-3.06L196.74,256.51c-1,.84-2,1.66-3.06,2.46l1.65,1.65,4.45-4.45Z"/><rect class="cls-16" x="128.69" y="279.46" width="11.36" height="47.19"/><circle class="cls-17" cx="134.37" cy="182.23" r="85.43"/><path class="cls-18" d="M125.42,207.68c-5.14-3.28-12.33-3-17.71-6.44a97.11,97.11,0,0,1-7.86-6.13c-1.8-1.43-3.63-4.19-5.74-5.64-2.87-2-4.44-.3-7.59-.91-3-.57-4.34-2.51-7.87-2.18.79.78.13-.27.37,1.24-2.7.67-6.24,5.11-6.52,7.48-.23,2,1.63,4.17,1.34,6.48s-1.68,3.69-1.75,6.09c-.14,5,2.57,7.78,5.59,11,2.41,2.59,3.78,6.13,6.67,8.35,1.84,1.41,4.18,1.87,6.1,3.13,7.18,4.69,7.33,16,12.33,22.08,1.49,1.81,14.09,12.87,17.3,9.62,1.65-1.68-1.57-2.35-2-3.83-.57-1.92.12-2.68.26-4.38.32-4,2.75-7.14,3.17-10.93.25-2.27-1.87-4.46-.13-6.49,1-1.16,2.78-.32,4-.91,4.75-2.21,4-5.53,3.18-10.1C127.45,218.9,132.11,212,125.42,207.68Z"/><path class="cls-19" d="M52.52,184.1c2.11.85,4-.43,6,.57,1.51.74,2.49,2.66,3.8,2.69a3.77,3.77,0,0,0,2.57.61c1.69-3.6-2.64-5.51-5.06-7.29-1.74-1.27-2.77-.72-3.81-3.15-.89-2.07-.67-4.79-.58-7,.23-5.46,5.28-8,10.49-7.07,2.18.4,3.13,1.93,5.11-.12,1.8-1.87,1.71-4.93,3.75-7,4.12-4.19,6.36-8.93,11.73-11.64a45.49,45.49,0,0,0,7.6-4.45c3.63-2.85.86-3.61,2.28-6.92,1.06-2.47,3.6-1.83,5.83-2.37s5.78-1.68,7-3.63c1.64-2.69.07-4.13-.92-6.43-.48-1.12.37-2.18-.87-3-2-1.33-2.31,1.26-3.79,1.27s-1.94-1.29-3.11-1.27c-2.24,0-2.4,1.53-3.76,2.93a13.45,13.45,0,0,1-11.18,4c-3.7-.41-6-1.55-2.28-4.36,1.82-1.36,2.56-.63,3-3.19.1-.59-.82-1.74-.4-2.88a5.8,5.8,0,0,0-2.75-.5A85.3,85.3,0,0,0,49,180.8,8.37,8.37,0,0,0,52.52,184.1Z"/><path class="cls-20" d="M201.86,142.59c-1.42.75-2.2,3.12-3.45,3.5-.9.27-6.2-1.61-7.58-2s-3.87-.86-4.54-2.11c-1.33-2.51,1.49-4.45-3-4.46-1.6,0-4.12.78-6,1a20.75,20.75,0,0,0-5.69,1.64c-1.59.66-2.81,1.51-4.4,1.41-.07.31-.18.6-.65.55-2.61.23-5.65,3.49-6.74,5.56-.91,1.74-.82,3.22-2.05,4.95-1,1.35-2.23,2.34-3.27,3.59-3,3.6-3.81,6.75-3.35,11.39.34,3.44-1.61,7.42-.5,10.4.83,2.23,3.07,3,4.38,4.77,1.12,1.53,1.23,3.61,2.54,5.06,2.91,3.2,7,2.09,10.64,2.45,1.37.14,2.82,1.19,4.41.64s2.39-2.83,4.56-3.22c1.91-.36,2.58.86,4,1s3-.59,4.47-.41c4.28.54,2.15,6.35,4.38,9.51,1,1.45,2.63,2.35,3.52,4.12,1.25,2.48,1,4.48,1.55,7,.35,1.6,2.59,3.34,2.57,4.57,0,1.73-1.9,1.74-2.49,3.12-.87,2.06,0,5.21.83,7.12a28.74,28.74,0,0,1,2.28,7c.27,1.23,1,4.25,2.32,5.32a85.54,85.54,0,0,0,11.87-88.33C209.75,143.78,206.13,140.33,201.86,142.59Z"/><path class="cls-21" d="M144.42,99.13c-4.6-1.43-8.39,0-13,.91-2.09.42-10.11-.06-10.39,2.93-1.23,1.34,1.7,1,2.46.81,1.21-.31,2.16-.7,3.41-.13a9.17,9.17,0,0,1-1.27,4.57c-1,1.81-2.65,2.46-2.11,5,.39,1.82,2.91,2.49,4.75,1.89,1.49-.48,2.7-2.4,3.9-3.42a9.59,9.59,0,0,1,4.62-2.17c2.32-.45,4.69-.78,7-1.43,2.84-.8,5.62-2.65,8.57-2.83C153.69,102.59,146,99.63,144.42,99.13Z"/><path class="cls-22" d="M160.45,135.83c-.34,2.36.37,3.71,3,4,2.05.26,4.3-.94,6.07-2a4.8,4.8,0,0,0,2.28-2.88c.71-1.7,2-1.54,3.09-2.74s.73-2.33,2.82-3.11a6.11,6.11,0,0,1,4.92.25c3,1.32,8.45,4.32,11.55,1.72,1.67-1.4,1-3.42-.11-5.08-2.34-3.53-6-7.68-10.26-8.79a11.58,11.58,0,0,0-7.55.59c-1.86.87-2.46,3-4.28,3.91-2.08,1.08-4.18.41-2.76,3.39.4.84,1,1.22,1,2.41,0,.91-.09,1.68-1,2.14-2.42,1.24-5.74-.87-8.18.73v0c-1,.51-.91,1.48-.81,2.43A9.34,9.34,0,0,1,160.45,135.83Z"/><path class="cls-23" d="M134.37,96.8A85,85,0,0,0,85.2,112.36,75.06,75.06,0,1,1,59,222.52,85.44,85.44,0,1,0,134.37,96.8Z"/><path class="cls-15" d="M135.68,279.46v.21h-1.31c-1.91,0-3.8-.06-5.68-.18V290c1.88.1,3.77.15,5.68.15h1.31v36.5h4.37V279.46Z"/><path class="cls-24" d="M205.6,342.82H63.14v-8.74q72.11-21,142.46,0Z"/><path class="cls-25" d="M134.37,286A103.78,103.78,0,0,1,61.05,108.77l7.41,7.43A93.3,93.3,0,1,0,200.4,248.14l7.42,7.41A103.1,103.1,0,0,1,134.37,286Z"/><path class="cls-15" d="M134.92,323.59a29.39,29.39,0,0,1,14.52,10.49H63.14v8.74H205.6v-8.74A247,247,0,0,0,134.92,323.59Z"/><path class="cls-15" d="M40.63,178.73a93.9,93.9,0,0,0,1,13.39,95,95,0,0,1-.52-9.89,92.65,92.65,0,0,1,27.39-66l-1.95-2A92.67,92.67,0,0,0,40.63,178.73Z"/><path class="cls-15" d="M205.84,253.57A103.79,103.79,0,0,1,31.19,193.45a103.79,103.79,0,0,0,176.63,62.1Z"/><g class="cls-26"><path class="cls-27" d="M122.37,118c29.7,24.72-35.78,58.68-51.86,46C45.58,144.32,96.47,96.47,122.37,118Z"/><path class="cls-27" d="M70.48,177.08c23.3-1.59,15.09,30.5,3.91,30.94C57,208.7,52.22,178.33,70.48,177.08Z"/></g><path class="cls-28" d="M340.62,257.4l-96.33,95.77,192.1.56ZM340.54,284l51.39,51.69-103.08-.3Z"/><g class="cls-29"><polygon class="cls-30" points="349.15 272.36 348.73 271.94 351.92 268.77 352.34 269.18 349.15 272.36"/><polygon class="cls-30" points="351.74 274.96 351.33 274.55 354.52 271.38 354.93 271.79 351.74 274.96"/><polygon class="cls-30" points="357.66 280.91 357.25 280.5 360.44 277.32 360.85 277.73 357.66 280.91"/><polygon class="cls-30" points="360.26 283.52 359.85 283.1 363.03 279.93 363.45 280.34 360.26 283.52"/><polygon class="cls-30" points="366.18 289.46 365.76 289.05 368.95 285.87 369.36 286.29 366.18 289.46"/><polygon class="cls-30" points="368.77 292.07 368.36 291.66 371.55 288.48 371.96 288.9 368.77 292.07"/><polygon class="cls-30" points="374.69 298.01 374.28 297.6 377.46 294.43 377.88 294.84 374.69 298.01"/><polygon class="cls-30" points="377.29 300.62 376.87 300.21 380.06 297.03 380.48 297.45 377.29 300.62"/><polygon class="cls-30" points="383.2 306.57 382.79 306.15 385.98 302.98 386.39 303.39 383.2 306.57"/><polygon class="cls-30" points="385.8 309.18 385.39 308.76 388.58 305.59 388.99 306 385.8 309.18"/><polygon class="cls-30" points="391.72 315.12 391.31 314.71 394.49 311.53 394.91 311.94 391.72 315.12"/><polygon class="cls-30" points="394.32 317.73 393.9 317.31 397.09 314.14 397.5 314.55 394.32 317.73"/><polygon class="cls-30" points="400.3 323.74 399.89 323.33 403.08 320.15 403.49 320.57 400.3 323.74"/><polygon class="cls-30" points="402.9 326.35 402.49 325.94 405.68 322.76 406.09 323.18 402.9 326.35"/><polygon class="cls-30" points="408.85 332.33 408.44 331.92 411.63 328.74 412.04 329.16 408.85 332.33"/><polygon class="cls-30" points="411.45 334.94 411.04 334.53 414.23 331.35 414.64 331.77 411.45 334.94"/><polygon class="cls-30" points="417.54 341.06 417.13 340.65 420.32 337.47 420.73 337.89 417.54 341.06"/><polygon class="cls-30" points="420.14 343.67 419.73 343.26 422.91 340.08 423.33 340.5 420.14 343.67"/><polygon class="cls-30" points="343.56 272.11 343 271.55 348.87 265.7 349.43 266.27 343.56 272.11"/><polygon class="cls-30" points="352.11 280.7 351.55 280.14 357.42 274.29 357.98 274.86 352.11 280.7"/><polygon class="cls-30" points="360.66 289.29 360.1 288.73 365.97 282.88 366.53 283.44 360.66 289.29"/><polygon class="cls-30" points="369.21 297.88 368.65 297.31 374.52 291.47 375.08 292.03 369.21 297.88"/><polygon class="cls-30" points="377.76 306.47 377.2 305.9 383.07 300.06 383.63 300.62 377.76 306.47"/><polygon class="cls-30" points="386.31 315.06 385.75 314.49 391.62 308.65 392.18 309.21 386.31 315.06"/><polygon class="cls-30" points="394.86 323.65 394.3 323.08 400.18 317.24 400.74 317.8 394.86 323.65"/><polygon class="cls-30" points="403.41 332.24 402.85 331.67 408.73 325.83 409.29 326.39 403.41 332.24"/><polygon class="cls-30" points="411.96 340.82 411.4 340.26 417.27 334.42 417.83 334.98 411.96 340.82"/><polygon class="cls-30" points="420.51 349.41 419.96 348.85 425.82 343 426.38 343.57 420.51 349.41"/></g><path class="cls-31" d="M351.44,353.48c0-.79,0-3.28,0-7.57h0l-4.86,0,0-10.29-57.77-.17,43.92-43.67a5.73,5.73,0,0,0,.31-1.49l.07-24.55A6.63,6.63,0,0,0,333,265l-88.71,88.2Z"/><polygon class="cls-31" points="287.76 334.39 289.89 334.39 340.51 284.06 339.45 283 287.76 334.39"/><polygon class="cls-31" points="340.62 257.4 339.86 258.15 433.86 352.69 245.33 352.14 244.29 353.18 436.39 353.73 340.62 257.4"/><rect class="cls-32" x="334.81" y="335.73" width="57.2" height="1.37" transform="matrix(1, 0, 0, 1, 0.97, -1.05)"/><rect class="cls-33" x="40.74" y="341.8" width="2.57" height="6.86" transform="translate(88.25 0.54) rotate(14.58)"/><rect class="cls-34" x="41.99" y="341.96" width="1.31" height="6.86" transform="matrix(0.97, 0.25, -0.25, 0.97, 88.31, 0.39)"/><path class="cls-35" d="M49.4,353l-17.3-.05a2.49,2.49,0,0,1-2.49-2.51h0a2.49,2.49,0,0,1,2.51-2.49l17.3.05a2.49,2.49,0,0,1,2.49,2.51h0A2.49,2.49,0,0,1,49.4,353Z"/><path class="cls-36" d="M42.75,342.47h0a4.43,4.43,0,0,1-3.17-5.41l1-3.66a4.42,4.42,0,0,1,5.4-3.17h0a4.43,4.43,0,0,1,3.18,5.4l-1,3.66A4.45,4.45,0,0,1,42.75,342.47Z"/><path class="cls-34" d="M45.93,330.23a4.46,4.46,0,0,0-1.66-.1,7.86,7.86,0,0,1-2,.84,4.36,4.36,0,0,0-1.73,2.43l-.87,3.33a8.07,8.07,0,0,0,3.87,2.43,8.25,8.25,0,0,0,2.19.23,4.38,4.38,0,0,1-4.8,2,4.35,4.35,0,0,0,1.83,1.06,4.45,4.45,0,0,0,5.41-3.18l1-3.66A4.43,4.43,0,0,0,45.93,330.23Z"/><path class="cls-37" d="M44,337.64h0a8.25,8.25,0,0,1-5.91-10.05L83,155.07l16,4.14L54.06,331.73A8.25,8.25,0,0,1,44,337.64Z"/><path class="cls-31" d="M98.92,159.21l-16-4.14-1.7,6.54a18.24,18.24,0,0,0,7.5,7.09L48.48,323.63a8.25,8.25,0,0,1-10,5.9c-.21,0-.38-.15-.58-.21a8.24,8.24,0,0,0,16.21,2.41l41.88-161h0Z"/><path class="cls-34" d="M49.42,348l-6.92,0a2.5,2.5,0,1,1,0,5l6.91,0a2.5,2.5,0,0,0,0-5Z"/><path class="cls-34" d="M49.41,351.25l-17.3-.05a2.49,2.49,0,0,1-2.33-1.66,2.43,2.43,0,0,0-.17.85,2.49,2.49,0,0,0,2.49,2.51l17.3.05a2.5,2.5,0,0,0,2.51-2.49,2.34,2.34,0,0,0-.17-.85A2.47,2.47,0,0,1,49.41,351.25Z"/><g class="cls-38"><path class="cls-27" d="M31.3,349c-.31-.95,5.56-.72,5.77-.22C37.4,349.58,31.57,349.85,31.3,349Z"/><path class="cls-27" d="M37.81,349c-.1-.69,1.93-.53,2-.17C39.93,349.41,37.91,349.61,37.81,349Z"/></g><path class="cls-39" d="M157.12,345.78h0A8.22,8.22,0,0,1,147,340.13L145,333.38a8.22,8.22,0,0,1,5.65-10.17h0a8.22,8.22,0,0,1,10.17,5.65l1.93,6.75A8.23,8.23,0,0,1,157.12,345.78Z"/><path class="cls-40" d="M158.79,351.63h0a6,6,0,0,1-7.48-4.16l-1.42-5a6.06,6.06,0,0,1,4.16-7.48h0a6.06,6.06,0,0,1,7.49,4.16l1.41,5A6,6,0,0,1,158.79,351.63Z"/><path class="cls-41" d="M155.38,339.68h0A8.24,8.24,0,0,1,145.19,334L95.38,159.44l15.86-4.53,49.81,174.58A8.24,8.24,0,0,1,155.38,339.68Z"/><path class="cls-31" d="M161.05,329.49l-48-168.16h0l-1.83-6.42-15.86,4.53,3.2,11.21a18.2,18.2,0,0,0,8.7-3l45.11,158.12a8.24,8.24,0,0,1-5.66,10.19c-.21.06-.41.07-.62.11a8.23,8.23,0,0,0,14.94-6.54Z"/><path class="cls-42" d="M102.54,140.32l-10.83,0,.07-24.07a5.42,5.42,0,0,1,5.43-5.4h0a5.41,5.41,0,0,1,5.4,5.43Z"/><path class="cls-34" d="M97.21,110.82a4.49,4.49,0,0,0-.9.18,5.34,5.34,0,0,1,2.88,4.72l0,10.12a14.43,14.43,0,0,0-2-.19,18,18,0,0,0-5.42.89l0,13.23v.52l10.83,0,0-13.75,0-10.32A5.41,5.41,0,0,0,97.21,110.82Z"/><circle class="cls-43" cx="97.11" cy="147.67" r="18.36" transform="translate(-75.98 111.92) rotate(-45)"/><ellipse class="cls-31" cx="96.46" cy="147.12" rx="10.43" ry="10.53" transform="translate(-50.95 243.14) rotate(-89.83)"/><circle class="cls-44" cx="97.11" cy="147.67" r="9.88" transform="translate(-75.98 111.92) rotate(-45)"/><path class="cls-31" d="M100.18,129.62a17.16,17.16,0,1,1-21.14,21,18.33,18.33,0,1,0,21.14-21Z"/><g class="cls-38"><path class="cls-27" d="M97.45,140.74c3.7,3.1-4.48,7.31-6.48,5.72C87.86,144,94.23,138,97.45,140.74Z"/><path class="cls-27" d="M91,148.09c2.91-.19,1.87,3.81.47,3.86C89.27,152,88.68,148.24,91,148.09Z"/></g><path class="cls-45" d="M96.54,112.14c2.55,1.42-1.74,4.71-3.11,4C91.31,115,94.31,110.9,96.54,112.14Z"/><path class="cls-34" d="M97.14,137.79c-.12,0-.24,0-.35,0a9,9,0,1,1-9.41,9,10,10,0,0,1,.16-1.47,9.4,9.4,0,0,0-.31,2.32,9.88,9.88,0,1,0,9.91-9.85Z"/><path class="cls-46" d="M211.63,263.9l-90.77-.26L79.73,353.06l89,.26,42.65-86.38A4.14,4.14,0,0,0,211.63,263.9Z"/><path class="cls-47" d="M211.63,263.9l-90.77-.26L79.73,353.06l89,.26,42.65-86.38A4.14,4.14,0,0,0,211.63,263.9Z"/><path class="cls-13" d="M208.6,272.61l2.8-5.67a4.14,4.14,0,0,0,.23-3l-90.77-.26-4,8.7Z"/><path class="cls-48" d="M120.86,263.64l90.77.26a4.1,4.1,0,0,0-2.12-2.54L194,253.69a7,7,0,0,0-1.51-.4h-.26l-89.5-.26,0,16.66,15.39,0Z"/><g class="cls-49"><path class="cls-50" d="M120.86,263.64l90.77.26a4.1,4.1,0,0,0-2.12-2.54L194,253.69a3.47,3.47,0,0,0-1.77-.4l-89.5-.26Z"/></g><path class="cls-13" d="M139.37,261.15l-15.52-7.66a3.36,3.36,0,0,0-1.77-.4l-8.51,0a3.53,3.53,0,0,1,1.77.41l15.52,7.66a4.1,4.1,0,0,1,2.12,2.54l8.51,0A4.14,4.14,0,0,0,139.37,261.15Z"/><path class="cls-13" d="M202,261.33l-15.52-7.66a3.36,3.36,0,0,0-1.77-.4l-8.51,0a3.35,3.35,0,0,1,1.77.4l15.52,7.66a4.1,4.1,0,0,1,2.12,2.54l8.51,0A4.14,4.14,0,0,0,202,261.33Z"/><path class="cls-51" d="M76.79,348.4l-14.56-7.19L61,343.79l-4.22-2.08,42.65-86.38a4.16,4.16,0,0,1,5.58-1.89l15.52,7.66a4.16,4.16,0,0,1,1.89,5.58L79.73,353.06,75.51,351Z"/><path class="cls-52" d="M46.93,296.1h87.86a0,0,0,0,1,0,0v16.24a0,0,0,0,1,0,0H46.93a2.64,2.64,0,0,1-2.64-2.64v-11a2.64,2.64,0,0,1,2.64-2.64Z" transform="translate(401.97 358.61) rotate(116.28)"/><rect class="cls-52" x="45" y="297.25" width="87.95" height="16.24" transform="translate(-224.23 249.96) rotate(-63.72)"/><path class="cls-53" d="M104.83,261l9.76,4.82a2.67,2.67,0,0,1,1.22,3.58l-39,79-14.56-7.18,39-79A2.67,2.67,0,0,1,104.83,261Z"/><path class="cls-52" d="M103.15,267.81a2.68,2.68,0,0,1,3.59-1.22l8.39,4.15.68-1.38a2.67,2.67,0,0,0-1.22-3.58L104.83,261a2.67,2.67,0,0,0-3.58,1.21l-39,79L66,343.06Z"/><path class="cls-52" d="M109.67,267.79s-2,4.31-5.06,10.77l-11.4,23.56L81.44,325.51,76,336.07s2-4.31,5.06-10.77l11.41-23.56c4.28-8.5,8.55-17,11.76-23.38Z"/><path class="cls-52" d="M78.94,321.34s-.5,1.31-1.32,3.24-2,4.47-3.24,7-2.54,5-3.58,6.81-1.76,3-1.76,3,.5-1.31,1.32-3.25,2-4.46,3.24-7,2.54-5,3.58-6.81S78.94,321.34,78.94,321.34Z"/><path class="cls-52" d="M108.93,276.9s-1.52,3.29-3.79,8.23-5.47,11.44-8.66,18-6.48,13-9,17.79l-4.23,8s1.52-3.29,3.79-8.23,5.47-11.45,8.65-18,6.49-13,9-17.79Z"/><path class="cls-54" d="M134.2,288.94l.06-23h-4.08c0-4.42,0-6.67,0-6.67l187.93.54A5.92,5.92,0,0,1,324,265.7L324,290.24a5.92,5.92,0,0,1-5.93,5.89l-187.93-.54s0-2.27,0-6.67Z"/><path class="cls-52" d="M134.2,288.94l175.91.5a3.74,3.74,0,0,0,3.76-3.73l0-15.54a3.73,3.73,0,0,0-3.73-3.75l-175.91-.51Z"/><rect class="cls-52" x="169.76" y="230.52" width="23.03" height="94.08" transform="translate(-96.81 458.03) rotate(-89.83)"/><rect class="cls-53" x="169.76" y="230.52" width="23.03" height="94.08" transform="translate(-96.81 458.03) rotate(-89.83)"/><path class="cls-52" d="M223.61,280.41l-11.6.31c-7,.15-16.24.18-25.52.2s-18.56-.16-25.52-.35l-11.59-.38,11.6-.31c7-.15,16.23-.18,25.51-.2s18.56.16,25.52.35Z"/><path class="cls-52" d="M170,274.8s-2,.17-5,.33-6.94.21-10.91.24-7.93-.12-10.91-.3-5-.36-5-.36,2-.2,5-.34,6.94-.21,10.91-.24,7.93.13,10.91.31S170,274.8,170,274.8Z"/><path class="cls-52" d="M211.55,285.14s-3,.17-7.58.33-10.6.2-16.66.22-12.12-.13-16.66-.32-7.58-.37-7.58-.37,3-.19,7.58-.32,10.6-.2,16.66-.22,12.12.13,16.67.32S211.55,285.14,211.55,285.14Z"/><rect class="cls-52" x="178.69" y="221.62" width="5.23" height="94.08" transform="translate(-87.88 449.17) rotate(-89.83)"/><path class="cls-55" d="M318.13,259.77l-85.83-.25-.1,36.36,85.82.25a5.92,5.92,0,0,0,5.93-5.89L324,265.7A5.92,5.92,0,0,0,318.13,259.77Z"/><path class="cls-56" d="M318.13,259.77,233,259.53a5.92,5.92,0,0,1,5.9,5.92L238.86,290a5.91,5.91,0,0,1-5.92,5.9l85.08.24a5.92,5.92,0,0,0,5.93-5.89L324,265.7A5.92,5.92,0,0,0,318.13,259.77Z"/><path class="cls-56" d="M259,290.05l.07-24.54a5.89,5.89,0,0,0-5.89-5.92l-5.81,0a5.9,5.9,0,0,1,5.89,5.92L253.18,290a5.91,5.91,0,0,1-5.92,5.89h5.81A5.9,5.9,0,0,0,259,290.05Z"/><path class="cls-56" d="M314.4,290.21l.07-24.54a5.91,5.91,0,0,0-5.89-5.92l-5.81,0a5.91,5.91,0,0,1,5.89,5.92l-.07,24.55a5.91,5.91,0,0,1-5.92,5.89h5.81A5.9,5.9,0,0,0,314.4,290.21Z"/><path class="cls-56" d="M238.87,289.2V290a5.91,5.91,0,0,1-5.92,5.9l85.08.24a5.92,5.92,0,0,0,5.93-5.89v-.8Z"/><path class="cls-57" d="M141.85,255.11l0-14.12h-2.51c0-2.7,0-4.08,0-4.08l172,.49A3.63,3.63,0,0,1,315,241l0,15a3.63,3.63,0,0,1-3.63,3.62l-171.95-.5s0-1.39,0-4.09Z"/><path class="cls-52" d="M144.16,241.23H308.75a0,0,0,0,1,0,0v14.12a0,0,0,0,1,0,0H144.16a2.29,2.29,0,0,1-2.29-2.29v-9.53A2.29,2.29,0,0,1,144.16,241.23Z" transform="translate(449.9 497.23) rotate(-179.83)"/><rect class="cls-52" x="173.99" y="208.98" width="14.12" height="78.37" transform="translate(-67.63 428.5) rotate(-89.83)"/><rect class="cls-53" x="173.99" y="208.98" width="14.12" height="78.37" transform="translate(-67.63 428.5) rotate(-89.83)"/><path class="cls-52" d="M217.36,249.94l-10.35.17-22.76.11L161.5,250l-10.35-.23,10.35-.18,22.75-.1,22.76.24Z"/><path class="cls-52" d="M163.79,246.44s-1.21.12-3,.2l-6.69.15c-4.86,0-9.73-.41-9.73-.41s4.87-.39,9.74-.35l6.68.2C162.58,246.32,163.79,246.44,163.79,246.44Z"/><path class="cls-52" d="M210,252.84l-7.88.19-17.33.12c-12.6,0-25.2-.45-25.2-.45s12.6-.37,25.21-.31l17.33.23Z"/><rect class="cls-52" x="179.47" y="203.52" width="3.2" height="78.37" transform="translate(-62.16 423.07) rotate(-89.83)"/><path class="cls-58" d="M311.35,237.39l-88.66-.25-.07,22.29,88.66.26a3.63,3.63,0,0,0,3.63-3.62l0-15A3.63,3.63,0,0,0,311.35,237.39Z"/><path class="cls-31" d="M311.35,237.39l-88.21-.25a3.61,3.61,0,0,1,3.61,3.63l0,15a3.62,3.62,0,0,1-3.63,3.61l88.2.26a3.63,3.63,0,0,0,3.63-3.62l0-15A3.63,3.63,0,0,0,311.35,237.39Z"/><path class="cls-31" d="M239.05,255.85l0-15a3.64,3.64,0,0,0-3.62-3.64h-3.56a3.63,3.63,0,0,1,3.61,3.64l0,15a3.63,3.63,0,0,1-3.63,3.62h3.56A3.62,3.62,0,0,0,239.05,255.85Z"/><path class="cls-31" d="M248.7,255.88l.05-15a3.63,3.63,0,0,0-3.62-3.63h-3.56a3.62,3.62,0,0,1,3.61,3.63l0,15.05a3.62,3.62,0,0,1-3.63,3.61h3.56A3.61,3.61,0,0,0,248.7,255.88Z"/><path class="cls-31" d="M298.35,256l0-15a3.61,3.61,0,0,0-3.61-3.63l-3.56,0a3.63,3.63,0,0,1,3.61,3.64l0,15a3.63,3.63,0,0,1-3.64,3.61h3.57A3.63,3.63,0,0,0,298.35,256Z"/><path class="cls-31" d="M308,256.05l0-15a3.63,3.63,0,0,0-3.61-3.64h-3.56a3.62,3.62,0,0,1,3.61,3.64l0,15a3.64,3.64,0,0,1-3.64,3.62h3.57A3.63,3.63,0,0,0,308,256.05Z"/><path class="cls-31" d="M226.71,255.33v.49a3.62,3.62,0,0,1-3.63,3.61l88.2.26a3.63,3.63,0,0,0,3.63-3.62v-.49Z"/><path class="cls-59" d="M337.46,345.87l.13-42.27h4.87c0-5.25,0-7.94,0-7.94L118.58,295a7.05,7.05,0,0,0-7.06,7l-.12,44.07a7,7,0,0,0,7,7.06l223.9.65s0-2.7,0-7.94Z"/><path class="cls-60" d="M122,303.27H331.57a0,0,0,0,1,0,0v42.27a0,0,0,0,1,0,0H122a4.46,4.46,0,0,1-4.46-4.46V307.73a4.46,4.46,0,0,1,4.46-4.46Z" transform="translate(0.94 -0.65) rotate(0.17)"/><path class="cls-53" d="M337.46,345.87l-209.58-.61a4.47,4.47,0,0,1-4.45-4.47l.1-33.35A4.47,4.47,0,0,1,128,303l209.58.61Z"/><path class="cls-60" d="M342.46,303.61c0-5.25,0-7.94,0-7.94l-114.25-.33-.17,58.15,114.25.33s0-2.7,0-7.94h-4.87l.13-42.27Z"/><rect class="cls-52" x="260.35" y="268.53" width="42.27" height="112.08" transform="translate(-43.9 605.11) rotate(-89.83)"/><rect class="cls-52" x="260.35" y="268.53" width="42.27" height="112.08" transform="translate(-43.9 605.11) rotate(-89.83)"/><path class="cls-52" d="M229.29,303.29,128,303a4.47,4.47,0,0,0-4.47,4.45l0,6.32a4.46,4.46,0,0,1,4.47-4.45l101.29.29Z"/><path class="cls-52" d="M131.07,314.91s3-.26,7.39-.46c2.22-.06,4.8-.22,7.57-.24l8.69-.09,8.68.14c2.77,0,5.35.2,7.57.28,4.43.22,7.39.51,7.39.51s-3,.27-7.39.47c-2.22.06-4.81.22-7.58.24l-8.68.09-8.68-.14c-2.77,0-5.36-.21-7.57-.29C134,315.2,131.07,314.91,131.07,314.91Z"/><path class="cls-52" d="M145.08,337.77s4.33-.24,10.83-.46l11.1-.23,12.73-.08,12.72.15c4.06,0,7.85.22,11.1.3,6.5.25,10.83.52,10.83.52s-4.33.24-10.83.45c-3.25.06-7,.22-11.1.23l-12.73.08L167,338.58l-11.1-.3C149.41,338,145.08,337.77,145.08,337.77Z"/><path class="cls-52" d="M138.07,322.8s4.33-.23,10.83-.45l11.1-.23,12.73-.08,12.72.15c4.06,0,7.85.22,11.1.3,6.5.25,10.83.51,10.83.51s-4.34.25-10.83.46c-3.25.06-7,.22-11.1.23l-12.73.08L160,323.62l-11.1-.3C142.4,323.07,138.07,322.8,138.07,322.8Z"/><path class="cls-61" d="M231,332.18s5.53-.29,13.82-.5l14.17-.26,16.23-.09,16.24.18c5.18.05,10,.25,14.16.34,8.29.26,13.82.59,13.82.59s-5.53.3-13.82.51c-4.15.07-9,.24-14.16.26l-16.24.08L259,333.11l-14.16-.34C236.54,332.51,231,332.18,231,332.18Z"/><path class="cls-61" d="M295,313.94s2.36-.19,5.91-.34,8.27-.21,13-.24,9.45.13,13,.32,5.91.37,5.91.37-2.36.2-5.91.35-8.27.21-13,.24-9.45-.14-13-.32S295,313.94,295,313.94Z"/><path class="cls-61" d="M248.66,339.58s3.61-.24,9-.42,12.64-.25,19.86-.29,14.44.17,19.85.41,9,.47,9,.47-3.61.24-9,.42-12.64.25-19.86.28-14.43-.17-19.85-.4S248.66,339.58,248.66,339.58Z"/><path class="cls-61" d="M250.37,321.32s3.61-.24,9-.41,12.63-.26,19.85-.29,14.44.17,19.86.4,9,.47,9,.47-3.61.25-9,.42-12.63.25-19.85.29-14.44-.18-19.85-.41S250.37,321.32,250.37,321.32Z"/><rect class="cls-61" x="278.42" y="250.51" width="6.23" height="112.08" transform="translate(-25.83 587.2) rotate(-89.83)"/><path class="cls-62" d="M247.57,149.55c-10,6.14-11.66,15.22-14.5,29.49-2.28,11.44-2.77,22.2-.07,26.72,5,8.47,31.38,6.6,40.07,6.32l2.63-7.91s-14.14-5.94-24.18-11.17C251.48,193,256.11,153.83,247.57,149.55Z"/><path class="cls-63" d="M247.57,149.55c-10,6.14-11.66,15.22-14.5,29.49-2.28,11.44-2.77,22.2-.07,26.72,5,8.47,31.38,6.6,40.07,6.32l2.63-7.91s-14.14-5.94-24.18-11.17C251.48,193,256.11,153.83,247.57,149.55Z"/><path class="cls-64" d="M278.88,272.57l-5.77,3.28c.74,4,1.49,10.63,2,14.75.44,3,3.79,1,3.82-.42C278.66,287.71,278.71,277.78,278.88,272.57Z"/><path class="cls-65" d="M275.06,291.08l-.46,4.09,13.3,0c.12-1.18-2-1.65-4.69-2.6a13,13,0,0,1-4.28-2.42C277.41,293.27,275.93,293.64,275.06,291.08Z"/><polygon class="cls-66" points="287.91 294.78 274.56 294.75 274.54 295.47 288.01 295.51 287.91 294.78"/><path class="cls-67" d="M275.11,290.6s-.45-.07-.5.18-.05,4-.05,4l7.37,0-.11-2.42a6.89,6.89,0,0,0-1.18-1c-.83-.55-.9-1.33-1.41-1.41s-2,1.75-2.84,1.79S275.11,290.6,275.11,290.6Z"/><path class="cls-68" d="M216.72,208.51c0,6.52-.31,20.37,3.18,28.67l63.72.19s2.81-18.12-2.2-22.15-35.09-6.88-35.09-6.88Z"/><path class="cls-69" d="M281.78,215.72c6.36,5.2-.14,47.36-.58,72.45l-10.73,0s-6.5-34.44-6.28-50.84C264.42,220.24,275.42,210.52,281.78,215.72Z"/><path class="cls-70" d="M269.59,231.85c-1.86-2-4-1.1-9.65-1.12,0,0-.13,2.56-.34,6.57h4.59c-.22,16.41,6.28,50.83,6.28,50.83H274C269.53,261.17,271.44,233.87,269.59,231.85Z"/><path class="cls-70" d="M283.13,218a6.28,6.28,0,0,0-1.71-2.73c-3.65-2.94-20.63-5.25-29.56-6.28-.64,6.52-1.67,19.48-2.35,28.33l14.68,0s.89-5,2.3-10.14C269.87,214.79,279.66,214.89,283.13,218Z"/><path class="cls-71" d="M198.66,208.45a62.29,62.29,0,0,0,4.14,28.69l59.91.17s4.08-18-.92-22-33.53-7-33.53-7Z"/><path class="cls-72" d="M254.1,272.5l-6,3.28c.36,4,.47,10.62.58,14.74.15,3,3.7,1,3.86-.42C252.54,287.63,253.42,277.71,254.1,272.5Z"/><path class="cls-73" d="M248.61,291l-.85,4.08,13.3,0c.23-1.19-1.85-1.65-4.44-2.6a11.52,11.52,0,0,1-4.05-2.43C250.76,293.19,249.24,293.56,248.61,291Z"/><polygon class="cls-66" points="261.11 294.71 247.77 294.67 247.67 295.39 261.14 295.43 261.11 294.71"/><path class="cls-74" d="M248.71,290.52s-.44-.07-.52.19-.42,4-.42,4l7.36,0,.13-2.42a5.64,5.64,0,0,0-1.09-.94c-.78-.56-.77-1.33-1.27-1.42s-2.2,1.76-3,1.8S248.71,290.52,248.71,290.52Z"/><path class="cls-75" d="M262.24,215.74c5.94,5.21-4.76,47.27-7.89,72.35l-11,0s-3-34.43-1-50.83C244.4,220.18,256.31,210.54,262.24,215.74Z"/><path class="cls-76" d="M226.86,134.33s-6.43-5-5.64-16.73c.76-11.27,3.05-13.58,7.24-14.95,3.13-1,9.28,5.46,9.28,5.46Z"/><path class="cls-77" d="M262.83,237.9c3.6-18.26-.12-21.88-1-22.62-5-4-33.53-7-33.53-7l-17.7.1-12,1.93a62.48,62.48,0,0,0,4.21,26.82l39.53.11c-2,16.41,1.06,50.81,1.06,50.81h3.93c-4.26-20.2,2.15-54-.14-56-5-4.34-32.38,2.48-32.36-7.35,0-7.49,13-9.14,25.5-8.91C252.59,216.06,265.33,213.36,262.83,237.9Z"/><path class="cls-78" d="M236.7,110.34s-5.63,2.62-10.76-.41c-2.31-1.36-1.89-3.55-.8-5.53-2.13,1.87-3.39,5.37-3.92,13.2-.79,11.76,5.64,16.73,5.64,16.73l9.74-23.47Z"/><path class="cls-79" d="M207.29,147.66c6-5.64,21.28-3.63,25.72-2.93a44.16,44.16,0,0,1,14.56,4.82c2.76,1.44,3.7,11.53,1.81,21.49-1.75,9.17-6.33,17.35-6.88,23.7-.78,9,2.54,13.61,2.54,13.61-22,.33-37.5,9.9-47.18,5.84-.3-5.66-1.79-25.35-.8-34.59C198.33,167.63,201.33,153.24,207.29,147.66Z"/><path class="cls-63" d="M233,144.73a68.15,68.15,0,0,0-14.18-.79,16.27,16.27,0,0,0,9.36,8.18c8.39,2.67,13.69-.12,15.67-4.27A43.94,43.94,0,0,0,233,144.73Z"/><path class="cls-63" d="M242.5,194.74c.41-4.78,3.1-10.58,5.16-17.07-3.82,1.11-9.53,2-18.08,2.08a65.56,65.56,0,0,1-17.74-2.21c-1.3-.33-1.52-10.64-1.52-10.64s-10.83,6.2-12.26,5.3c-.4,2.5-.75,5-1,7.4-1,9.24.5,28.93.8,34.59,9.68,4.06,25.22-5.51,47.18-5.84C245,208.35,241.72,203.77,242.5,194.74Z"/><path class="cls-80" d="M226.19,126.36s1.14,10.82-2.7,17.26c-.89,1.63,11.36,3.76,16.41,2.72,0,0-1-1.24-.13-6.32C240.17,137.7,226.19,126.36,226.19,126.36Z"/><path class="cls-81" d="M239.75,146.12s1.13.52,2.37,1c0,0-1.74,4.87-9.14,4-8.89-1-11.92-7.32-11.92-7.32l3.61-.13Z"/><path class="cls-82" d="M226.53,149.13a29.23,29.23,0,0,0,12.89-4.87,19.5,19.5,0,0,1,.35-4.24c.4-2.32-13.58-13.66-13.58-13.66s1.14,10.82-2.7,17.26h0l-2.43.17S222.32,146.71,226.53,149.13Z"/><path class="cls-83" d="M226.89,119.93c-2.68-1-4.76,2.27-4.26,4.62a5.41,5.41,0,0,0,4.9,4.21C228.69,127.67,228.57,121.05,226.89,119.93Z"/><path class="cls-84" d="M226.32,122.14c-1.46-.43-2.45,1.36-2.11,2.56a2.85,2.85,0,0,0,2.75,2C227.18,126.49,227,122.48,226.32,122.14Z"/><path class="cls-85" d="M226.89,119.93c-2.68-1-4.76,2.27-4.26,4.62a5.41,5.41,0,0,0,4.9,4.21C228.69,127.67,228.57,121.05,226.89,119.93Z"/><path class="cls-86" d="M228.76,118.06c1.06-4.92,3.87-9.77,11.86-10.26,8.9-.55,13.69,4.23,13.77,10.06,0,1.91-.72,6.11-2.94,13-2.13,6.6-5.65,14.39-13,13.67-3-.31-11.22-3.24-10.88-15.48C227.58,129.05,227,126.08,228.76,118.06Z"/><path class="cls-85" d="M230.84,130.14a63.11,63.11,0,0,1,4.81-19.28L231,112.57a15,15,0,0,0-2.26,5.49c-1.73,8-1.18,11-1.18,11-.34,12.24,7.84,15.17,10.88,15.48C234.56,143.23,230.09,139.09,230.84,130.14Z"/><path class="cls-87" d="M237.69,123.43c-.42.88-.26,1.73.35,1.91s1.44-.38,1.86-1.25.26-1.72-.35-1.91S238.11,122.56,237.69,123.43Z"/><path class="cls-87" d="M248.08,126.57c-.4.84-.29,1.64.24,1.8s1.29-.39,1.69-1.22.29-1.64-.25-1.8S248.47,125.74,248.08,126.57Z"/><path class="cls-84" d="M242.85,133.45a2.69,2.69,0,0,0,.81.29,4.2,4.2,0,0,0,2.19-.21,3.88,3.88,0,0,0,1.34-.82,2.39,2.39,0,0,0,.74-1.91,2.75,2.75,0,0,0-.33-1.05,2.93,2.93,0,0,0-.63-.81,2.75,2.75,0,0,0-1.88-.51c-.29,0-.46-.25-.65-.74a2,2,0,0,1,0-1.27,7.59,7.59,0,0,1,1.18-2.44,7.35,7.35,0,0,1,1.8-2,.39.39,0,0,0,.12-.53.36.36,0,0,0-.47-.15h0a7.78,7.78,0,0,0-2.25,2,8.74,8.74,0,0,0-1.44,2.8,3.32,3.32,0,0,0,0,2,2.07,2.07,0,0,0,1.56,1.54c.76.07,1,0,1.26.26a1.65,1.65,0,0,1,.35.5,1.52,1.52,0,0,1,.18.5c.14.63-.6,1.23-1.24,1.57a4.85,4.85,0,0,1-1.73.45,1.64,1.64,0,0,1-.67-.09.29.29,0,0,0-.37.18.33.33,0,0,0,.09.34Z"/><path class="cls-88" d="M248.9,119.57c-.48.77,1,1.66,2.32,3s1.72,2.39,2.23,2,1.2-1.87-.77-4.12C251.39,119,249.62,118.43,248.9,119.57Z"/><path class="cls-89" d="M243.37,118.06c0,.91-2.16.72-4.48,1.06s-3.54,1-3.86.43,0-2.29,3.64-3C241.06,116.1,243.33,116.71,243.37,118.06Z"/><path class="cls-90" d="M240.63,108.47c-9.92,2.19-9.57,16.3-11.74,16.11-1.26-.11-1.66-3.48-1.2-6.06.6-3.43,2.17-8.57,5.33-10.47C234.27,107.29,239.6,107.83,240.63,108.47Z"/><path class="cls-87" d="M245.41,137.43A30.2,30.2,0,0,1,236,132.8s.6,4.12,3.27,5.59C242.51,140.16,245.41,137.43,245.41,137.43Z"/><path class="cls-91" d="M243.47,137.27a29.14,29.14,0,0,1-6.64-3.41s.54,2.77,2.53,3.87A3.42,3.42,0,0,0,243.47,137.27Z"/><path class="cls-78" d="M230.1,111.31a22.88,22.88,0,0,0-2.41,7.21c-.46,2.58-.06,6,1.2,6.06,1.81.16,1.87-9.61,7.57-14.14A10.49,10.49,0,0,1,230.1,111.31Z"/><path class="cls-92" d="M227.78,103.17c-.15-3.11,3.44-5.75,9.56-5.11,7.7.81,6.42,4.17,14.11,3.15,4.49-.59,3.27,6.52,7.28,5.91,6.24-1,4.94,4.35,3,4.4,0,0,.25-1-.62-1.09-2.24-.27-.56,7.62-6.94,9.94,0,0,1.15-8.71-5.74-10.92-6.15-2-10.35-.18-10.35-.18S227.93,106.13,227.78,103.17Z"/><path class="cls-78" d="M261.54,108.64c-1.79-.79-4.05,1.46-6.54,1.22s-1.23-3.74-4-4.6-10.75,3.08-17.43,1.9c-4.9-.87-5.28-4.43-4.81-6.74a3.9,3.9,0,0,0-1,2.57c-.53,3.91,6.92,6.21,10.24,6.28,0,0,4.2-1.78,10.35.18,6.89,2.21,5.74,10.92,5.74,10.92,6.38-2.32,4.7-10.21,6.94-9.94.87.1.62,1.09.62,1.09A1.56,1.56,0,0,0,261.54,108.64Z"/><path class="cls-93" d="M231.62,209.46c-4.76.22-10.48-.16-10.48-.16l1-7.61s8,1.54,10.58,1.81S231.62,209.46,231.62,209.46Z"/><path class="cls-94" d="M245.88,208.4a.53.53,0,0,0,.43,0c.8-.52-.57-2.3-1.8-3.52a6.25,6.25,0,0,0-4.95-1.51,44.28,44.28,0,0,1-7,.12s-2.49,4.94-.93,6a27.06,27.06,0,0,0,4.55.43c1.84,0,2.94.18,3.54.65s1.7,2,2.51,1.53c.46-.28-.51-1.84-1.45-2.73-.41-.39-.94-.78-1.43-1.16a2.83,2.83,0,0,0,.28-.2,9.94,9.94,0,0,1,2.11,1.43c.9.93,2.26,3.05,3.08,2.55.61-.38-.54-2.31-1.78-3.52-.56-.55-1.26-1.16-1.88-1.68.06-.06.12-.11.17-.17a19.21,19.21,0,0,1,2.13,1.44c.63.57,2.28,3.32,3,2.72C246.82,210.47,246.6,209.41,245.88,208.4Z"/><path class="cls-95" d="M239.75,209.51c-1.33-1-4.18-.61-7-1.32-2.39-.6-2.22-3.92-2.2-5-1.16-.19-2.54-.36-3.87-.64l-1.19,6.94c1.87.1,4.06.06,6.1,0a27.06,27.06,0,0,0,4.55.43c1.84,0,2.94.18,3.54.65s1.65,1.94,2.46,1.53A30.27,30.27,0,0,0,239.75,209.51Z"/><path class="cls-96" d="M239.84,203.35a8.35,8.35,0,0,1,2.13.77,14.71,14.71,0,0,1,3.91,4.28.53.53,0,0,0,.43,0c.8-.52-.57-2.3-1.8-3.52A6.16,6.16,0,0,0,239.84,203.35Z"/><path class="cls-97" d="M293.69,213.8l-47.75-.14a1,1,0,0,1-.95-1V212a1,1,0,0,1,.95-1l47.76.14a1,1,0,0,1,1,1v.64A1,1,0,0,1,293.69,213.8Z"/><path class="cls-98" d="M293.54,211.21l-46.84-.13c-.81,0-1.61-.75-1.49-1.41l6.48-37.88a.76.76,0,0,1,.84-.59l46.84.13c.81,0,1.61.75,1.49,1.41l-6.48,37.88A.77.77,0,0,1,293.54,211.21Z"/><path class="cls-99" d="M294.62,211.21l-46.84-.13c-.81,0-1.6-.75-1.49-1.41l6.48-37.88a.77.77,0,0,1,.84-.59l46.84.13c.81,0,1.61.75,1.49,1.41l-6.48,37.88A.76.76,0,0,1,294.62,211.21Z"/><path class="cls-100" d="M270.8,191.2a2.58,2.58,0,0,0,2.81,2.94,3.86,3.86,0,0,0,3.82-2.92,2.58,2.58,0,0,0-2.81-2.95A3.88,3.88,0,0,0,270.8,191.2Z"/><path class="cls-100" d="M246.67,207.47c-.11.66.68,1.41,1.49,1.41L295,209a.76.76,0,0,0,.83-.57l-.37,2.18a.76.76,0,0,1-.84.59l-46.84-.13c-.81,0-1.6-.75-1.49-1.41Z"/><path class="cls-101" d="M247.63,210.58l53.17-37.84a.75.75,0,0,0-.8-.56l-45.19-.13c-.79,0-1.56.72-1.45,1.36L247.1,210A.67.67,0,0,0,247.63,210.58Z"/><path class="cls-102" d="M290.42,213.79h-5.8a4.56,4.56,0,0,0,0-2.59h5.81A4.17,4.17,0,0,1,290.42,213.79Z"/><path class="cls-102" d="M290.65,213.79h-5.8a4.56,4.56,0,0,0,0-2.59h5.81A4.1,4.1,0,0,1,290.65,213.79Z"/><path class="cls-103" d="M285,211.74a3.61,3.61,0,0,0-.12-.55h5.81a3.78,3.78,0,0,1,.13.56Z"/><path class="cls-100" d="M290.82,213a3.63,3.63,0,0,1-.17.78h-5.8A5.49,5.49,0,0,0,285,213Z"/><path class="cls-102" d="M255.36,213.69l-5.81,0a4.65,4.65,0,0,0,0-2.59l5.81,0A4.17,4.17,0,0,1,255.36,213.69Z"/><path class="cls-102" d="M255.59,213.69l-5.81,0a4.65,4.65,0,0,0,0-2.59l5.81,0A4.17,4.17,0,0,1,255.59,213.69Z"/><path class="cls-103" d="M249.91,211.64c0-.18-.07-.37-.12-.56l5.81,0a3.78,3.78,0,0,1,.13.56Z"/><path class="cls-100" d="M255.76,212.91a5.44,5.44,0,0,1-.17.78l-5.81,0a4.13,4.13,0,0,0,.15-.78Z"/><path class="cls-104" d="M245.41,213.66l-27.35-.08a1,1,0,0,1-.95-1v-.65a1,1,0,0,1,.95-1l27.35.08a1,1,0,0,1,1,1v.64A1,1,0,0,1,245.41,213.66Z"/><rect class="cls-105" x="219.81" y="211.87" width="5.37" height="0.75" rx="0.25" transform="translate(0.62 -0.64) rotate(0.17)"/><rect class="cls-105" x="226.45" y="211.89" width="5.37" height="0.75" rx="0.25" transform="translate(0.62 -0.66) rotate(0.17)"/><path class="cls-105" d="M244.54,212.3a.69.69,0,1,1-.68-.68A.68.68,0,0,1,244.54,212.3Z"/><path class="cls-106" d="M210.73,145.53c-11.37,2.91-16.14,15.2-20.51,29.07-3.5,11.13-4.59,23.88-1.95,28.43,5,8.52,30.07,8.05,38.76,7.86a13.41,13.41,0,0,0,2.71-8.29s-16-5.71-26.29-10.32a82,82,0,0,1,3.16-13.86C209.4,169,217.9,148.12,210.73,145.53Z"/><path class="cls-107" d="M226.06,201.26A17,17,0,0,1,223,211c1.56,0,2.93,0,4-.07a13.41,13.41,0,0,0,2.71-8.29S228.31,202.09,226.06,201.26Z"/><path class="cls-63" d="M190.93,200.18c-4.21-7.1,4.15-44.76,16.06-53.22-8.73,4.42-12.91,15.4-16.77,27.64-3.5,11.13-4.59,23.88-1.95,28.43,5,8.52,30.07,8.05,38.76,7.86a12.54,12.54,0,0,0,1.9-3.46C219.46,207.36,195.65,208.16,190.93,200.18Z"/><path class="cls-63" d="M217.69,147.81a17.55,17.55,0,0,0,2.89,2.87A21.16,21.16,0,0,0,224,153a18.67,18.67,0,0,0,4.36,1.75,21.61,21.61,0,0,0,4.63.76,31.59,31.59,0,0,0,4.14-.15,28.17,28.17,0,0,0,2.93-.42l1.11-.19-1.07.35a17.63,17.63,0,0,1-2.89.81,18.84,18.84,0,0,1-9.12-.21,19.37,19.37,0,0,1-4.52-2,16.85,16.85,0,0,1-3.36-2.63A14.32,14.32,0,0,1,217.69,147.81Z"/><g class="cls-38"><path class="cls-2" d="M210.32,166.9l-15.85-4.12c-1.05,2.47-2,5.08-2.94,7.81l16.22,4.22C208.53,172.42,209.44,169.71,210.32,166.9Z"/><path class="cls-2" d="M206.36,179.29l-16.27-4.23c-.33,1.09-.65,2.2-.94,3.32l16.29,4.23C205.71,181.58,206,180.48,206.36,179.29Z"/></g><path class="cls-108" d="M135.25,290.12c0-2.89,9.88-8.39,13.91-16.69,3.58-7.36,4.94-21.45,4.86-32.27H104.83c.07,10.72,1.45,24.85,5.37,32,4.74,8.71,13.39,14.5,13.39,16.92s-10.8,8.76-15.07,18.85c-3,7.16-3.77,27-3.69,36.54H154c-.13-9.8-1.05-29.06-3.92-35.72C145.75,299.7,135.25,293,135.25,290.12ZM107.6,342.73c.07-10.61,1-26.85,3.47-32.69,2.39-5.63,7.11-10.08,10.57-13.34,3-2.86,4.72-4.45,4.72-6.58s-1.79-4-4.77-7.09-6.49-6.64-9-11.16c-3.29-6-4.72-17.91-5-27.94h43.58c-.15,10.11-1.56,22.11-4.56,28.29-2,4.15-5.8,7.66-8.85,10.47-3.22,3-5.34,4.94-5.34,7.43,0,2.33,1.91,4.28,5.06,7.5s7.68,7.85,10,13.27c2.13,5,3.34,19.43,3.63,31.84Z"/><path class="cls-109" d="M107.6,342.73c.07-10.61,1-26.85,3.47-32.69,2.39-5.63,7.11-10.08,10.57-13.34,3-2.86,4.72-4.45,4.72-6.58s-1.79-4-4.77-7.09-6.49-6.64-9-11.16c-3.29-6-4.72-17.91-5-27.94h43.58c-.15,10.11-1.56,22.11-4.56,28.29-2,4.15-5.8,7.66-8.85,10.47-3.22,3-5.34,4.94-5.34,7.43,0,2.33,1.91,4.28,5.06,7.5s7.68,7.85,10,13.27c2.13,5,3.34,19.43,3.63,31.84Z"/><rect class="cls-110" x="102.85" y="342.73" width="53.14" height="11.09" rx="1.76"/><rect class="cls-111" x="102.85" y="232.91" width="53.14" height="11.09" rx="1.76"/><path class="cls-34" d="M154.31,342.73H135.12v2a1.78,1.78,0,0,1-1.69,1.85H102.85V352a1.76,1.76,0,0,0,1.68,1.84h49.78A1.76,1.76,0,0,0,156,352v-7.4A1.77,1.77,0,0,0,154.31,342.73Z"/><path class="cls-34" d="M154.31,232.91H104.53a1.76,1.76,0,0,0-1.68,1.84v5.32h30.58a1.77,1.77,0,0,1,1.69,1.84V244h19.19a1.76,1.76,0,0,0,1.68-1.84v-7.4A1.76,1.76,0,0,0,154.31,232.91Z"/><rect class="cls-112" x="100.32" y="348.15" width="58.2" height="5.67" rx="1.32"/><path class="cls-34" d="M157.26,348.15H136.39a1.33,1.33,0,0,1,1.26,1.38v2.91a1.33,1.33,0,0,1-1.26,1.38h20.87a1.32,1.32,0,0,0,1.26-1.38v-2.91A1.32,1.32,0,0,0,157.26,348.15Z"/><rect class="cls-113" x="100.32" y="232.91" width="58.2" height="5.67" rx="1.32"/><path class="cls-56" d="M135.25,290.12c0-2.89,9.88-8.39,13.91-16.69,3.58-7.36,4.94-21.45,4.86-32.27H104.83c0,2.26.09,4.68.23,7.16h30.6s1.53,18.06-2.08,28.87c-2.55,7.63-3.93,10.45-3.93,13.85s7.87,8.57,6.9,54.47H154c-.13-9.8-1.05-29.06-3.92-35.72C145.75,299.7,135.25,293,135.25,290.12Z"/><path class="cls-34" d="M157.26,232.91H136.39a1.33,1.33,0,0,1,1.26,1.38v2.91a1.33,1.33,0,0,1-1.26,1.38h20.87a1.32,1.32,0,0,0,1.26-1.38v-2.91A1.32,1.32,0,0,0,157.26,232.91Z"/><path class="cls-114" d="M137.82,282.69c3.05-2.81,6.83-6.32,8.85-10.47a41.55,41.55,0,0,0,2.94-10.28H109.49a36.07,36.07,0,0,0,3.15,9.93c2.46,4.52,6.06,8.2,9,11.16s5.41,5.35,6.46,6.91c1.33,2,1.73,1.79,2.88,0A51.47,51.47,0,0,1,137.82,282.69Z"/><path class="cls-115" d="M149.17,264.14c.15-.72.3-1.44.44-2.2H109.49c.14.76.31,1.48.48,2.2Z"/><path class="cls-116" d="M108.07,329.39c-.13,2.48-.44,9.4-.47,13.34h43.59c-.1-4.36-.36-9.93-.65-13.34-9.69-.12-15.58-6-20.95-6S117.12,329.44,108.07,329.39Z"/><path class="cls-115" d="M130.39,324.78c5.34,0,12.87,5.77,20.15,4.61-8.65.19-15.58-6-20.95-6s-12.47,6.06-21.52,6c0,.4,0,1-.08,1.58C117.38,330.85,124.78,324.78,130.39,324.78Z"/><path class="cls-117" d="M143.54,261.94a29,29,0,0,1-1.88,5.68c-7.38,15.21-20.41,17.87-30.29-.3a22,22,0,0,1-1.52-3.71,32.88,32.88,0,0,0,2.79,8.26c2.46,4.52,6.06,8.2,9,11.16s5.41,5.35,6.46,6.91c1.33,2,1.73,1.79,2.88,0a51.47,51.47,0,0,1,6.89-7.25c3.05-2.81,6.83-6.32,8.85-10.47a41.55,41.55,0,0,0,2.94-10.28Z"/><path class="cls-117" d="M150.54,329.39c-8.44,0-14.81-5.28-19.92-5.94,2.84,1.15,4.69,2.71,4.69,4.82,0,4.36-6.9,6.62-14.14,6.62-8,0-12.77-2.9-13-5.58h-.08c-.13,2.49-.44,9.45-.47,13.41h43.59C151.09,338.35,150.77,332.68,150.54,329.39Z"/><circle class="cls-118" cx="129.42" cy="295.75" r="1.3"/><circle class="cls-118" cx="129.85" cy="320" r="1.3"/><path class="cls-118" d="M131.73,304.93a.92.92,0,1,1-.92-.92A.92.92,0,0,1,131.73,304.93Z"/><path class="cls-118" d="M128,300.17a.7.7,0,1,1-.69-.69A.69.69,0,0,1,128,300.17Z"/><circle class="cls-118" cx="130.03" cy="315.85" r="0.69"/><path class="cls-118" d="M132.89,322.26a.7.7,0,1,1-.7-.7A.69.69,0,0,1,132.89,322.26Z"/><path class="cls-118" d="M127.34,322.69a.69.69,0,1,1-.69-.69A.69.69,0,0,1,127.34,322.69Z"/><circle class="cls-118" cx="131.33" cy="298" r="0.69"/><path class="cls-118" d="M130.2,307.44a.69.69,0,0,1-.69.7.7.7,0,1,1,0-1.39A.69.69,0,0,1,130.2,307.44Z"/><g class="cls-119"><path class="cls-120" d="M129.5,294.46a1.19,1.19,0,0,1,.95,1.16,1.2,1.2,0,0,1-2.25.58,1.3,1.3,0,1,0,1.3-1.74Z"/><path class="cls-120" d="M130.3,318.78a1.2,1.2,0,0,1-.67,2.19,1.19,1.19,0,0,1-1-.56,1.3,1.3,0,1,0,1.68-1.63Z"/><path class="cls-120" d="M131,304a.85.85,0,1,1-1,1.3.91.91,0,0,0,.83.52A.92.92,0,0,0,131,304Z"/><path class="cls-120" d="M127.36,299.49a.63.63,0,0,1,.37.57.64.64,0,0,1-.63.64.6.6,0,0,1-.43-.17.68.68,0,0,0,.59.33.69.69,0,0,0,.69-.69A.68.68,0,0,0,127.36,299.49Z"/><path class="cls-120" d="M130.27,315.2a.63.63,0,0,1,.26.51.64.64,0,0,1-.64.64.66.66,0,0,1-.51-.26.69.69,0,1,0,.89-.89Z"/><path class="cls-120" d="M132.44,321.61a.63.63,0,0,1-.43,1.1.61.61,0,0,1-.46-.2.68.68,0,0,0,.64.44.69.69,0,0,0,.25-1.34Z"/><path class="cls-120" d="M127,322.08a.65.65,0,0,1,.18.44.64.64,0,0,1-.64.64.63.63,0,0,1-.54-.3.68.68,0,0,0,.67.52.69.69,0,0,0,.33-1.3Z"/><path class="cls-120" d="M131.45,297.32a.64.64,0,0,1-.28,1.21.69.69,0,0,1-.44-.17.69.69,0,1,0,.72-1Z"/><path class="cls-120" d="M129.87,306.85a.66.66,0,0,1,.15.41.64.64,0,0,1-.64.64.63.63,0,0,1-.55-.32.69.69,0,0,0,1.37-.14A.7.7,0,0,0,129.87,306.85Z"/></g><path class="cls-121" d="M123.7,302.07c7,3.15-5.66,16.52-9.46,15C108.35,314.65,117.54,299.33,123.7,302.07Z"/><path class="cls-45" d="M103.11,350.38c0,2,27.24,1,27.25-.11S103.12,348.36,103.11,350.38Z"/><path class="cls-45" d="M103.11,235.36c0,2,27.24,1,27.25-.12S103.12,233.34,103.11,235.36Z"/><g class="cls-122"><path class="cls-27" d="M114.55,250.61c7.7-.67,6.68,17.32,2.77,18.59C112.1,270.89,108.29,251.14,114.55,250.61Z"/><path class="cls-27" d="M118.8,271.61c3.71-2.35,8.81,8.22,7,9.25C122.9,282.45,115.9,273.46,118.8,271.61Z"/></g></g></g></g></svg>