<svg xmlns="http://www.w3.org/2000/svg" viewBox="0 0 337.52 326.26"><defs><style>.cls-1{isolation:isolate;}.cls-2{fill:#e03c03;}.cls-3{fill:#ff6224;}.cls-4{fill:#ffc947;}.cls-5{fill:#20c3c5;}.cls-6{fill:#fff;}.cls-7{fill:#383873;}.cls-8{fill:#86bfbc;}.cls-9{fill:#b8e3e2;}.cls-10{fill:#9fccc9;}.cls-11,.cls-20,.cls-21{fill:none;stroke:#000;stroke-linecap:round;stroke-miterlimit:10;stroke-width:0.82px;}.cls-11,.cls-17{opacity:0.15;}.cls-11,.cls-14,.cls-17,.cls-19,.cls-22{mix-blend-mode:overlay;}.cls-12{fill:#382424;}.cls-13{fill:#ffad94;}.cls-14,.cls-19{opacity:0.25;}.cls-15{fill:#0c2059;}.cls-16{fill:#2e4780;}.cls-18{fill:#169799;}.cls-21{stroke-dasharray:4.15 4.15;}.cls-22{opacity:0.53;}.cls-23{fill:#eaf9f8;}</style></defs><g class="cls-1"><g id="Layer_2" data-name="Layer 2"><g id="OBJECTS"><path class="cls-2" d="M225.71,313.33a1.25,1.25,0,0,1-1-.46l-95.3-118.5a1.23,1.23,0,0,1,1.92-1.53l95.3,118.49a1.23,1.23,0,0,1-1,2Z"/><path class="cls-3" d="M77.88,313.33a1.23,1.23,0,0,1-1-2l95.31-118.49a1.22,1.22,0,1,1,1.91,1.53l-95.3,118.5A1.25,1.25,0,0,1,77.88,313.33Z"/><path class="cls-3" d="M173.18,313.33a1.21,1.21,0,0,1-1-.46L76.92,194.37a1.23,1.23,0,0,1,1.92-1.53l95.3,118.49a1.23,1.23,0,0,1-1,2Z"/><path class="cls-2" d="M94.77,196.75H50.49a3.14,3.14,0,0,1-3.14-3.14h0a3.14,3.14,0,0,1,3.14-3.15H94.77a3.15,3.15,0,0,1,3.14,3.15h0A3.15,3.15,0,0,1,94.77,196.75Z"/><path class="cls-3" d="M222.16,196.75H95.61a3.15,3.15,0,0,1-3.14-3.14h0a3.15,3.15,0,0,1,3.14-3.15H222.16Z"/><path class="cls-2" d="M129,252.85a3.44,3.44,0,1,1-3.44-3.43A3.44,3.44,0,0,1,129,252.85Z"/><path class="cls-4" d="M181.5,252.85a3.44,3.44,0,1,1-3.44-3.43A3.44,3.44,0,0,1,181.5,252.85Z"/><rect class="cls-5" x="87.18" y="55.39" width="52.58" height="41.15" rx="3.99"/><path class="cls-6" d="M124.88,73.56h-1.65A10.1,10.1,0,0,0,122.12,71l1.27-1.27a1.24,1.24,0,0,0,0-1.76L121.6,66.2a1.24,1.24,0,0,0-1.76,0l-1.35,1.35a9.64,9.64,0,0,0-2.4-1v-2a1.25,1.25,0,0,0-1.24-1.25h-2.54a1.24,1.24,0,0,0-1.24,1.25v2a10,10,0,0,0-2.33.92l-1.49-1.48a1.23,1.23,0,0,0-1.75,0l-1.8,1.79a1.26,1.26,0,0,0,0,1.76L105.08,71A10,10,0,0,0,104,73.35h-1.94a1.24,1.24,0,0,0-1.24,1.24v2.54a1.23,1.23,0,0,0,1.24,1.24h1.7a9.81,9.81,0,0,0,.95,2.66l-1.16,1.16a1.24,1.24,0,0,0,0,1.75l1.8,1.8a1.24,1.24,0,0,0,1.75,0l1-1A9.7,9.7,0,0,0,110.85,86v1.41a1.24,1.24,0,0,0,1.25,1.24h2.53a1.24,1.24,0,0,0,1.25-1.24V86.07a10.09,10.09,0,0,0,2.84-1.15l1,1a1.26,1.26,0,0,0,1.76,0l1.79-1.8a1.23,1.23,0,0,0,0-1.75l-1-1a10.06,10.06,0,0,0,1.09-2.76h1.54a1.24,1.24,0,0,0,1.25-1.24V74.81A1.25,1.25,0,0,0,124.88,73.56Zm-10,9a6.39,6.39,0,1,1,5-5A6.4,6.4,0,0,1,114.83,82.58Z"/><rect class="cls-3" x="154.34" y="32.66" width="52.58" height="41.15" rx="3.99"/><path class="cls-6" d="M171.75,60.15a1.22,1.22,0,0,1-.87-.38l-5.54-5.93a1.38,1.38,0,0,1,0-1.86L171,46a1.15,1.15,0,0,1,1.73,0,1.37,1.37,0,0,1,0,1.85l-4.77,5.11,4.68,5a1.38,1.38,0,0,1,0,1.86A1.22,1.22,0,0,1,171.75,60.15Z"/><path class="cls-6" d="M189.51,60.15a1.2,1.2,0,0,1-.87-.38,1.38,1.38,0,0,1,0-1.86l4.67-5-4.77-5.11a1.37,1.37,0,0,1,0-1.85,1.17,1.17,0,0,1,1.74,0l5.64,6a1.35,1.35,0,0,1,.36.93,1.37,1.37,0,0,1-.36.93l-5.55,5.93A1.19,1.19,0,0,1,189.51,60.15Z"/><path class="cls-6" d="M177.88,61.78a1.14,1.14,0,0,1-.47-.1,1.35,1.35,0,0,1-.67-1.71l5.5-14.46a1.2,1.2,0,0,1,1.6-.72,1.35,1.35,0,0,1,.68,1.71L179,61A1.22,1.22,0,0,1,177.88,61.78Z"/><path class="cls-6" d="M134.18,76.66H241.54a1.66,1.66,0,0,1,1.66,1.66v3.4a0,0,0,0,1,0,0H132.52a0,0,0,0,1,0,0v-3.4A1.66,1.66,0,0,1,134.18,76.66Z"/><path class="cls-7" d="M132.52,81.72H243.2a0,0,0,0,1,0,0v55.92a3.09,3.09,0,0,1-3.09,3.09H135.61a3.09,3.09,0,0,1-3.09-3.09V81.72A0,0,0,0,1,132.52,81.72Z"/><path class="cls-3" d="M237.88,79.19a.77.77,0,0,1-.77.78.78.78,0,0,1,0-1.56A.77.77,0,0,1,237.88,79.19Z"/><path class="cls-3" d="M232.54,79.19a.78.78,0,1,1-.78-.78A.78.78,0,0,1,232.54,79.19Z"/><path class="cls-3" d="M227.19,79.19a.78.78,0,1,1-.78-.78A.78.78,0,0,1,227.19,79.19Z"/><path class="cls-5" d="M199.72,89.69H138.26a1.07,1.07,0,0,1-1.07-1.07h0a1.07,1.07,0,0,1,1.07-1.07h61.46a1.07,1.07,0,0,1,1.07,1.07h0A1.07,1.07,0,0,1,199.72,89.69Z"/><path class="cls-5" d="M199.72,96.5H138.26a1.07,1.07,0,0,1-1.07-1.07h0a1.07,1.07,0,0,1,1.07-1.07h61.46a1.07,1.07,0,0,1,1.07,1.07h0A1.07,1.07,0,0,1,199.72,96.5Z"/><path class="cls-5" d="M170.4,103.31H138.26a1.07,1.07,0,0,1-1.07-1.07h0a1.07,1.07,0,0,1,1.07-1.07H170.4a1.07,1.07,0,0,1,1.07,1.07h0A1.07,1.07,0,0,1,170.4,103.31Z"/><path class="cls-3" d="M199.72,116.92H138.26a1.07,1.07,0,0,1-1.07-1.07h0a1.07,1.07,0,0,1,1.07-1.07h61.46a1.07,1.07,0,0,1,1.07,1.07h0A1.07,1.07,0,0,1,199.72,116.92Z"/><path class="cls-3" d="M170.4,123.73H138.26a1.07,1.07,0,0,1-1.07-1.07h0a1.07,1.07,0,0,1,1.07-1.07H170.4a1.07,1.07,0,0,1,1.07,1.07h0A1.07,1.07,0,0,1,170.4,123.73Z"/><path class="cls-5" d="M170.4,130.53H138.26a1.06,1.06,0,0,1-1.07-1.07h0a1.06,1.06,0,0,1,1.07-1.06H170.4a1.06,1.06,0,0,1,1.07,1.06h0A1.06,1.06,0,0,1,170.4,130.53Z"/><path class="cls-6" d="M199.72,103.31h-23.1a1.07,1.07,0,0,1-1.07-1.07h0a1.07,1.07,0,0,1,1.07-1.07h23.1a1.07,1.07,0,0,1,1.07,1.07h0A1.07,1.07,0,0,1,199.72,103.31Z"/><path class="cls-3" d="M230.22,88l-16.33,16.33a1.06,1.06,0,0,1-1.51,0h0a1.06,1.06,0,0,1,0-1.51l16.33-16.33a1.06,1.06,0,0,1,1.51,0h0A1.06,1.06,0,0,1,230.22,88Z"/><circle class="cls-3" cx="221.3" cy="118.91" r="9.63" transform="translate(54.54 306.81) rotate(-76.66)"/><path class="cls-5" d="M220,125.62a5.45,5.45,0,1,1-5.45-5.45A5.45,5.45,0,0,1,220,125.62Z"/><polyline class="cls-7" points="132.52 134.75 132.52 154.22 150.41 136.33"/><polygon class="cls-8" points="113.47 159.49 152.74 159.49 166.93 186.81 127.67 186.81 113.47 159.49"/><path class="cls-6" d="M128.46,184.79l-11.75-22.63a.71.71,0,0,1,.63-1h34a.71.71,0,0,1,.63.39l11.76,22.62a.71.71,0,0,1-.64,1h-34A.72.72,0,0,1,128.46,184.79Z"/><rect class="cls-9" x="127.67" y="186.81" width="31.8" height="3.65"/><path class="cls-10" d="M186.79,186.81H155.41a1.82,1.82,0,0,0-1.82,1.83h0a1.82,1.82,0,0,0,1.82,1.82h31.38a1.82,1.82,0,0,0,1.82-1.82h0A1.82,1.82,0,0,0,186.79,186.81Z"/><path class="cls-9" d="M127.67,186.81l-14.2-27.32-.71.53a1.16,1.16,0,0,0-.33,1.48l15.24,29Z"/><rect class="cls-10" x="138.46" y="188.51" width="3.5" height="0.61"/><rect class="cls-10" x="142.86" y="188.51" width="3.5" height="0.61"/><rect class="cls-10" x="147.27" y="188.51" width="3.5" height="0.61"/><path class="cls-7" d="M199.25,240.3s-32.57,25.35-37.73,31.79c-2,2.44-5.35,6.72-8.86,11.1-5.78,7.19-11.91,14.69-12.64,14.87-1.16.29-10.94-7.15-11.23-8.75-.18-1,8.72-16.27,16.42-28.55,4.69-7.47,8.93-13.83,10.42-15.21,3.93-3.65,28.16-16.48,28.16-16.48Z"/><path class="cls-11" d="M137.1,292.65s30.43-43.31,45.7-50.6"/><path class="cls-12" d="M233.19,129.1c-.34.78-.73,1.6-1.17,2.44-2.39,4.55-.63,9.11-3.34,10.27a4,4,0,0,1-.55.17c-3.51.78-11.58-3.89-11.93-6.22s2.49-6.33,0-6.81-3.83,3.7-3.83,3.7c-2,.21-2.77-3.22-6.13-3.22a5.89,5.89,0,0,0-1.39.18,11.16,11.16,0,0,0-4.88,3.11,6.66,6.66,0,0,1-2.85-5.62c.24-5.9,2.42-10.21,7.66-11.08.59-6.57,6-10.07,13.21-10.29,6.32-.2,7.27,5.49,7.42,6.91a15.87,15.87,0,0,0-1.86-6.91c3.17-.14,6,2.12,5.23,9.49.73-2.2,3.28-3.58,5.25-2-1.82,0-3.57,3.07-3.57,3.07a12.2,12.2,0,0,1,3.59,3.89C235.26,122.29,234.81,125.37,233.19,129.1Z"/><path class="cls-13" d="M228.68,141.81l-.09,1.08-.27,3.83s-5.83,5-9.14,0a.61.61,0,0,0-.07-.1c-1-1.52-2-2.05-2.79-2.15-1.83-.22-3.3,1.56-4.82-.37a37,37,0,0,1-6.65-14.49,5.89,5.89,0,0,1,1.39-.18c3.36,0,4.09,3.43,6.13,3.22,0,0,1.34-4.18,3.83-3.7s-.35,4.48,0,6.81c.16,1,1.85,2.55,4,3.82,2.49,1.5,5.6,2.69,7.58,2.46l.35-.06A4,4,0,0,0,228.68,141.81Z"/><path class="cls-14" d="M229.58,148.94c-2.62,1.79-7.44,2.09-7.44,2.09l-3.93-.59s-1.65-2.39-.88-3.72a4.92,4.92,0,0,1,1-1.05,28.49,28.49,0,0,1,4.52-2.89,14.28,14.28,0,0,1,5-1.77C231.24,140.82,232.21,147.14,229.58,148.94Z"/><path class="cls-5" d="M228.81,212.78c-5.86,1.13-18.26-2.32-24.2-5-1.75-.79-2.94-1.51-3.23-2-1.14-2,0-3.54,2.83-9.91q.48-1.08,1-2.34c1.91-4.51,1.92-14.13,1.91-22.42,0-7.09-.06-13.22,1.07-14.3,2.45-2.36,14.66-10.08,14.66-10.08l2.43,12.67s1.38,6.43,2.83,14.83C230.8,189.68,233.73,211.83,228.81,212.78Z"/><path class="cls-7" d="M232.89,218.42c0,.58-5.83,14.19-10.73,16.14s-34.39-.2-34.39-.2l-14.59,9.54,3.06,28.73,2.12,20,.07.64c-4.46,2.92-15.7,3.7-16.91,1.19a0,0,0,0,1,0,0c-1.17-2.53-19.06-56.4-12-65.74s51.92-22.95,51.92-22.95a24.6,24.6,0,0,0,4,2,76.7,76.7,0,0,0,16.17,4.08c1.85.29,3.48.5,4.73.65,1.57.19,2.52.26,2.52.26S232.89,217.83,232.89,218.42Z"/><path class="cls-15" d="M180.28,312.06H142.35a2.24,2.24,0,0,1,.64-2c1.54-1.85,5.39-3.7,9.11-5.31,3.53-1.52,6.92-2.83,8.05-3.73,2.68-2.12,1.44-6.25,1.37-6.5.41.84,2,1.32,4,1.46,4,.28,9.95-.72,12.91-2.65l-.07-.64c1.13,2.16,1.67,12.84,1.85,17.37C180.25,311.28,180.28,312.06,180.28,312.06Z"/><path class="cls-16" d="M165.52,295.94c-.11,1.81-.37,4.74-.9,5.52-.78,1.17-9.14,5.26-10.3,4.86a6.77,6.77,0,0,1-2.22-1.61c3.53-1.52,6.92-2.83,8.05-3.73,2.68-2.12,1.44-6.25,1.37-6.5C161.93,295.32,163.48,295.8,165.52,295.94Z"/><path class="cls-16" d="M180.28,312.06H142.35a2.24,2.24,0,0,1,.64-2h37.22C180.25,311.28,180.28,312.06,180.28,312.06Z"/><path class="cls-15" d="M140,298.06a87.38,87.38,0,0,1-5.38,11.61c-1,1.61-1.93,2.64-2.59,2.39-2.34-.87-25.78-20.8-23.54-22.26a3.82,3.82,0,0,1,1.51-.44,44.36,44.36,0,0,1,8.55.34c2.68.28,5.18.58,6.48.58,3.3,0,3.74-1,3.74-1a5.86,5.86,0,0,0,1.62,2C133.31,294.05,139.13,298.28,140,298.06Z"/><path class="cls-16" d="M130.41,291.3a10.86,10.86,0,0,1-11.17.56,2.22,2.22,0,0,1-.67-2.16c2.68.28,5.18.58,6.48.58,3.3,0,3.74-1,3.74-1A5.86,5.86,0,0,0,130.41,291.3Z"/><path class="cls-16" d="M134.64,309.67c-1,1.61-1.93,2.64-2.59,2.39-2.34-.87-25.78-20.8-23.54-22.26a3.82,3.82,0,0,1,1.51-.44Z"/><path class="cls-13" d="M204.63,188c-1.83,2.55-5.12,6.44-7.82,6l-.33-.06c-5.16-.9-35.48-8.51-36.92-8.79s-11.66-.39-11.08-1.46,6.42-4.47,8-4.39,7.69,1.86,13.81,1.66,22.17,0,22.17,0l.78-1.34,1.15-2C194,183.59,201.2,188.44,204.63,188Z"/><path class="cls-11" d="M204.63,210.1s-1.4,7.44,4.05,9.92"/><path class="cls-11" d="M201.77,216.08s-36,15.37-37.75,20.13,9.16,56.44,9.16,56.44"/><path class="cls-17" d="M232.89,218.42c0,.58-5.83,14.19-10.73,16.14s-34.39-.2-34.39-.2l-14.59,9.54,3.06,28.73s-6.17-32.82-6.17-35c0-1.83,40.75-13.55,51.49-25.8,4.2.66,7.25.91,7.25.91S232.89,217.83,232.89,218.42Z"/><path class="cls-14" d="M213.68,183.6c-2.53,3.59-6.6,8.14-9.47,12.26q.48-1.08,1-2.34c1.91-4.51,1.92-14.13,1.91-22.42l8.73-5.78S217.77,177.81,213.68,183.6Z"/><path class="cls-18" d="M206.22,186.85c-.37.34-.76.69-1.14,1a2.11,2.11,0,0,1-.45.1c-3.43.48-10.59-4.37-10.27-10.31a8.28,8.28,0,0,1,.95-2.48c2.93-5.91,11.74-19.06,13.36-18.46,0,0,5.67.88,7.2,8.61C217.32,172.58,212.12,181.39,206.22,186.85Z"/><path class="cls-14" d="M226.29,212.52c-1.25-.15-2.88-.36-4.73-.65a76.7,76.7,0,0,1-16.17-4.08c4.4-.16,13.82-3.06,15-24.62a107.67,107.67,0,0,0,2.38,12.5C224.17,201.35,225.54,207.35,226.29,212.52Z"/><path class="cls-14" d="M224,141.38a13.5,13.5,0,0,0-1.07,1.4,28.49,28.49,0,0,0-4.52,2.89,3.25,3.25,0,0,0-2.05-1.2l3.88-4.89A20.26,20.26,0,0,0,224,141.38Z"/><path class="cls-14" d="M204.63,188c-1.83,2.55-5.12,6.44-7.82,6l-.33-.06c-3.34-4.82-3.47-11.15-3.27-14.32l1.15-2C194,183.59,201.2,188.44,204.63,188Z"/><path class="cls-14" d="M233.19,129.1c-.34.78-.73,1.6-1.17,2.44a16.4,16.4,0,0,0-1.54,6.3,12.65,12.65,0,0,0-1.19-.82,21.25,21.25,0,0,0-5.33,4.36h0c-3.57-1.27-7.5-4-7.75-5.62-.35-2.33,2.49-6.33,0-6.81s-3.83,3.7-3.83,3.7c-2,.21-2.77-3.22-6.13-3.22a5.89,5.89,0,0,0-1.39.18,10.14,10.14,0,0,0-3.85,2.12s3.78-5.31,9.72-4.24c0,0-.87-1.65-4.86-1.45,8.36-2.73,13.71-1.66,16.28,1.36C224.25,129.86,229.18,132.9,233.19,129.1Z"/><path class="cls-9" d="M250.2,243.9H221s23.15-6.81,23.15-52.71c0-.59,0-1.17,0-1.75-.24-30.68-6.79-47.6-14.87-52.42a35,35,0,0,1,10.34-3.92,55.32,55.32,0,0,1,6.44-1c20-2,35.94,5.8,37.84,14.66S274.12,243.9,250.2,243.9Z"/><path class="cls-8" d="M244.17,191.19c0,45.9-23.15,52.71-23.15,52.71H173.18l2-1.42,12.6-8.12,25.28-1.75c1.36-5.64,5.06-5.83,10.7-6.42,3.28-.33,3.6-5.87,2.6-13.2a167.41,167.41,0,0,0-3.62-17.32,107.67,107.67,0,0,1-2.38-12.5,111.51,111.51,0,0,1-.91-13.48,114.52,114.52,0,0,1,2.35-23.92c.12-.58.24-1.14.36-1.67,0,0,0,0,0-.06a12.08,12.08,0,0,1,1.79-2.66h0a21.25,21.25,0,0,1,5.33-4.36,12.65,12.65,0,0,1,1.19.82c7.53,5.73,13.45,22.45,13.68,51.6C244.17,190,244.17,190.6,244.17,191.19Z"/><path class="cls-9" d="M234.94,312.06H200.5a1.24,1.24,0,0,1-.77-2.22l8.62-6.74a15.8,15.8,0,0,0,6.06-12.44V243.9H221v46.76a15.81,15.81,0,0,0,6.07,12.44l8.61,6.74A1.24,1.24,0,0,1,234.94,312.06Z"/><g class="cls-19"><path class="cls-20" d="M261.21,133.82s.25.65.66,1.93"/><path class="cls-21" d="M263,139.74a159.52,159.52,0,0,1,3.89,20.52c3.14,24.16,0,58.06-21.05,79.54"/><path class="cls-20" d="M244.39,241.27c-.49.47-1,.93-1.5,1.39"/></g><path class="cls-17" d="M221,243.9v12.77a46.67,46.67,0,0,1-6.61,2.78V243.9Z"/><path class="cls-17" d="M230.17,224.06c-1.56,4.86-11.27,4-12.45,7.59-2.51,7.63-3.89,4.27-13.51,5.24-5.5.56-9.49,4.09-11.9,7H173.18l2-1.42,12.6-8.12,25.28-1.75c1.36-5.64,5.06-5.83,10.7-6.42,3.28-.33,3.6-5.87,2.6-13.2a167.41,167.41,0,0,0-3.62-17.32,107.67,107.67,0,0,1-2.38-12.5,111.51,111.51,0,0,1-.91-13.48C223.18,189.18,231.32,220.46,230.17,224.06Z"/><path class="cls-17" d="M244.17,191.19c0-.59,0-1.17,0-1.75-.24-30.68-6.79-47.6-14.87-52.42a35,35,0,0,1,10.34-3.92c-1.34,1.92-2.73,4.81-2.07,7.9,1.17,5.46,14.39,26.46,9.34,60.11-3.66,24.27-2.44,36.9,1.37,42.79H221S244.17,237.09,244.17,191.19Z"/><path class="cls-14" d="M77.22,166.18a14.4,14.4,0,0,1-.31,3H67.53a29.41,29.41,0,0,1-10-10.91c2.52,2.74,6.81,6.07,11.18,7.08C72.55,166.21,75.39,165.83,77.22,166.18Z"/><path class="cls-5" d="M99,128.91c-1,3.81-5.85,11.19-10.24,19.1-4.8,8.62-9.09,17.86-7.41,23.73a12.92,12.92,0,0,1,.61,3.33c0,2.56-1.93,1.76-3.88.31a35.33,35.33,0,0,1-4-3.64l.15-11.38s-6.45-5.92-1.16-18.89c.34-.81.72-1.67,1.16-2.55,7.29-14.73,18.22-30.19,7.87-34.57C96.41,103.47,101.22,121,99,128.91Z"/><g class="cls-22"><path d="M82.11,104.35A10.59,10.59,0,0,1,88.6,109a13.63,13.63,0,0,1,1,1.79,16.52,16.52,0,0,1,.71,1.93,15.28,15.28,0,0,1,.47,2l.18,1,.06,1a25.22,25.22,0,0,1-1.85,8c-1,2.56-2,5.07-3.19,7.55-2.27,5-4.73,9.84-6.89,14.84a66,66,0,0,0-2.86,7.62,25.54,25.54,0,0,0-.86,3.93,8.61,8.61,0,0,0,.27,3.86h0a.41.41,0,0,1-.25.53.42.42,0,0,1-.52-.25h0a9.37,9.37,0,0,1-.26-4.23,25.9,25.9,0,0,1,.93-4.05,71,71,0,0,1,3-7.66c2.24-5,4.76-9.84,7.09-14.76,1.17-2.47,2.3-4.95,3.28-7.49a25.44,25.44,0,0,0,1.93-7.87l0-1-.16-1a15.07,15.07,0,0,0-.45-2,16.86,16.86,0,0,0-.68-1.92,14,14,0,0,0-1-1.79A10.53,10.53,0,0,0,82.11,104.35Z"/></g><path class="cls-18" d="M92.46,151.9c-4.37,11.53,0,20.27-6.56,21.51-3,.57-4.33-1.65-4.88-4.24a23.57,23.57,0,0,1-.22-6.62,22.19,22.19,0,0,1,3.46-5.62A13.83,13.83,0,0,1,92.46,151.9Z"/><path class="cls-9" d="M77.22,166.18c0,2.69-.63,5-1.87,6.16-.12.12-.25.23-.36.32-3.1,2.51-5.08-2.09-5.08-2.09s-8.25-4.07-12.35-12.33c-3.13-6.34-3.83-15.16,3.55-26.51,1.08,8.08,5.51,13.58,9.89,18.8h0l1.63,1.94A22.41,22.41,0,0,1,77.22,166.18Z"/><g class="cls-22"><path d="M61.11,131.74a35.73,35.73,0,0,0-.56,10.57,22.89,22.89,0,0,0,3.24,10c1.83,3,4.38,5.5,6.69,8.22a20.12,20.12,0,0,1,3,4.46,10.66,10.66,0,0,1,1,5.37.41.41,0,0,1-.45.37.41.41,0,0,1-.37-.44h0a9.76,9.76,0,0,0-.83-5A19.61,19.61,0,0,0,70,160.88c-2.23-2.73-4.76-5.29-6.57-8.4a23.07,23.07,0,0,1-3.09-10.15A35.86,35.86,0,0,1,61.11,131.74Z"/></g><g class="cls-19"><path d="M92.47,151.9c-1.26,1.45-2.42,3-3.54,4.53s-2.16,3.15-3.11,4.81a30.25,30.25,0,0,0-4,10.56h0a.4.4,0,0,1-.46.35.41.41,0,0,1-.35-.46v0A30.64,30.64,0,0,1,85.47,161c1-1.63,2.14-3.2,3.3-4.72S91.16,153.31,92.47,151.9Z"/></g><path class="cls-9" d="M89.81,172,87,189.22a1.53,1.53,0,0,1-1.5,1.24H68.07a1.53,1.53,0,0,1-1.51-1.24l-2.28-14L63.76,172a1.54,1.54,0,0,1,1.51-1.81h23A1.53,1.53,0,0,1,89.81,172Z"/><path class="cls-8" d="M92.46,175.53H61.11l.83-4.68a2.07,2.07,0,0,1,2-1.7H89.62a2.06,2.06,0,0,1,2,1.7Z"/><path class="cls-14" d="M80.8,162.55a23.65,23.65,0,0,0,.21,6.6h-4.1a14.4,14.4,0,0,0,.31-3,22.41,22.41,0,0,0-4.59-13.7L71,150.54h0a26,26,0,0,1,2.08-9.06c.24,4.14,1.26,11.32,5.38,12.08,3.14.58,7.22-2.53,10.33-5.54-1.65,3-3.23,6-4.53,8.92A22.19,22.19,0,0,0,80.8,162.55Z"/><path class="cls-14" d="M78.48,190.46H68.07a1.53,1.53,0,0,1-1.51-1.24l-2.23-13.69h9a25.92,25.92,0,0,0,.19,8.27A12.25,12.25,0,0,0,78.48,190.46Z"/><rect class="cls-7" x="108.76" y="7.73" width="52.58" height="41.15" rx="3.99"/><path class="cls-6" d="M121,22.29v4.43a.64.64,0,0,0,.64.64h2.45a.64.64,0,0,0,.64-.64V22.29a.64.64,0,0,1,.65-.64h.23a.64.64,0,0,1,.65.64v12a.65.65,0,0,1-.65.64h-.23a.65.65,0,0,1-.65-.64V29.39a.64.64,0,0,0-.64-.65h-2.45a.65.65,0,0,0-.64.65v4.94a.64.64,0,0,1-.64.64h-.24a.64.64,0,0,1-.64-.64v-12a.63.63,0,0,1,.64-.64h.24A.64.64,0,0,1,121,22.29Z"/><path class="cls-6" d="M129.54,23H128.4a.64.64,0,0,1-.64-.64v-.08a.63.63,0,0,1,.64-.64h5.1a.64.64,0,0,1,.64.64v.08a.64.64,0,0,1-.64.64h-1.15a.64.64,0,0,0-.64.64V34.33a.64.64,0,0,1-.64.64h-.24a.64.64,0,0,1-.64-.64V23.65A.65.65,0,0,0,129.54,23Z"/><path class="cls-6" d="M143.61,29.24c-.1-1.76-.2-3.72-.14-5.22h-.08c-.3,1.48-.65,3.06-1.07,4.62l-1.64,6.25h-1l-1.56-6c-.43-1.7-.83-3.34-1.09-4.88H137c0,1.56-.08,3.42-.16,5.32l-.23,5A.65.65,0,0,1,136,35h-.07a.64.64,0,0,1-.64-.68l.71-12a.64.64,0,0,1,.64-.6h.54a.63.63,0,0,1,.62.48l1.44,5.6c.45,1.76.79,3.07,1.07,4.59h.06c.25-1.52.55-2.79,1-4.59l1.39-5.6a.63.63,0,0,1,.62-.48h.59a.64.64,0,0,1,.64.6l.7,12a.64.64,0,0,1-.64.68h-.13a.65.65,0,0,1-.65-.61Z"/><path class="cls-6" d="M148,21.65h.24a.64.64,0,0,1,.64.64V33a.65.65,0,0,0,.64.65H152a.64.64,0,0,1,.64.64h0A.64.64,0,0,1,152,35h-4a.64.64,0,0,1-.64-.64v-12A.64.64,0,0,1,148,21.65Z"/><path class="cls-7" d="M177.68,11.26a1.89,1.89,0,0,0,2.07-2.13,23.91,23.91,0,0,0-.18-2.57,26.4,26.4,0,0,1-.19-2.68A3.51,3.51,0,0,1,183.21,0h.36V1.58h-.45c-1.28,0-1.79.91-1.79,2.27a18.51,18.51,0,0,0,.18,2.31c.06.79.15,1.52.15,2.25,0,2.36-.79,3.18-2.09,3.55V12c1.3.39,2.12,1.21,2.09,3.61,0,.76-.09,1.52-.15,2.27a19.47,19.47,0,0,0-.18,2.34c0,1.37.45,2.31,1.82,2.31h.42v1.58h-.39c-2,0-3.8-1-3.8-3.89a26.59,26.59,0,0,1,.19-2.7,26,26,0,0,0,.18-2.61,1.92,1.92,0,0,0-2.07-2.15Z"/><path class="cls-7" d="M208.62,12.78a1.91,1.91,0,0,0-2.06,2.15,26,26,0,0,0,.18,2.61,26.61,26.61,0,0,1,.18,2.7c0,2.88-1.79,3.89-3.79,3.89h-.4V22.55h.43c1.36-.15,1.82-.94,1.82-2.31,0-.82-.09-1.58-.15-2.34a19.11,19.11,0,0,1-.18-2.27c0-2.4.78-3.22,2.09-3.61V12c-1.31-.37-2.12-1.19-2.09-3.55a20,20,0,0,1,.18-2.25c.06-.73.15-1.49.15-2.31,0-1.36-.52-2.12-1.79-2.27h-.46V0h.37a3.51,3.51,0,0,1,3.82,3.88,26.4,26.4,0,0,1-.18,2.68,23.91,23.91,0,0,0-.18,2.57,1.88,1.88,0,0,0,2.06,2.13Z"/><polygon class="cls-3" points="198.21 14.98 198.21 9.14 193.15 6.22 188.1 9.14 188.1 14.98 193.15 17.9 198.21 14.98"/><path class="cls-3" d="M236.24,44.07A12.33,12.33,0,0,0,221.53,63.3l-1.85-.22a.41.41,0,0,0-.46.36.42.42,0,0,0,.36.45l2.82.34a.42.42,0,0,0,.31-.09.39.39,0,0,0,.15-.27l.32-2.73a.41.41,0,0,0-.35-.46.42.42,0,0,0-.46.36l-.21,1.74a11.52,11.52,0,0,1,13.72-18,.41.41,0,0,0,.55-.18A.4.4,0,0,0,236.24,44.07Z"/><path class="cls-3" d="M225.62,66.72a12.33,12.33,0,0,0,14.71-19.23l1.85.22a.42.42,0,0,0,.46-.36.41.41,0,0,0-.36-.46l-2.82-.33a.44.44,0,0,0-.3.08.46.46,0,0,0-.16.28l-.32,2.73a.41.41,0,1,0,.81.09L239.7,48A11.51,11.51,0,0,1,226,66a.41.41,0,0,0-.36.74Z"/><path class="cls-3" d="M335.08,89.69H261a2.45,2.45,0,0,1-2.45-2.44h0A2.45,2.45,0,0,1,261,84.8h74.07a2.45,2.45,0,0,1,2.44,2.45h0A2.44,2.44,0,0,1,335.08,89.69Z"/><path class="cls-5" d="M308.63,100.32H261a2.45,2.45,0,0,1-2.45-2.45h0A2.45,2.45,0,0,1,261,95.43h47.62a2.44,2.44,0,0,1,2.44,2.44h0A2.45,2.45,0,0,1,308.63,100.32Z"/><path class="cls-5" d="M308.63,111.73H261a2.45,2.45,0,0,1-2.45-2.45h0a2.45,2.45,0,0,1,2.45-2.44h47.62a2.44,2.44,0,0,1,2.44,2.44h0A2.45,2.45,0,0,1,308.63,111.73Z"/><path class="cls-5" d="M72.44,49.07H34a2.45,2.45,0,0,1-2.45-2.44h0A2.45,2.45,0,0,1,34,44.18H72.44a2.45,2.45,0,0,1,2.44,2.45h0A2.44,2.44,0,0,1,72.44,49.07Z"/><path class="cls-3" d="M57.91,59.7H34a2.45,2.45,0,0,1-2.45-2.45h0A2.45,2.45,0,0,1,34,54.81H57.91a2.44,2.44,0,0,1,2.44,2.44h0A2.45,2.45,0,0,1,57.91,59.7Z"/><path class="cls-3" d="M57.91,71.11H34a2.45,2.45,0,0,1-2.45-2.45h0A2.45,2.45,0,0,1,34,66.22H57.91a2.44,2.44,0,0,1,2.44,2.44h0A2.45,2.45,0,0,1,57.91,71.11Z"/><path class="cls-18" d="M301.71,226.29a119.55,119.55,0,0,1-8.26,18.52c-10.35,18.91-22.38,30.94-22.83,48.58a105.5,105.5,0,0,1-.73-35.54c1.67-10.64,5.47-22,13.24-31.56,21.62-26.58,18.41-50.76,18.41-50.76S312.38,195.36,301.71,226.29Z"/><g class="cls-19"><path d="M276.24,272.7a27.19,27.19,0,0,1,0-6.5,40.19,40.19,0,0,1,1.15-6.36,59.88,59.88,0,0,1,4.6-12c.93-1.93,2.05-3.77,3.14-5.62l3.48-5.37a76.08,76.08,0,0,0,5.66-11.4,112.26,112.26,0,0,0,4.05-12.1c1.13-4.11,2.06-8.28,2.79-12.47a115.32,115.32,0,0,0,1.53-12.69,61.93,61.93,0,0,0,.1-6.39,28.44,28.44,0,0,0-.3-3.19,9.93,9.93,0,0,0-.87-3.06,9.85,9.85,0,0,1,.92,3.06,28.36,28.36,0,0,1,.35,3.18,62.29,62.29,0,0,1,0,6.41,106.92,106.92,0,0,1-1.38,12.74q-1,6.33-2.66,12.54a111.26,111.26,0,0,1-3.93,12.21,75.67,75.67,0,0,1-5.6,11.57l-3.45,5.39c-1.07,1.83-2.17,3.66-3.08,5.57a59.49,59.49,0,0,0-4.51,11.86,45.22,45.22,0,0,0-1.14,6.23,27.32,27.32,0,0,0,0,6.26v0a.41.41,0,0,1-.81.11Z"/></g><path class="cls-14" d="M293.45,244.81c-10.35,18.91-22.38,30.94-22.83,48.58a105.5,105.5,0,0,1-.73-35.54C276.6,255.1,286,250.63,293.45,244.81Z"/><path class="cls-5" d="M276.63,312.06s-7.57-12.92,10.33-28.87,31.89-37.05,29.17-54.12c-17.11,19.88-62.62,48.08-49.79,83Z"/><g class="cls-19"><path d="M316.13,229.07a58.49,58.49,0,0,1-6.46,10.55,89.47,89.47,0,0,1-8.15,9.35,120.63,120.63,0,0,1-9.24,8.27,60.93,60.93,0,0,0-8.53,8.91,67.11,67.11,0,0,0-11.44,21.74A47.45,47.45,0,0,0,270.22,300a27.84,27.84,0,0,0,2,12,.41.41,0,0,1-.75.33h0a28.36,28.36,0,0,1-2-12.3,48,48,0,0,1,2.21-12.25,67.5,67.5,0,0,1,11.71-21.81,61.68,61.68,0,0,1,8.65-8.9,122.37,122.37,0,0,0,9.3-8.17,92.66,92.66,0,0,0,8.21-9.27A58.06,58.06,0,0,0,316.13,229.07Z"/></g><path class="cls-18" d="M19.83,218.42s-9.34-8.51-14.3-29.78c28.59,24.23,35.59,45.82,35.59,45.82Z"/><g class="cls-19"><path d="M5.53,188.64q6,8.54,11.65,17.26c1.89,2.92,3.75,5.86,5.54,8.83a92.44,92.44,0,0,1,5,9.19.41.41,0,0,1-.21.54.42.42,0,0,1-.54-.2h0A90,90,0,0,0,22.2,215q-2.61-4.5-5.36-8.92Q11.34,197.28,5.53,188.64Z"/></g><path class="cls-5" d="M40.54,230.38c-5.14-4.64-12.75-9.23-20-14.17C10.91,209.64,1.93,202.42.27,193.6c-3.78,31.82,33.22,46.14,33.22,46.14l.08.11L47,259.45S52.5,241.17,40.54,230.38Z"/><g class="cls-19"><path d="M.27,193.6a24.44,24.44,0,0,0,2.55,10.2A31,31,0,0,0,9,212.32a51.54,51.54,0,0,0,8.38,6.44c3,1.93,6,3.79,8.89,5.79,5.84,4,11.43,8.59,15.34,14.6a36.71,36.71,0,0,1,5.81,20.3.41.41,0,0,1-.41.41.41.41,0,0,1-.41-.41h0a36.05,36.05,0,0,0-5.5-20c-3.79-5.94-9.28-10.59-15.06-14.6-2.9-2-5.89-3.9-8.83-5.86a51.83,51.83,0,0,1-8.35-6.55,31.53,31.53,0,0,1-6.14-8.62A24.82,24.82,0,0,1,.27,193.6Z"/></g><path class="cls-23" d="M304,326.26H55.36a7.09,7.09,0,0,1-7.09-7.1h0a7.09,7.09,0,0,1,7.09-7.1H304a7.1,7.1,0,0,1,7.1,7.1h0A7.1,7.1,0,0,1,304,326.26Z"/></g></g></g></svg>